<svg width="24" height="24" viewBox="0 0 24 24" fill="none" xmlns="http://www.w3.org/2000/svg">
<path d="M20.25 8.4375H18.5625V6.75C18.5625 5.80517 18.1872 4.89903 17.5191 4.23093C16.851 3.56283 15.9448 3.1875 15 3.1875H13.8816C12.7941 2.23125 11.3025 1.6875 9.75 1.6875C6.54469 1.6875 3.9375 3.95812 3.9375 6.75V19.5C3.9375 19.8481 4.07578 20.1819 4.32192 20.4281C4.56806 20.6742 4.9019 20.8125 5.25 20.8125H17.25C17.5981 20.8125 17.9319 20.6742 18.1781 20.4281C18.4242 20.1819 18.5625 19.8481 18.5625 19.5V18.5625H20.25C20.797 18.5625 21.3216 18.3452 21.7084 17.9584C22.0952 17.5716 22.3125 17.047 22.3125 16.5V10.5C22.3125 9.95299 22.0952 9.42839 21.7084 9.04159C21.3216 8.6548 20.797 8.4375 20.25 8.4375ZM9.75 2.8125C11.0981 2.8125 12.3825 3.30188 13.2741 4.15594C13.3787 4.25633 13.5181 4.31242 13.6631 4.3125H15C15.5485 4.31267 16.081 4.49786 16.5112 4.83811C16.9415 5.17836 17.2444 5.65378 17.3709 6.1875H5.11125C5.4375 4.28156 7.39313 2.8125 9.75 2.8125ZM17.4375 19.5C17.4375 19.5497 17.4177 19.5974 17.3826 19.6326C17.3474 19.6677 17.2997 19.6875 17.25 19.6875H5.25C5.20027 19.6875 5.15258 19.6677 5.11742 19.6326C5.08225 19.5974 5.0625 19.5497 5.0625 19.5V7.3125H17.4375V19.5ZM21.1875 16.5C21.1875 16.7486 21.0887 16.9871 20.9129 17.1629C20.7371 17.3387 20.4986 17.4375 20.25 17.4375H18.5625V9.5625H20.25C20.4986 9.5625 20.7371 9.66127 20.9129 9.83709C21.0887 10.0129 21.1875 10.2514 21.1875 10.5V16.5ZM9.5625 9.75V17.25C9.5625 17.3992 9.50324 17.5423 9.39775 17.6477C9.29226 17.7532 9.14918 17.8125 9 17.8125C8.85082 17.8125 8.70774 17.7532 8.60225 17.6477C8.49676 17.5423 8.4375 17.3992 8.4375 17.25V9.75C8.4375 9.60082 8.49676 9.45774 8.60225 9.35225C8.70774 9.24676 8.85082 9.1875 9 9.1875C9.14918 9.1875 9.29226 9.24676 9.39775 9.35225C9.50324 9.45774 9.5625 9.60082 9.5625 9.75ZM14.0625 9.75V17.25C14.0625 17.3992 14.0032 17.5423 13.8977 17.6477C13.7923 17.7532 13.6492 17.8125 13.5 17.8125C13.3508 17.8125 13.2077 17.7532 13.1023 17.6477C12.9968 17.5423 12.9375 17.3992 12.9375 17.25V9.75C12.9375 9.60082 12.9968 9.45774 13.1023 9.35225C13.2077 9.24676 13.3508 9.1875 13.5 9.1875C13.6492 9.1875 13.7923 9.24676 13.8977 9.35225C14.0032 9.45774 14.0625 9.60082 14.0625 9.75Z" fill="black"/>
</svg>
