<svg width="24" height="24" viewBox="0 0 24 24" fill="none" xmlns="http://www.w3.org/2000/svg">
<path d="M19.147 19.1026C19.2023 19.1541 19.2466 19.2162 19.2773 19.2852C19.3081 19.3542 19.3246 19.4287 19.3259 19.5042C19.3273 19.5798 19.3134 19.6548 19.2851 19.7248C19.2568 19.7949 19.2147 19.8585 19.1613 19.9119C19.1079 19.9653 19.0442 20.0074 18.9742 20.0357C18.9042 20.064 18.8291 20.0779 18.7536 20.0766C18.6781 20.0752 18.6036 20.0587 18.5346 20.028C18.4656 19.9972 18.4035 19.9529 18.352 19.8976L10.852 12.3976C10.7467 12.2922 10.6875 12.1492 10.6875 12.0001C10.6875 11.8511 10.7467 11.7081 10.852 11.6026L18.352 4.10263C18.4586 4.00327 18.5997 3.94918 18.7454 3.95175C18.8911 3.95432 19.0302 4.01335 19.1332 4.11641C19.2363 4.21947 19.2953 4.35851 19.2979 4.50424C19.3005 4.64996 19.2464 4.791 19.147 4.89763L12.0454 12.0001L19.147 19.1026ZM4.54544 12.0001L11.647 4.89763C11.7464 4.791 11.8005 4.64996 11.7979 4.50424C11.7953 4.35851 11.7363 4.21947 11.6332 4.11641C11.5302 4.01335 11.3911 3.95432 11.2454 3.95175C11.0997 3.94918 10.9586 4.00327 10.852 4.10263L3.352 11.6026C3.24667 11.7081 3.1875 11.8511 3.1875 12.0001C3.1875 12.1492 3.24667 12.2922 3.352 12.3976L10.852 19.8976C10.9035 19.9529 10.9656 19.9972 11.0346 20.028C11.1036 20.0587 11.1781 20.0752 11.2536 20.0766C11.3291 20.0779 11.4042 20.064 11.4742 20.0357C11.5442 20.0074 11.6079 19.9653 11.6613 19.9119C11.7147 19.8585 11.7568 19.7949 11.7851 19.7248C11.8134 19.6548 11.8273 19.5798 11.8259 19.5042C11.8246 19.4287 11.8081 19.3542 11.7773 19.2852C11.7466 19.2162 11.7023 19.1541 11.647 19.1026L4.54544 12.0001Z" fill="black"/>
</svg>
