<svg width="24" height="24" viewBox="0 0 24 24" fill="none" xmlns="http://www.w3.org/2000/svg">
<path d="M21.555 17.4917C22.0778 16.4348 22.3373 15.2672 22.3114 14.0884C22.2855 12.9095 21.9748 11.7545 21.406 10.7216C20.8372 9.68877 20.027 8.8088 19.0446 8.15672C18.0622 7.50464 16.9367 7.09979 15.764 6.9767C15.3916 6.0682 14.84 5.24402 14.1422 4.5533C13.4443 3.86258 12.6145 3.31947 11.7022 2.95637C10.79 2.59327 9.81391 2.41761 8.83229 2.43987C7.85066 2.46212 6.88357 2.68184 5.9887 3.08592C5.09382 3.49 4.28949 4.07016 3.62366 4.79179C2.95784 5.51343 2.44417 6.36177 2.11328 7.28621C1.78239 8.21066 1.64107 9.19227 1.69774 10.1725C1.7544 11.1528 2.0079 12.1115 2.44311 12.9917L1.74092 15.3748C1.67321 15.6016 1.66809 15.8425 1.7261 16.072C1.78412 16.3015 1.90312 16.511 2.07049 16.6784C2.23786 16.8458 2.44738 16.9647 2.67686 17.0228C2.90634 17.0808 3.14724 17.0757 3.37405 17.0079L5.76092 16.3058C6.5368 16.6887 7.37447 16.9309 8.23498 17.0211C8.61525 17.9502 9.18275 18.791 9.90213 19.4913C10.6215 20.1915 11.4774 20.7361 12.4164 21.0912C13.3555 21.4462 14.3575 21.6041 15.3602 21.555C16.363 21.5059 17.3448 21.2509 18.2447 20.8058L20.624 21.5079C20.8509 21.5757 21.0918 21.5808 21.3212 21.5228C21.5507 21.4647 21.7602 21.3458 21.9276 21.1784C22.095 21.011 22.214 20.8015 22.272 20.572C22.33 20.3425 22.3249 20.1016 22.2572 19.8748L21.555 17.4917ZM5.81155 15.1404C5.75794 15.1404 5.70459 15.148 5.65311 15.1629L3.04967 15.9289C3.0174 15.9383 2.9832 15.9389 2.95064 15.9305C2.91808 15.9222 2.88836 15.9052 2.86459 15.8815C2.84082 15.8577 2.82388 15.828 2.81554 15.7954C2.80719 15.7629 2.80776 15.7287 2.81717 15.6964L3.58311 13.0929C3.6243 12.951 3.60849 12.7987 3.53905 12.6683C2.83937 11.3598 2.63321 9.84344 2.95813 8.39565C3.28306 6.94786 4.11743 5.66505 5.30916 4.78105C6.50089 3.89706 7.9706 3.47075 9.45038 3.57985C10.9302 3.68894 12.3215 4.32617 13.3707 5.37538C14.4199 6.42458 15.0571 7.81589 15.1662 9.29567C15.2753 10.7755 14.849 12.2452 13.965 13.4369C13.081 14.6286 11.7982 15.463 10.3504 15.7879C8.90262 16.1128 7.38628 15.9067 6.0778 15.207C5.9959 15.1632 5.90443 15.1403 5.81155 15.1404ZM20.4094 17.5929L21.1753 20.1964C21.1847 20.2287 21.1853 20.2629 21.1769 20.2954C21.1686 20.328 21.1516 20.3577 21.1279 20.3815C21.1041 20.4052 21.0744 20.4222 21.0418 20.4305C21.0093 20.4389 20.9751 20.4383 20.9428 20.4289L18.3394 19.6629C18.1975 19.6219 18.0451 19.6377 17.9147 19.707C17.1878 20.0955 16.3907 20.335 15.57 20.4112C14.7494 20.4874 13.9218 20.3989 13.1358 20.1509C12.3498 19.9029 11.6213 19.5003 10.993 18.9669C10.3647 18.4334 9.84938 17.7799 9.47717 17.0445C10.529 16.9761 11.5535 16.6808 12.4805 16.179C13.4074 15.6772 14.2147 14.9808 14.8471 14.1375C15.4795 13.2943 15.9219 12.3241 16.1439 11.2937C16.3659 10.2634 16.3624 9.19713 16.1334 8.16826C17.0892 8.34696 17.9893 8.74839 18.761 9.33999C19.5326 9.93159 20.1539 10.6967 20.5746 11.5733C20.9953 12.4499 21.2034 13.4133 21.1822 14.3854C21.161 15.3575 20.911 16.3109 20.4525 17.1683C20.3843 17.2992 20.3698 17.4515 20.4122 17.5929H20.4094Z" fill="white"/>
</svg>
