<svg width="24" height="24" viewBox="0 0 24 24" fill="none" xmlns="http://www.w3.org/2000/svg">
<path d="M12.0001 2.4375C10.3424 2.43715 8.71304 2.86774 7.27195 3.68703C5.83086 4.50632 4.62751 5.68616 3.77995 7.11081C2.93238 8.53545 2.46973 10.156 2.43737 11.8133C2.40501 13.4707 2.80406 15.108 3.59537 16.5647L2.50599 19.8337C2.42887 20.065 2.41768 20.3132 2.47367 20.5504C2.52966 20.7877 2.65063 21.0047 2.823 21.1771C2.99538 21.3494 3.21236 21.4704 3.44962 21.5264C3.68688 21.5824 3.93505 21.5712 4.1663 21.4941L7.43537 20.4047C8.71504 21.0991 10.1364 21.4922 11.591 21.5539C13.0457 21.6156 14.4952 21.3444 15.8291 20.7608C17.163 20.1772 18.346 19.2968 19.288 18.1866C20.2299 17.0764 20.9059 15.7657 21.2644 14.3546C21.6229 12.9435 21.6545 11.4691 21.3567 10.044C21.0588 8.61879 20.4395 7.28044 19.5459 6.13097C18.6523 4.98149 17.508 4.05125 16.2003 3.41117C14.8926 2.77108 13.456 2.43806 12.0001 2.4375ZM12.0001 20.4375C10.5169 20.4379 9.05979 20.0472 7.77568 19.305C7.69007 19.2558 7.59317 19.2296 7.49443 19.2291C7.4339 19.2294 7.3738 19.2392 7.31631 19.2581L3.81099 20.4263C3.77796 20.4373 3.7425 20.4389 3.70861 20.4309C3.67471 20.4229 3.64372 20.4056 3.61909 20.381C3.59447 20.3563 3.57719 20.3253 3.56919 20.2914C3.56119 20.2576 3.56279 20.2221 3.5738 20.1891L4.74193 16.6875C4.7672 16.6118 4.7761 16.5317 4.76801 16.4523C4.75993 16.3729 4.73506 16.2962 4.69506 16.2272C3.76436 14.6195 3.39026 12.7495 3.6308 10.9075C3.87134 9.06544 4.71306 7.35428 6.02539 6.03945C7.33773 4.72463 9.0473 3.87965 10.8889 3.63562C12.7305 3.39159 14.6011 3.76213 16.2106 4.68978C17.8201 5.61742 19.0784 7.05031 19.7904 8.76612C20.5024 10.4819 20.6283 12.3848 20.1484 14.1794C19.6686 15.9741 18.6099 17.5602 17.1366 18.6917C15.6633 19.8232 13.8577 20.4369 12.0001 20.4375Z" fill="black"/>
</svg>
