<svg width="24" height="24" viewBox="0 0 24 24" fill="none" xmlns="http://www.w3.org/2000/svg">
<path d="M10.7166 9.55313C10.6694 9.41165 10.6803 9.25721 10.7469 9.12378C10.8135 8.99034 10.9304 8.88883 11.0719 8.84156L12.1969 8.46656C12.2814 8.43833 12.3715 8.43061 12.4596 8.44401C12.5477 8.45742 12.6314 8.49158 12.7037 8.54368C12.7761 8.59578 12.835 8.66432 12.8756 8.74366C12.9163 8.823 12.9375 8.91086 12.9375 9V12.75C12.9375 12.8992 12.8782 13.0423 12.7727 13.1477C12.6673 13.2532 12.5242 13.3125 12.375 13.3125C12.2258 13.3125 12.0827 13.2532 11.9773 13.1477C11.8718 13.0423 11.8125 12.8992 11.8125 12.75V9.78L11.4281 9.90844C11.2866 9.95565 11.1322 9.94474 10.9988 9.87811C10.8653 9.81148 10.7638 9.69458 10.7166 9.55313ZM23.0625 19.5C23.0625 19.6492 23.0032 19.7923 22.8977 19.8977C22.7923 20.0032 22.6492 20.0625 22.5 20.0625H1.5C1.35082 20.0625 1.20774 20.0032 1.10225 19.8977C0.996763 19.7923 0.9375 19.6492 0.9375 19.5C0.9375 19.3508 0.996763 19.2077 1.10225 19.1023C1.20774 18.9968 1.35082 18.9375 1.5 18.9375H2.4375V9.75C2.4375 9.4019 2.57578 9.06806 2.82192 8.82192C3.06806 8.57578 3.4019 8.4375 3.75 8.4375H7.6875V5.25C7.6875 4.9019 7.82578 4.56806 8.07192 4.32192C8.31806 4.07578 8.6519 3.9375 9 3.9375H15C15.3481 3.9375 15.6819 4.07578 15.9281 4.32192C16.1742 4.56806 16.3125 4.9019 16.3125 5.25V12.1875H20.25C20.5981 12.1875 20.9319 12.3258 21.1781 12.5719C21.4242 12.8181 21.5625 13.1519 21.5625 13.5V18.9375H22.5C22.6492 18.9375 22.7923 18.9968 22.8977 19.1023C23.0032 19.2077 23.0625 19.3508 23.0625 19.5ZM16.3125 13.3125V18.9375H20.4375V13.5C20.4375 13.4503 20.4177 13.4026 20.3826 13.3674C20.3474 13.3323 20.2997 13.3125 20.25 13.3125H16.3125ZM8.8125 18.9375H15.1875V5.25C15.1875 5.20027 15.1677 5.15258 15.1326 5.11742C15.0974 5.08225 15.0497 5.0625 15 5.0625H9C8.95027 5.0625 8.90258 5.08225 8.86742 5.11742C8.83225 5.15258 8.8125 5.20027 8.8125 5.25V18.9375ZM3.5625 18.9375H7.6875V9.5625H3.75C3.70027 9.5625 3.65258 9.58225 3.61742 9.61742C3.58225 9.65258 3.5625 9.70027 3.5625 9.75V18.9375Z" fill="black"/>
</svg>
