<svg width="24" height="24" viewBox="0 0 24 24" fill="none" xmlns="http://www.w3.org/2000/svg">
<path d="M21.6489 20.6251C21.5831 20.7391 21.4884 20.8338 21.3743 20.8997C21.2603 20.9655 21.1309 21.0001 20.9992 21.0001H2.99923C2.86764 21 2.73841 20.9652 2.6245 20.8993C2.51059 20.8335 2.41602 20.7388 2.35029 20.6248C2.28455 20.5108 2.24997 20.3815 2.25 20.2499C2.25003 20.1183 2.28469 19.9891 2.35048 19.8751C3.77829 17.4067 5.97861 15.6367 8.54642 14.7976C7.27626 14.0415 6.28943 12.8893 5.73747 11.518C5.18551 10.1468 5.09894 8.63224 5.49105 7.20701C5.88316 5.78178 6.73228 4.52467 7.908 3.62873C9.08373 2.73279 10.521 2.24756 11.9992 2.24756C13.4774 2.24756 14.9147 2.73279 16.0905 3.62873C17.2662 4.52467 18.1153 5.78178 18.5074 7.20701C18.8995 8.63224 18.813 10.1468 18.261 11.518C17.709 12.8893 16.7222 14.0415 15.452 14.7976C18.0199 15.6367 20.2202 17.4067 21.648 19.8751C21.714 19.989 21.7488 20.1183 21.7489 20.25C21.7491 20.3816 21.7146 20.511 21.6489 20.6251Z" fill="#CA9E52"/>
</svg>
