<svg width="20" height="20" viewBox="0 0 20 20" fill="none" xmlns="http://www.w3.org/2000/svg">
<path d="M17.3438 9.99974C17.3439 11.9305 16.5837 13.7836 15.2277 15.1581C13.8717 16.5325 12.029 17.3176 10.0984 17.3435H10C8.1253 17.3474 6.32096 16.6299 4.96094 15.3396C4.9147 15.2977 4.87729 15.247 4.85089 15.1905C4.8245 15.1339 4.80966 15.0727 4.80723 15.0104C4.80481 14.948 4.81486 14.8858 4.83679 14.8274C4.85871 14.769 4.89208 14.7156 4.93493 14.6702C4.97778 14.6249 5.02925 14.5885 5.08632 14.5633C5.1434 14.5381 5.20493 14.5246 5.26731 14.5235C5.32969 14.5224 5.39166 14.5337 5.44959 14.5569C5.50753 14.58 5.56025 14.6145 5.60469 14.6583C6.52075 15.5221 7.67104 16.0968 8.91185 16.3106C10.1526 16.5244 11.4289 16.3678 12.5813 15.8604C13.7336 15.353 14.7109 14.5173 15.391 13.4577C16.071 12.3981 16.4238 11.1616 16.4052 9.90264C16.3866 8.64369 15.9974 7.41814 15.2862 6.37911C14.5751 5.34008 13.5736 4.53364 12.4067 4.06055C11.2399 3.58747 9.95953 3.46871 8.72559 3.71911C7.49165 3.96951 6.35886 4.57798 5.46875 5.46849L5.45391 5.48333L3.08125 7.65599H5.625C5.74932 7.65599 5.86855 7.70537 5.95646 7.79328C6.04436 7.88119 6.09375 8.00042 6.09375 8.12474C6.09375 8.24906 6.04436 8.36828 5.95646 8.45619C5.86855 8.5441 5.74932 8.59349 5.625 8.59349H1.875C1.75068 8.59349 1.63145 8.5441 1.54354 8.45619C1.45564 8.36828 1.40625 8.24906 1.40625 8.12474V4.37474C1.40625 4.25042 1.45564 4.13119 1.54354 4.04328C1.63145 3.95537 1.75068 3.90599 1.875 3.90599C1.99932 3.90599 2.11855 3.95537 2.20646 4.04328C2.29436 4.13119 2.34375 4.25042 2.34375 4.37474V7.05755L4.81484 4.79661C5.84291 3.77157 7.15172 3.07425 8.57592 2.79272C10.0001 2.5112 11.4758 2.65812 12.8166 3.21492C14.1573 3.77171 15.3029 4.7134 16.1087 5.92102C16.9145 7.12863 17.3443 8.54797 17.3438 9.99974Z" fill="#FBFAF9"/>
</svg>
