<svg width="24" height="24" viewBox="0 0 24 24" fill="none" xmlns="http://www.w3.org/2000/svg">
<path d="M20.8125 12.0003C20.8127 14.3172 19.9005 16.5409 18.2733 18.1903C16.6461 19.8396 14.4348 20.7817 12.1181 20.8128H12C9.75036 20.8175 7.58515 19.9564 5.95312 18.4081C5.89764 18.3578 5.85274 18.297 5.82107 18.2292C5.7894 18.1613 5.77159 18.0878 5.76868 18.013C5.76577 17.9382 5.77783 17.8636 5.80414 17.7935C5.83046 17.7234 5.8705 17.6593 5.92192 17.6049C5.97333 17.5504 6.0351 17.5068 6.10359 17.4766C6.17208 17.4464 6.24592 17.4301 6.32077 17.4288C6.39563 17.4274 6.46999 17.4411 6.53951 17.4689C6.60903 17.4966 6.67231 17.538 6.72562 17.5906C7.8249 18.6271 9.20525 19.3168 10.6942 19.5733C12.1832 19.8299 13.7147 19.642 15.0975 19.0331C16.4803 18.4242 17.653 17.4214 18.4691 16.1499C19.2853 14.8783 19.7086 13.3945 19.6862 11.8838C19.6639 10.373 19.1969 8.90235 18.3435 7.65552C17.4901 6.40868 16.2883 5.44096 14.8881 4.87325C13.4879 4.30555 11.9514 4.16303 10.4707 4.46352C8.98998 4.764 7.63064 5.49416 6.5625 6.56277L6.54469 6.58058L3.6975 9.18777H6.75C6.89918 9.18777 7.04226 9.24703 7.14775 9.35252C7.25324 9.45801 7.3125 9.60108 7.3125 9.75027C7.3125 9.89945 7.25324 10.0425 7.14775 10.148C7.04226 10.2535 6.89918 10.3128 6.75 10.3128H2.25C2.10082 10.3128 1.95774 10.2535 1.85225 10.148C1.74676 10.0425 1.6875 9.89945 1.6875 9.75027V5.25027C1.6875 5.10108 1.74676 4.95801 1.85225 4.85252C1.95774 4.74703 2.10082 4.68777 2.25 4.68777C2.39918 4.68777 2.54226 4.74703 2.64775 4.85252C2.75324 4.95801 2.8125 5.10108 2.8125 5.25027V8.46964L5.77781 5.75652C7.01149 4.52648 8.58206 3.68968 10.2911 3.35185C12.0002 3.01403 13.771 3.19033 15.3799 3.85849C16.9888 4.52664 18.3635 5.65667 19.3305 7.1058C20.2974 8.55494 20.8131 10.2582 20.8125 12.0003Z" fill="#212121"/>
</svg>
