<svg width="24" height="24" viewBox="0 0 24 24" fill="none" xmlns="http://www.w3.org/2000/svg">
<path d="M21.3975 14.6475L16.8975 19.1475C16.7909 19.2469 16.6498 19.301 16.5041 19.2984C16.3584 19.2958 16.2193 19.2368 16.1163 19.1337C16.0132 19.0307 15.9542 18.8916 15.9516 18.7459C15.949 18.6002 16.0031 18.4591 16.1025 18.3525L19.6416 14.8125H12C9.46478 14.8095 7.03425 13.8011 5.24158 12.0084C3.44891 10.2157 2.44048 7.78522 2.4375 5.25C2.4375 5.10082 2.49676 4.95774 2.60225 4.85225C2.70774 4.74676 2.85082 4.6875 3 4.6875C3.14918 4.6875 3.29226 4.74676 3.39775 4.85225C3.50324 4.95774 3.5625 5.10082 3.5625 5.25C3.56498 7.487 4.45473 9.63167 6.03653 11.2135C7.61833 12.7953 9.763 13.685 12 13.6875H19.6416L16.1025 10.1475C16.0031 10.0409 15.949 9.89983 15.9516 9.75411C15.9542 9.60838 16.0132 9.46934 16.1163 9.36628C16.2193 9.26322 16.3584 9.20419 16.5041 9.20162C16.6498 9.19905 16.7909 9.25314 16.8975 9.3525L21.3975 13.8525C21.5028 13.958 21.562 14.1009 21.562 14.25C21.562 14.3991 21.5028 14.542 21.3975 14.6475Z" fill="black"/>
</svg>
