<svg width="30" height="30" viewBox="0 0 30 30" fill="none" xmlns="http://www.w3.org/2000/svg">
<path d="M14.9997 3.14453C12.655 3.14453 10.3629 3.83983 8.41334 5.14249C6.46376 6.44516 4.94425 8.29669 4.04696 10.4629C3.14967 12.6292 2.9149 15.0129 3.37233 17.3126C3.82977 19.6122 4.95886 21.7246 6.61684 23.3826C8.27482 25.0406 10.3872 26.1697 12.6869 26.6271C14.9866 27.0846 17.3703 26.8498 19.5365 25.9525C21.7028 25.0552 23.5543 23.5357 24.857 21.5861C26.1596 19.6365 26.8549 17.3445 26.8549 14.9997C26.8512 11.8567 25.601 8.8434 23.3786 6.62092C21.1561 4.39843 18.1428 3.14822 14.9997 3.14453ZM22.823 21.935C22.7068 21.8048 22.5906 21.6723 22.4859 21.5375C22.3683 21.3997 22.2016 21.3132 22.0213 21.2961C21.8409 21.279 21.6609 21.3329 21.5196 21.4462C21.3782 21.5595 21.2864 21.7233 21.2637 21.9031C21.2411 22.0828 21.2892 22.2644 21.3981 22.4092C21.5364 22.5824 21.6805 22.7509 21.8293 22.9171C19.932 24.5575 17.5078 25.4603 14.9997 25.4603C12.4917 25.4603 10.0674 24.5575 8.17021 22.9171C8.31898 22.7509 8.4631 22.5824 8.60141 22.4092C8.71024 22.2644 8.75841 22.0828 8.73574 21.9031C8.71306 21.7233 8.62131 21.5595 8.47992 21.4462C8.33853 21.3329 8.1586 21.279 7.97822 21.2961C7.79784 21.3132 7.63118 21.3997 7.51353 21.5375C7.40543 21.6723 7.29153 21.8048 7.17647 21.935C5.47755 20.0243 4.53907 17.5565 4.53907 14.9997C4.53907 12.443 5.47755 9.97513 7.17647 8.06444C7.29269 8.19461 7.40892 8.32711 7.51353 8.46194C7.57894 8.54364 7.6619 8.60957 7.75627 8.65484C7.85063 8.70011 7.95397 8.72356 8.05863 8.72345C8.19037 8.72425 8.31965 8.68771 8.43148 8.61807C8.54331 8.54843 8.63313 8.44854 8.69054 8.32996C8.74794 8.21138 8.77058 8.07896 8.75584 7.94805C8.7411 7.81713 8.68957 7.69307 8.60723 7.59023C8.46892 7.41705 8.32479 7.24852 8.17602 7.08232C10.0732 5.44192 12.4975 4.5392 15.0055 4.5392C17.5136 4.5392 19.9379 5.44192 21.8351 7.08232C21.6863 7.24852 21.5422 7.41705 21.4039 7.59023C21.3432 7.66127 21.2974 7.74377 21.2693 7.83283C21.2411 7.9219 21.2311 8.01572 21.2399 8.10871C21.2487 8.20171 21.2761 8.29199 21.3205 8.3742C21.3648 8.45641 21.4252 8.52888 21.4981 8.58729C21.571 8.6457 21.6549 8.68887 21.7448 8.71424C21.8347 8.7396 21.9288 8.74665 22.0215 8.73496C22.1142 8.72327 22.2035 8.69307 22.2843 8.64617C22.3651 8.59927 22.4357 8.53662 22.4918 8.46194C22.5998 8.32711 22.7138 8.19461 22.8288 8.06444C24.5277 9.97513 25.4662 12.443 25.4662 14.9997C25.4662 17.5565 24.5277 20.0243 22.8288 21.935H22.823ZM11.0387 16.9756C10.9257 17.6478 10.7546 18.3089 10.5273 18.9515C10.4984 19.0399 10.4522 19.1216 10.3912 19.1918C10.3303 19.2621 10.2559 19.3194 10.1725 19.3605C10.089 19.4016 9.99824 19.4256 9.9054 19.431C9.81257 19.4365 9.71958 19.4233 9.6319 19.3923C9.54423 19.3613 9.46364 19.3131 9.39488 19.2505C9.32613 19.1879 9.27059 19.1121 9.23153 19.0277C9.19248 18.9433 9.1707 18.852 9.16748 18.759C9.16426 18.6661 9.17966 18.5735 9.21277 18.4866C9.41258 17.9194 9.56308 17.3361 9.66257 16.7431C9.6934 16.5607 9.79545 16.3979 9.94629 16.2906C10.021 16.2375 10.1054 16.1997 10.1947 16.1792C10.284 16.1587 10.3765 16.156 10.4669 16.1713C10.5572 16.1866 10.6437 16.2195 10.7213 16.2682C10.799 16.3168 10.8663 16.3803 10.9194 16.455C10.9725 16.5297 11.0103 16.6141 11.0308 16.7034C11.0513 16.7928 11.054 16.8852 11.0387 16.9756ZM11.0387 13.0239C11.054 13.1142 11.0514 13.2067 11.0309 13.2961C11.0105 13.3854 10.9726 13.4699 10.9195 13.5446C10.8664 13.6193 10.7991 13.6827 10.7214 13.7314C10.6438 13.7801 10.5573 13.813 10.4669 13.8282C10.4284 13.8341 10.3896 13.8372 10.3506 13.8375C10.186 13.8373 10.0267 13.7788 9.90093 13.6725C9.77521 13.5661 9.69118 13.4187 9.66373 13.2563C9.56424 12.6633 9.41375 12.08 9.21393 11.5129C9.18082 11.426 9.16542 11.3334 9.16864 11.2404C9.17186 11.1475 9.19364 11.0561 9.2327 10.9717C9.27175 10.8873 9.32729 10.8116 9.39605 10.749C9.4648 10.6864 9.54539 10.6381 9.63306 10.6071C9.72074 10.5761 9.81373 10.563 9.90657 10.5684C9.9994 10.5739 10.0902 10.5979 10.1736 10.6389C10.2571 10.68 10.3314 10.7374 10.3924 10.8076C10.4533 10.8779 10.4996 10.9596 10.5285 11.048C10.7553 11.6906 10.9261 12.3517 11.0387 13.0239ZM20.7867 18.4866C20.8198 18.5735 20.8352 18.6661 20.832 18.759C20.8288 18.852 20.807 18.9433 20.7679 19.0277C20.7289 19.1121 20.6733 19.1879 20.6046 19.2505C20.5358 19.3131 20.4552 19.3613 20.3676 19.3923C20.2799 19.4233 20.1869 19.4365 20.0941 19.431C20.0012 19.4256 19.9104 19.4016 19.827 19.3605C19.7436 19.3194 19.6692 19.2621 19.6083 19.1918C19.5473 19.1216 19.5011 19.0399 19.4722 18.9515C19.2449 18.3089 19.0738 17.6478 18.9608 16.9756C18.9299 16.7931 18.9729 16.6059 19.0801 16.455C19.1874 16.3042 19.3501 16.2021 19.5326 16.1713C19.7151 16.1405 19.9023 16.1834 20.0532 16.2906C20.204 16.3979 20.3061 16.5607 20.3369 16.7431C20.4364 17.3361 20.5869 17.9194 20.7867 18.4866ZM20.7867 11.5129C20.5869 12.08 20.4364 12.6633 20.3369 13.2563C20.3095 13.4187 20.2254 13.5661 20.0997 13.6725C19.974 13.7788 19.8147 13.8373 19.65 13.8375C19.6111 13.8372 19.5722 13.8341 19.5338 13.8282C19.4434 13.8131 19.3569 13.7803 19.2792 13.7318C19.2015 13.6833 19.1341 13.6199 19.0808 13.5453C19.0276 13.4707 18.9896 13.3864 18.969 13.2971C18.9484 13.2078 18.9456 13.1154 18.9608 13.025C19.0738 12.3529 19.2449 11.6918 19.4722 11.0492C19.5011 10.9608 19.5473 10.879 19.6083 10.8088C19.6692 10.7385 19.7436 10.6812 19.827 10.6401C19.9104 10.599 20.0012 10.575 20.0941 10.5696C20.1869 10.5641 20.2799 10.5773 20.3676 10.6083C20.4552 10.6393 20.5358 10.6875 20.6046 10.7501C20.6733 10.8128 20.7289 10.8885 20.7679 10.9729C20.807 11.0573 20.8288 11.1486 20.832 11.2416C20.8352 11.3345 20.8198 11.4272 20.7867 11.5141V11.5129Z" fill="#44413F"/>
</svg>
