<svg width="24" height="24" viewBox="0 0 24 24" fill="none" xmlns="http://www.w3.org/2000/svg">
<path d="M20.25 8.25H18.75V6.75C18.75 5.75544 18.3549 4.80161 17.6517 4.09835C16.9484 3.39509 15.9946 3 15 3H13.9519C12.8353 2.04375 11.3269 1.5 9.75 1.5C6.44156 1.5 3.75 3.855 3.75 6.75V19.5C3.75 19.8978 3.90804 20.2794 4.18934 20.5607C4.47064 20.842 4.85218 21 5.25 21H17.25C17.6478 21 18.0294 20.842 18.3107 20.5607C18.592 20.2794 18.75 19.8978 18.75 19.5V18.75H20.25C20.8467 18.75 21.419 18.5129 21.841 18.091C22.2629 17.669 22.5 17.0967 22.5 16.5V10.5C22.5 9.90326 22.2629 9.33097 21.841 8.90901C21.419 8.48705 20.8467 8.25 20.25 8.25ZM9.75 17.25C9.75 17.4489 9.67098 17.6397 9.53033 17.7803C9.38968 17.921 9.19891 18 9 18C8.80109 18 8.61032 17.921 8.46967 17.7803C8.32902 17.6397 8.25 17.4489 8.25 17.25V9.75C8.25 9.55109 8.32902 9.36032 8.46967 9.21967C8.61032 9.07902 8.80109 9 9 9C9.19891 9 9.38968 9.07902 9.53033 9.21967C9.67098 9.36032 9.75 9.55109 9.75 9.75V17.25ZM14.25 17.25C14.25 17.4489 14.171 17.6397 14.0303 17.7803C13.8897 17.921 13.6989 18 13.5 18C13.3011 18 13.1103 17.921 12.9697 17.7803C12.829 17.6397 12.75 17.4489 12.75 17.25V9.75C12.75 9.55109 12.829 9.36032 12.9697 9.21967C13.1103 9.07902 13.3011 9 13.5 9C13.6989 9 13.8897 9.07902 14.0303 9.21967C14.171 9.36032 14.25 9.55109 14.25 9.75V17.25ZM5.34375 6C5.76188 4.29 7.57969 3 9.75 3C11.0503 3 12.2869 3.46875 13.1447 4.29187C13.2843 4.42542 13.47 4.49998 13.6631 4.5H15C15.4652 4.50014 15.9189 4.64446 16.2986 4.91308C16.6784 5.18171 16.9656 5.56143 17.1206 6H5.34375ZM21 16.5C21 16.6989 20.921 16.8897 20.7803 17.0303C20.6397 17.171 20.4489 17.25 20.25 17.25H18.75V9.75H20.25C20.4489 9.75 20.6397 9.82902 20.7803 9.96967C20.921 10.1103 21 10.3011 21 10.5V16.5Z" fill="#CA804F"/>
</svg>
