<svg width="12" height="12" viewBox="0 0 12 12" fill="none" xmlns="http://www.w3.org/2000/svg">
<path d="M10.7259 5.55539L9.22586 4.80539L7.88586 4.13539L7.87086 4.12039L7.20086 2.78039L6.45086 1.28039C6.28086 0.940391 5.72586 0.940391 5.55586 1.28039L4.80586 2.78039L4.13586 4.12039L4.12086 4.13539L2.78086 4.80539L1.28086 5.55539C1.11086 5.64039 1.00586 5.81539 1.00586 6.00039C1.00586 6.18539 1.11086 6.36039 1.28086 6.44539L2.78086 7.19539L4.12086 7.86539L4.13586 7.88039L4.80586 9.22039L5.55586 10.7204C5.64086 10.8904 5.81586 10.9954 6.00086 10.9954C6.18586 10.9954 6.36086 10.8904 6.44586 10.7204L7.19586 9.22039L7.86586 7.88039L7.88086 7.86539L9.22086 7.19539L10.7209 6.44539C10.8909 6.36039 10.9959 6.18539 10.9959 6.00039C10.9959 5.81539 10.8909 5.64039 10.7209 5.55539H10.7259Z" fill="white"/>
<path d="M10.7259 5.55539L9.22586 4.80539L7.88586 4.13539L7.87086 4.12039L7.20086 2.78039L6.45086 1.28039C6.28086 0.940391 5.72586 0.940391 5.55586 1.28039L4.80586 2.78039L4.13586 4.12039L4.12086 4.13539L2.78086 4.80539L1.28086 5.55539C1.11086 5.64039 1.00586 5.81539 1.00586 6.00039C1.00586 6.18539 1.11086 6.36039 1.28086 6.44539L2.78086 7.19539L4.12086 7.86539L4.13586 7.88039L4.80586 9.22039L5.55586 10.7204C5.64086 10.8904 5.81586 10.9954 6.00086 10.9954C6.18586 10.9954 6.36086 10.8904 6.44586 10.7204L7.19586 9.22039L7.86586 7.88039L7.88086 7.86539L9.22086 7.19539L10.7209 6.44539C10.8909 6.36039 10.9959 6.18539 10.9959 6.00039C10.9959 5.81539 10.8909 5.64039 10.7209 5.55539H10.7259Z" fill="url(#paint0_linear_3327_8048)"/>
<defs>
<linearGradient id="paint0_linear_3327_8048" x1="2.61442" y1="2.9427" x2="10.3832" y2="4.28138" gradientUnits="userSpaceOnUse">
<stop stop-color="#D46B89"/>
<stop offset="1" stop-color="#6899E9"/>
</linearGradient>
</defs>
</svg>
