<svg width="30" height="30" viewBox="0 0 30 30" fill="none" xmlns="http://www.w3.org/2000/svg">
<path d="M26.0156 9.84375C26.0184 7.70993 25.399 5.6216 24.2332 3.83438C24.1696 3.73689 24.0827 3.65673 23.9804 3.6011C23.8782 3.54546 23.7637 3.51609 23.6473 3.51562H6.35508C6.23866 3.51609 6.12418 3.54546 6.02191 3.6011C5.91964 3.65673 5.83279 3.73689 5.76915 3.83438C4.60254 5.62134 3.98231 7.70969 3.98438 9.84375C3.98742 12.6426 5.05458 15.3355 6.96953 17.3767C8.88449 19.4179 11.5039 20.6545 14.2969 20.8359V25.0781H10.3125C10.126 25.0781 9.94718 25.1522 9.81532 25.2841C9.68346 25.4159 9.60938 25.5948 9.60938 25.7812C9.60938 25.9677 9.68346 26.1466 9.81532 26.2784C9.94718 26.4103 10.126 26.4844 10.3125 26.4844H19.6875C19.874 26.4844 20.0528 26.4103 20.1847 26.2784C20.3166 26.1466 20.3906 25.9677 20.3906 25.7812C20.3906 25.5948 20.3166 25.4159 20.1847 25.2841C20.0528 25.1522 19.874 25.0781 19.6875 25.0781H15.7031V20.8359C18.4961 20.6545 21.1155 19.4179 23.0305 17.3767C24.9454 15.3355 26.0126 12.6426 26.0156 9.84375ZM6.74532 4.92188H23.2547C24.0212 6.20498 24.4763 7.64986 24.5836 9.14062H5.41641C5.52368 7.64986 5.97882 6.20498 6.74532 4.92188ZM15 19.4531C12.5743 19.4501 10.2393 18.5307 8.46258 16.8792C6.68589 15.2277 5.59871 12.9659 5.41876 10.5469H24.5813C24.4013 12.9659 23.3141 15.2277 21.5374 16.8792C19.7607 18.5307 17.4257 19.4501 15 19.4531Z" fill="#44413F"/>
</svg>
