<svg width="30" height="30" viewBox="0 0 30 30" fill="none" xmlns="http://www.w3.org/2000/svg">
<path d="M24.375 4.92188H21.3281V3.75C21.3281 3.56352 21.254 3.38468 21.1222 3.25282C20.9903 3.12095 20.8115 3.04688 20.625 3.04688C20.4385 3.04688 20.2597 3.12095 20.1278 3.25282C19.996 3.38468 19.9219 3.56352 19.9219 3.75V4.92188H10.0781V3.75C10.0781 3.56352 10.004 3.38468 9.87218 3.25282C9.74032 3.12095 9.56148 3.04688 9.375 3.04688C9.18852 3.04688 9.00968 3.12095 8.87782 3.25282C8.74595 3.38468 8.67188 3.56352 8.67188 3.75V4.92188H5.625C5.18988 4.92188 4.77258 5.09473 4.4649 5.4024C4.15723 5.71008 3.98438 6.12738 3.98438 6.5625V25.3125C3.98438 25.7476 4.15723 26.1649 4.4649 26.4726C4.77258 26.7803 5.18988 26.9531 5.625 26.9531H24.375C24.8101 26.9531 25.2274 26.7803 25.5351 26.4726C25.8428 26.1649 26.0156 25.7476 26.0156 25.3125V6.5625C26.0156 6.12738 25.8428 5.71008 25.5351 5.4024C25.2274 5.09473 24.8101 4.92188 24.375 4.92188ZM24.6094 25.3125C24.6094 25.3747 24.5847 25.4343 24.5407 25.4782C24.4968 25.5222 24.4372 25.5469 24.375 25.5469H5.625C5.56284 25.5469 5.50323 25.5222 5.45927 25.4782C5.41532 25.4343 5.39062 25.3747 5.39062 25.3125V6.5625C5.39062 6.50034 5.41532 6.44073 5.45927 6.39677C5.50323 6.35282 5.56284 6.32812 5.625 6.32812H8.67188V7.5C8.67188 7.68648 8.74595 7.86532 8.87782 7.99718C9.00968 8.12905 9.18852 8.20312 9.375 8.20312C9.56148 8.20312 9.74032 8.12905 9.87218 7.99718C10.004 7.86532 10.0781 7.68648 10.0781 7.5V6.32812H19.9219V7.5C19.9219 7.68648 19.996 7.86532 20.1278 7.99718C20.2597 8.12905 20.4385 8.20312 20.625 8.20312C20.8115 8.20312 20.9903 8.12905 21.1222 7.99718C21.254 7.86532 21.3281 7.68648 21.3281 7.5V6.32812H24.375C24.4372 6.32812 24.4968 6.35282 24.5407 6.39677C24.5847 6.44073 24.6094 6.50034 24.6094 6.5625V25.3125ZM17.8125 11.4844C17.2667 11.4844 16.7284 11.6114 16.2403 11.8555C15.7521 12.0996 15.3275 12.454 15 12.8906C14.5573 12.3003 13.9401 11.8643 13.2357 11.6443C12.5314 11.4243 11.7758 11.4315 11.0758 11.6648C10.3758 11.8981 9.76692 12.3458 9.33548 12.9444C8.90404 13.543 8.67188 14.2621 8.67188 15C8.67188 19.1367 14.4398 22.0688 14.6859 22.1918C14.7835 22.2405 14.891 22.2658 15 22.2658C15.109 22.2658 15.2165 22.2405 15.3141 22.1918C15.5602 22.0688 21.3281 19.1367 21.3281 15C21.3281 14.0676 20.9577 13.1734 20.2984 12.5141C19.6391 11.8548 18.7449 11.4844 17.8125 11.4844ZM17.3824 19.1309C16.6386 19.7454 15.8413 20.2921 15 20.7645C14.159 20.2916 13.3617 19.745 12.6176 19.1309C11.4586 18.1641 10.0781 16.6582 10.0781 15C10.0781 14.4406 10.3004 13.904 10.6959 13.5084C11.0915 13.1129 11.6281 12.8906 12.1875 12.8906C12.7469 12.8906 13.2835 13.1129 13.6791 13.5084C14.0746 13.904 14.2969 14.4406 14.2969 15C14.2969 15.1865 14.371 15.3653 14.5028 15.4972C14.6347 15.629 14.8135 15.7031 15 15.7031C15.1865 15.7031 15.3653 15.629 15.4972 15.4972C15.629 15.3653 15.7031 15.1865 15.7031 15C15.7031 14.4406 15.9254 13.904 16.3209 13.5084C16.7165 13.1129 17.2531 12.8906 17.8125 12.8906C18.3719 12.8906 18.9085 13.1129 19.3041 13.5084C19.6996 13.904 19.9219 14.4406 19.9219 15C19.9219 16.6582 18.5414 18.1641 17.3824 19.1309Z" fill="#44413F"/>
</svg>
