<svg width="24" height="24" viewBox="0 0 24 24" fill="none" xmlns="http://www.w3.org/2000/svg">
<path d="M13.1471 12.3976L5.64714 19.8976C5.54051 19.997 5.39947 20.0511 5.25375 20.0485C5.10802 20.0459 4.96898 19.9869 4.86592 19.8838C4.76286 19.7808 4.70383 19.6417 4.70126 19.496C4.69869 19.3503 4.75278 19.2093 4.85214 19.1026L11.9537 12.0001L4.85214 4.89763C4.75278 4.791 4.69869 4.64996 4.70126 4.50424C4.70383 4.35851 4.76286 4.21947 4.86592 4.11641C4.96898 4.01335 5.10802 3.95432 5.25375 3.95175C5.39947 3.94918 5.54051 4.00327 5.64714 4.10263L13.1471 11.6026C13.2525 11.7081 13.3116 11.8511 13.3116 12.0001C13.3116 12.1492 13.2525 12.2922 13.1471 12.3976ZM20.6471 11.6026L13.1471 4.10263C13.0405 4.00327 12.8995 3.94918 12.7537 3.95175C12.608 3.95432 12.469 4.01335 12.3659 4.11641C12.2629 4.21947 12.2038 4.35851 12.2013 4.50424C12.1987 4.64996 12.2528 4.791 12.3521 4.89763L19.4537 12.0001L12.3521 19.1026C12.2969 19.1541 12.2525 19.2162 12.2218 19.2852C12.1911 19.3542 12.1745 19.4287 12.1732 19.5042C12.1719 19.5798 12.1858 19.6548 12.214 19.7248C12.2423 19.7949 12.2844 19.8585 12.3379 19.9119C12.3913 19.9653 12.4549 20.0074 12.5249 20.0357C12.595 20.064 12.67 20.0779 12.7455 20.0766C12.8211 20.0752 12.8955 20.0587 12.9645 20.028C13.0335 19.9972 13.0956 19.9529 13.1471 19.8976L20.6471 12.3976C20.7525 12.2922 20.8116 12.1492 20.8116 12.0001C20.8116 11.8511 20.7525 11.7081 20.6471 11.6026Z" fill="black"/>
</svg>
