<svg width="14" height="14" viewBox="0 0 14 14" fill="none" xmlns="http://www.w3.org/2000/svg">
<path d="M11.841 5.71409L7.46598 10.0891C7.40501 10.1503 7.33257 10.1988 7.2528 10.2319C7.17303 10.2651 7.08751 10.2821 7.00114 10.2821C6.91477 10.2821 6.82924 10.2651 6.74948 10.2319C6.66971 10.1988 6.59726 10.1503 6.53629 10.0891L2.16129 5.71409C2.03801 5.5908 1.96875 5.42359 1.96875 5.24924C1.96875 5.07489 2.03801 4.90768 2.16129 4.7844C2.28458 4.66112 2.45179 4.59186 2.62614 4.59186C2.80049 4.59186 2.9677 4.66112 3.09098 4.7844L7.00169 8.6951L10.9124 4.78385C11.0357 4.66057 11.2029 4.59131 11.3772 4.59131C11.5516 4.59131 11.7188 4.66057 11.8421 4.78385C11.9654 4.90714 12.0346 5.07435 12.0346 5.2487C12.0346 5.42305 11.9654 5.59026 11.8421 5.71354L11.841 5.71409Z" fill="#CA804F"/>
</svg>
