<svg width="24" height="24" viewBox="0 0 24 24" fill="none" xmlns="http://www.w3.org/2000/svg">
<path d="M16.8971 12.3976L9.39714 19.8976C9.29051 19.997 9.14948 20.0511 9.00375 20.0485C8.85802 20.0459 8.71898 19.9869 8.61592 19.8838C8.51287 19.7808 8.45383 19.6417 8.45126 19.496C8.44869 19.3503 8.50278 19.2093 8.60214 19.1026L15.7037 12.0001L8.60214 4.89763C8.50278 4.791 8.44869 4.64996 8.45126 4.50424C8.45383 4.35851 8.51287 4.21947 8.61592 4.11641C8.71898 4.01335 8.85802 3.95432 9.00375 3.95175C9.14948 3.94918 9.29051 4.00327 9.39714 4.10263L16.8971 11.6026C17.0025 11.7081 17.0616 11.8511 17.0616 12.0001C17.0616 12.1492 17.0025 12.2922 16.8971 12.3976Z" fill="black"/>
</svg>
