<svg width="24" height="24" viewBox="0 0 24 24" fill="none" xmlns="http://www.w3.org/2000/svg">
<path d="M12.9375 12.0002C12.9375 12.1856 12.8825 12.3669 12.7795 12.5211C12.6765 12.6752 12.5301 12.7954 12.3588 12.8663C12.1875 12.9373 11.999 12.9559 11.8171 12.9197C11.6352 12.8835 11.4682 12.7942 11.3371 12.6631C11.206 12.532 11.1167 12.365 11.0805 12.1831C11.0443 12.0012 11.0629 11.8127 11.1339 11.6414C11.2048 11.4701 11.325 11.3237 11.4792 11.2207C11.6333 11.1177 11.8146 11.0627 12 11.0627C12.2486 11.0627 12.4871 11.1615 12.6629 11.3373C12.8387 11.5131 12.9375 11.7516 12.9375 12.0002ZM7.875 11.0627C7.68958 11.0627 7.50832 11.1177 7.35415 11.2207C7.19998 11.3237 7.07982 11.4701 7.00886 11.6414C6.93791 11.8127 6.91934 12.0012 6.95551 12.1831C6.99169 12.365 7.08098 12.532 7.21209 12.6631C7.3432 12.7942 7.51025 12.8835 7.6921 12.9197C7.87396 12.9559 8.06246 12.9373 8.23377 12.8663C8.40507 12.7954 8.55149 12.6752 8.6545 12.5211C8.75752 12.3669 8.8125 12.1856 8.8125 12.0002C8.8125 11.7516 8.71373 11.5131 8.53791 11.3373C8.3621 11.1615 8.12364 11.0627 7.875 11.0627ZM16.125 11.0627C15.9396 11.0627 15.7583 11.1177 15.6042 11.2207C15.45 11.3237 15.3298 11.4701 15.2589 11.6414C15.1879 11.8127 15.1693 12.0012 15.2055 12.1831C15.2417 12.365 15.331 12.532 15.4621 12.6631C15.5932 12.7942 15.7602 12.8835 15.9421 12.9197C16.124 12.9559 16.3125 12.9373 16.4838 12.8663C16.6551 12.7954 16.8015 12.6752 16.9045 12.5211C17.0075 12.3669 17.0625 12.1856 17.0625 12.0002C17.0625 11.7516 16.9637 11.5131 16.7879 11.3373C16.6121 11.1615 16.3736 11.0627 16.125 11.0627ZM21.5625 12.0002C21.5628 13.6579 21.1323 15.2872 20.313 16.7283C19.4937 18.1694 18.3138 19.3728 16.8892 20.2203C15.4646 21.0679 13.844 21.5305 12.1867 21.5629C10.5293 21.5953 8.89195 21.1962 7.43531 20.4049L4.16625 21.4943C3.93499 21.5714 3.68683 21.5826 3.44957 21.5266C3.2123 21.4706 2.99533 21.3496 2.82295 21.1773C2.65057 21.0049 2.52961 20.7879 2.47362 20.5506C2.41762 20.3134 2.42882 20.0652 2.50594 19.834L3.59531 16.5649C2.90087 15.2852 2.50781 13.8639 2.44609 12.4092C2.38438 10.9546 2.65565 9.50504 3.23921 8.17115C3.82278 6.83726 4.70322 5.65424 5.81342 4.71229C6.92362 3.77034 8.23425 3.09434 9.64538 2.73583C11.0565 2.37733 12.5309 2.34578 13.956 2.6436C15.3812 2.94142 16.7196 3.56075 17.869 4.45435C19.0185 5.34795 19.9488 6.49223 20.5888 7.79994C21.2289 9.10765 21.5619 10.5443 21.5625 12.0002ZM20.4375 12.0002C20.4372 10.7059 20.1391 9.42903 19.5664 8.26836C18.9936 7.10769 18.1615 6.09435 17.1344 5.30675C16.1073 4.51914 14.9128 3.97837 13.6433 3.72629C12.3738 3.47421 11.0633 3.51757 9.81323 3.85302C8.56315 4.18847 7.40701 4.80701 6.43424 5.66079C5.46148 6.51457 4.69817 7.58069 4.20338 8.77668C3.70858 9.97267 3.49557 11.2665 3.58082 12.558C3.66607 13.8494 4.0473 15.104 4.695 16.2246C4.73501 16.2936 4.75988 16.3703 4.76796 16.4497C4.77604 16.5291 4.76715 16.6092 4.74188 16.6849L3.57375 20.1893C3.56273 20.2223 3.56113 20.2578 3.56913 20.2917C3.57713 20.3255 3.59441 20.3565 3.61904 20.3812C3.64366 20.4058 3.67466 20.4231 3.70855 20.4311C3.74245 20.4391 3.7779 20.4375 3.81094 20.4265L7.3125 19.2583C7.37 19.2394 7.4301 19.2296 7.49063 19.2293C7.58936 19.2298 7.68627 19.256 7.77188 19.3052C9.05462 20.048 10.5104 20.4398 11.9927 20.441C13.475 20.4423 14.9315 20.0531 16.2155 19.3125C17.4995 18.5719 18.5658 17.5062 19.307 16.2225C20.0482 14.9388 20.4381 13.4825 20.4375 12.0002Z" fill="#CA804F"/>
</svg>
