<svg width="22" height="22" viewBox="0 0 22 22" fill="none" xmlns="http://www.w3.org/2000/svg">
<rect width="22" height="22" rx="11" fill="#5FAA64"/>
<path d="M16.5598 8.24727L9.55977 15.2473C9.51914 15.288 9.47089 15.3202 9.41778 15.3422C9.36467 15.3643 9.30774 15.3756 9.25024 15.3756C9.19275 15.3756 9.13582 15.3643 9.08271 15.3422C9.0296 15.3202 8.98134 15.288 8.94071 15.2473L5.87821 12.1848C5.79612 12.1027 5.75 11.9913 5.75 11.8752C5.75 11.7591 5.79612 11.6478 5.87821 11.5657C5.9603 11.4836 6.07165 11.4375 6.18774 11.4375C6.30384 11.4375 6.41518 11.4836 6.49727 11.5657L9.25024 14.3192L15.9407 7.62821C16.0228 7.54612 16.1341 7.5 16.2502 7.5C16.3663 7.5 16.4777 7.54612 16.5598 7.62821C16.6419 7.7103 16.688 7.82165 16.688 7.93774C16.688 8.05384 16.6419 8.16518 16.5598 8.24727Z" fill="#FDFDFD"/>
</svg>
