<svg width="24" height="24" viewBox="0 0 24 24" fill="none" xmlns="http://www.w3.org/2000/svg">
<path d="M21.3971 7.14763L9.39714 19.1476C9.29167 19.253 9.1487 19.3121 8.99964 19.3121C8.85058 19.3121 8.70761 19.253 8.60214 19.1476L3.35214 13.8976C3.25278 13.791 3.19869 13.65 3.20126 13.5042C3.20383 13.3585 3.26286 13.2195 3.36592 13.1164C3.46898 13.0134 3.60802 12.9543 3.75375 12.9517C3.89947 12.9492 4.04051 13.0033 4.14714 13.1026L8.99964 17.9542L20.6021 6.35263C20.7088 6.25327 20.8498 6.19918 20.9955 6.20175C21.1413 6.20432 21.2803 6.26335 21.3834 6.36641C21.4864 6.46947 21.5455 6.60851 21.548 6.75424C21.5506 6.89996 21.4965 7.041 21.3971 7.14763Z" fill="#44413F"/>
</svg>
