<svg width="22" height="22" viewBox="0 0 22 22" fill="none" xmlns="http://www.w3.org/2000/svg">
<rect width="22" height="22" rx="4" fill="#CA804F"/>
<path d="M18.1483 7.46029L9.14828 16.4603C9.09604 16.5126 9.034 16.5541 8.96572 16.5824C8.89743 16.6107 8.82423 16.6253 8.75031 16.6253C8.67639 16.6253 8.6032 16.6107 8.53491 16.5824C8.46662 16.5541 8.40458 16.5126 8.35234 16.4603L4.41484 12.5228C4.3093 12.4172 4.25 12.2741 4.25 12.1248C4.25 11.9756 4.3093 11.8324 4.41484 11.7269C4.52039 11.6213 4.66355 11.562 4.81281 11.562C4.96208 11.562 5.10523 11.6213 5.21078 11.7269L8.75031 15.2671L17.3523 6.66436C17.4579 6.55881 17.601 6.49951 17.7503 6.49951C17.8996 6.49951 18.0427 6.55881 18.1483 6.66436C18.2538 6.7699 18.3131 6.91306 18.3131 7.06232C18.3131 7.21159 18.2538 7.35475 18.1483 7.46029Z" fill="#FDFDFD"/>
</svg>
