<svg width="29" height="29" viewBox="0 0 29 29" fill="none" xmlns="http://www.w3.org/2000/svg">
<path d="M25.0215 24.1867L22.727 24.8019L21.3945 19.8285C22.3604 19.3952 23.1407 18.6324 23.5959 17.6766C24.051 16.7208 24.1513 15.6343 23.8789 14.6113C22.4117 9.13512 19.3613 4.33629 19.2324 4.13472C19.1529 4.0108 19.0365 3.91496 18.8997 3.86071C18.7628 3.80647 18.6123 3.79656 18.4695 3.83238L15.6148 4.54605C15.6277 3.41285 15.5973 2.6898 15.5926 2.6066C15.5856 2.45572 15.5301 2.31111 15.4345 2.19418C15.3389 2.07725 15.2082 1.99422 15.0617 1.95738L11.3117 1.01988C11.1698 0.985387 11.0206 0.995968 10.8849 1.05015C10.7492 1.10433 10.6338 1.19943 10.5547 1.32222C10.4258 1.52379 7.37539 6.32262 5.9082 11.7988C5.63578 12.8218 5.73611 13.9083 6.19125 14.8641C6.6464 15.8199 7.42668 16.5827 8.39258 17.016L7.0543 21.9894L4.75977 21.3742C4.6699 21.3481 4.57574 21.3403 4.48281 21.3511C4.38987 21.3619 4.30003 21.3912 4.21854 21.4371C4.13705 21.4831 4.06556 21.5449 4.00825 21.6188C3.95094 21.6928 3.90897 21.7774 3.88479 21.8678C3.86062 21.9582 3.85473 22.0525 3.86746 22.1452C3.88019 22.2379 3.9113 22.3271 3.95895 22.4076C4.00661 22.4882 4.06985 22.5584 4.14498 22.6141C4.22011 22.6699 4.30562 22.7101 4.39648 22.7324L10.0215 24.2406C10.0808 24.2558 10.1418 24.2637 10.2031 24.264C10.374 24.2644 10.5392 24.2026 10.6678 24.09C10.7964 23.9774 10.8796 23.8219 10.9019 23.6525C10.9241 23.483 10.8839 23.3113 10.7888 23.1693C10.6936 23.0274 10.55 22.925 10.3848 22.8812L8.4125 22.3527L9.74609 17.3781C9.89785 17.3952 10.0504 17.4042 10.2031 17.405C11.1832 17.4035 12.1355 17.0795 12.913 16.4828C13.6905 15.8862 14.25 15.0502 14.5051 14.1039V14.0886C14.5379 13.9539 14.5695 13.8203 14.6 13.6855C14.7658 14.7737 14.9899 15.8522 15.2715 16.9164C15.5264 17.8636 16.0865 18.7004 16.865 19.2972C17.6436 19.894 18.5972 20.2175 19.5781 20.2175C19.7308 20.2167 19.8834 20.2077 20.0352 20.1906L21.3687 25.1652L19.3965 25.6937C19.2313 25.7375 19.0877 25.8399 18.9925 25.9818C18.8973 26.1238 18.8571 26.2955 18.8794 26.465C18.9016 26.6344 18.9848 26.7899 19.1134 26.9025C19.242 27.0151 19.4072 27.0769 19.5781 27.0765C19.6394 27.0762 19.7004 27.0683 19.7598 27.0531L25.3848 25.5449C25.4756 25.5226 25.5611 25.4824 25.6363 25.4266C25.7114 25.3709 25.7746 25.3007 25.8223 25.2201C25.8699 25.1396 25.9011 25.0504 25.9138 24.9577C25.9265 24.865 25.9206 24.7707 25.8965 24.6803C25.8723 24.5899 25.8303 24.5053 25.773 24.4313C25.7157 24.3574 25.6442 24.2956 25.5627 24.2496C25.4812 24.2037 25.3914 24.1744 25.2984 24.1636C25.2055 24.1528 25.1113 24.1606 25.0215 24.1867ZM18.3102 5.31949C18.6477 5.88551 19.2723 6.97535 19.9672 8.3816L15.602 9.47144C15.5375 8.17418 15.5422 7.09137 15.5586 6.3859C15.5645 6.25699 15.5703 6.12926 15.575 6.00504L18.3102 5.31949ZM11.4711 2.50699L14.2027 3.19019C14.2109 3.68824 14.2156 4.51676 14.1805 5.55738C14.1723 5.69566 14.1617 5.91949 14.1535 6.21597C14.143 6.42926 14.1313 6.64957 14.1184 6.87574L9.71211 5.77418C10.4469 4.26715 11.1172 3.09996 11.4711 2.50933V2.50699ZM13.1457 13.7441C12.9356 14.5245 12.4241 15.1895 11.7237 15.5928C11.0233 15.9961 10.1914 16.1046 9.41094 15.8945C8.63052 15.6844 7.96552 15.1729 7.56225 14.4725C7.15897 13.7721 7.05045 12.9401 7.26055 12.1597C7.74217 10.4189 8.35929 8.71836 9.10625 7.07379L14.0117 8.30074C13.858 10.1349 13.5686 11.9551 13.1457 13.7464V13.7441ZM16.6344 16.5496C16.157 14.6959 15.8433 12.8038 15.6969 10.8953L20.5812 9.67418C21.37 11.3849 22.019 13.1567 22.5219 14.9722C22.731 15.7528 22.6216 16.5845 22.2175 17.2844C21.8135 17.9842 21.148 18.4949 20.3674 18.7041C19.5868 18.9132 18.7551 18.8037 18.0553 18.3997C17.3554 17.9957 16.8447 17.3301 16.6355 16.5496H16.6344ZM21.7613 3.89332C21.6798 3.72703 21.6672 3.5353 21.7262 3.35977C21.7853 3.18424 21.9111 3.03908 22.0766 2.95582L23.9516 2.01832C24.0342 1.97707 24.1242 1.95251 24.2163 1.94603C24.3084 1.93956 24.4009 1.95129 24.4885 1.98056C24.5761 2.00983 24.6571 2.05607 24.7268 2.11664C24.7966 2.1772 24.8537 2.25091 24.8949 2.33355C24.9362 2.41619 24.9607 2.50615 24.9672 2.59828C24.9737 2.69041 24.962 2.78292 24.9327 2.87052C24.9034 2.95812 24.8572 3.03909 24.7966 3.10882C24.736 3.17855 24.6623 3.23567 24.5797 3.27691L22.7047 4.21441C22.6221 4.25568 22.5321 4.28026 22.44 4.28675C22.3478 4.29325 22.2553 4.28152 22.1677 4.25224C22.0801 4.22297 21.9991 4.17672 21.9294 4.11614C21.8597 4.05556 21.8026 3.98184 21.7613 3.89918V3.89332ZM26.8438 7.32691C26.8438 7.51339 26.7697 7.69223 26.6378 7.8241C26.5059 7.95596 26.3271 8.03004 26.1406 8.03004H24.2656C24.0791 8.03004 23.9003 7.95596 23.7684 7.8241C23.6366 7.69223 23.5625 7.51339 23.5625 7.32691C23.5625 7.14043 23.6366 6.96159 23.7684 6.82973C23.9003 6.69787 24.0791 6.62379 24.2656 6.62379H26.1406C26.3271 6.62379 26.5059 6.69787 26.6378 6.82973C26.7697 6.96159 26.8438 7.14043 26.8438 7.32691ZM3.94883 1.38785C4.03209 1.22243 4.17725 1.09655 4.35278 1.03752C4.52831 0.978502 4.72004 0.991112 4.88633 1.07261L6.76133 2.01011C6.84397 2.05136 6.91768 2.10847 6.97824 2.1782C7.03881 2.24793 7.08505 2.32891 7.11432 2.41651C7.14359 2.50411 7.15533 2.59661 7.14885 2.68875C7.14237 2.78088 7.11781 2.87083 7.07656 2.95347C7.03532 3.03611 6.9782 3.10982 6.90847 3.17039C6.83874 3.23096 6.75777 3.2772 6.67017 3.30647C6.58257 3.33574 6.49006 3.34747 6.39793 3.34099C6.3058 3.33451 6.21584 3.30995 6.1332 3.26871L4.2582 2.33121C4.09229 2.24692 3.96657 2.10029 3.90858 1.92346C3.85059 1.74663 3.86506 1.55402 3.94883 1.38785ZM4.57812 7.09254H2.70312C2.51664 7.09254 2.3378 7.01846 2.20594 6.8866C2.07408 6.75473 2 6.57589 2 6.38941C2 6.20293 2.07408 6.02409 2.20594 5.89223C2.3378 5.76037 2.51664 5.68629 2.70312 5.68629H4.57812C4.76461 5.68629 4.94345 5.76037 5.07531 5.89223C5.20717 6.02409 5.28125 6.20293 5.28125 6.38941C5.28125 6.57589 5.20717 6.75473 5.07531 6.8866C4.94345 7.01846 4.76461 7.09254 4.57812 7.09254Z" fill="#44413F"/>
</svg>
