<svg width="24" height="24" viewBox="0 0 24 24" fill="none" xmlns="http://www.w3.org/2000/svg">
<path d="M7.5 3.9375C6.79541 3.9375 6.10663 4.14644 5.52078 4.53789C4.93493 4.92934 4.47832 5.48573 4.20868 6.13669C3.93904 6.78765 3.86849 7.50395 4.00595 8.19501C4.14341 8.88607 4.48271 9.52085 4.98093 10.0191C5.47916 10.5173 6.11394 10.8566 6.80499 10.994C7.49605 11.1315 8.21235 11.061 8.86331 10.7913C9.51427 10.5217 10.0707 10.0651 10.4621 9.47922C10.8536 8.89337 11.0625 8.2046 11.0625 7.5C11.0625 6.55517 10.6872 5.64903 10.0191 4.98093C9.35097 4.31284 8.44484 3.9375 7.5 3.9375ZM7.5 9.9375C7.01791 9.9375 6.54664 9.79455 6.1458 9.52671C5.74495 9.25887 5.43253 8.87819 5.24805 8.43279C5.06356 7.9874 5.01529 7.4973 5.10934 7.02447C5.20339 6.55164 5.43554 6.11732 5.77643 5.77643C6.11732 5.43554 6.55164 5.20339 7.02447 5.10934C7.4973 5.01529 7.9874 5.06356 8.43279 5.24805C8.87819 5.43253 9.25887 5.74495 9.52671 6.1458C9.79455 6.54664 9.9375 7.01791 9.9375 7.5C9.9375 7.8201 9.87445 8.13706 9.75196 8.43279C9.62946 8.72852 9.44992 8.99723 9.22357 9.22357C8.99723 9.44992 8.72852 9.62946 8.43279 9.75196C8.13706 9.87445 7.8201 9.9375 7.5 9.9375ZM16.5 11.0625C17.2046 11.0625 17.8934 10.8536 18.4792 10.4621C19.0651 10.0707 19.5217 9.51427 19.7913 8.86331C20.061 8.21235 20.1315 7.49605 19.994 6.80499C19.8566 6.11394 19.5173 5.47916 19.0191 4.98093C18.5208 4.48271 17.8861 4.14341 17.195 4.00595C16.504 3.86849 15.7877 3.93904 15.1367 4.20868C14.4857 4.47832 13.9293 4.93493 13.5379 5.52078C13.1464 6.10663 12.9375 6.79541 12.9375 7.5C12.9375 8.44484 13.3128 9.35097 13.9809 10.0191C14.649 10.6872 15.5552 11.0625 16.5 11.0625ZM16.5 5.0625C16.9821 5.0625 17.4534 5.20546 17.8542 5.47329C18.255 5.74113 18.5675 6.12182 18.752 6.56721C18.9364 7.01261 18.9847 7.50271 18.8907 7.97553C18.7966 8.44836 18.5645 8.88268 18.2236 9.22357C17.8827 9.56446 17.4484 9.79661 16.9755 9.89067C16.5027 9.98472 16.0126 9.93645 15.5672 9.75196C15.1218 9.56747 14.7411 9.25505 14.4733 8.8542C14.2055 8.45336 14.0625 7.98209 14.0625 7.5C14.0625 6.85354 14.3193 6.23355 14.7764 5.77643C15.2335 5.31931 15.8535 5.0625 16.5 5.0625ZM7.5 12.9375C6.79541 12.9375 6.10663 13.1464 5.52078 13.5379C4.93493 13.9293 4.47832 14.4857 4.20868 15.1367C3.93904 15.7877 3.86849 16.504 4.00595 17.195C4.14341 17.8861 4.48271 18.5208 4.98093 19.0191C5.47916 19.5173 6.11394 19.8566 6.80499 19.994C7.49605 20.1315 8.21235 20.061 8.86331 19.7913C9.51427 19.5217 10.0707 19.0651 10.4621 18.4792C10.8536 17.8934 11.0625 17.2046 11.0625 16.5C11.0625 15.5552 10.6872 14.649 10.0191 13.9809C9.35097 13.3128 8.44484 12.9375 7.5 12.9375ZM7.5 18.9375C7.01791 18.9375 6.54664 18.7945 6.1458 18.5267C5.74495 18.2589 5.43253 17.8782 5.24805 17.4328C5.06356 16.9874 5.01529 16.4973 5.10934 16.0245C5.20339 15.5516 5.43554 15.1173 5.77643 14.7764C6.11732 14.4355 6.55164 14.2034 7.02447 14.1093C7.4973 14.0153 7.9874 14.0636 8.43279 14.248C8.87819 14.4325 9.25887 14.745 9.52671 15.1458C9.79455 15.5466 9.9375 16.0179 9.9375 16.5C9.9375 16.8201 9.87445 17.1371 9.75196 17.4328C9.62946 17.7285 9.44992 17.9972 9.22357 18.2236C8.99723 18.4499 8.72852 18.6295 8.43279 18.752C8.13706 18.8745 7.8201 18.9375 7.5 18.9375ZM16.5 12.9375C15.7954 12.9375 15.1066 13.1464 14.5208 13.5379C13.9349 13.9293 13.4783 14.4857 13.2087 15.1367C12.939 15.7877 12.8685 16.504 13.006 17.195C13.1434 17.8861 13.4827 18.5208 13.9809 19.0191C14.4792 19.5173 15.1139 19.8566 15.805 19.994C16.4961 20.1315 17.2124 20.061 17.8633 19.7913C18.5143 19.5217 19.0707 19.0651 19.4621 18.4792C19.8536 17.8934 20.0625 17.2046 20.0625 16.5C20.0625 15.5552 19.6872 14.649 19.0191 13.9809C18.351 13.3128 17.4448 12.9375 16.5 12.9375ZM16.5 18.9375C16.0179 18.9375 15.5466 18.7945 15.1458 18.5267C14.745 18.2589 14.4325 17.8782 14.248 17.4328C14.0636 16.9874 14.0153 16.4973 14.1093 16.0245C14.2034 15.5516 14.4355 15.1173 14.7764 14.7764C15.1173 14.4355 15.5516 14.2034 16.0245 14.1093C16.4973 14.0153 16.9874 14.0636 17.4328 14.248C17.8782 14.4325 18.2589 14.745 18.5267 15.1458C18.7945 15.5466 18.9375 16.0179 18.9375 16.5C18.9375 17.1465 18.6807 17.7665 18.2236 18.2236C17.7665 18.6807 17.1465 18.9375 16.5 18.9375Z" fill="#CA804F"/>
</svg>
