<svg width="30" height="30" viewBox="0 0 30 30" fill="none" xmlns="http://www.w3.org/2000/svg">
<path d="M11.4989 7.73438C11.3066 7.54201 11.0688 7.40129 10.8076 7.32522C10.5464 7.24916 10.2702 7.24021 10.0047 7.29922C9.7391 7.35822 9.49271 7.48326 9.2883 7.66277C9.08389 7.84228 8.92806 8.07045 8.83525 8.32617L2.68291 25.2504C2.59451 25.4942 2.56596 25.7557 2.59968 26.0129C2.63339 26.2701 2.72838 26.5154 2.87665 26.7282C3.02491 26.941 3.22212 27.1151 3.45168 27.2358C3.68124 27.3565 3.93644 27.4203 4.1958 27.4219C4.3865 27.4214 4.57566 27.3877 4.75478 27.3223L21.6743 21.1699C21.9296 21.0765 22.1572 20.9201 22.336 20.7154C22.5149 20.5107 22.6393 20.2643 22.6977 19.9988C22.7561 19.7333 22.7466 19.4573 22.6702 19.1965C22.5937 18.9356 22.4527 18.6982 22.2603 18.5062L11.4989 7.73438ZM4.27431 26.0004C4.23668 26.0143 4.19585 26.0172 4.15666 26.0086C4.11746 26 4.08155 25.9804 4.05318 25.952C4.02481 25.9236 4.00517 25.8877 3.99659 25.8485C3.98801 25.8093 3.99086 25.7685 4.00478 25.7309L5.78369 20.8359L9.16923 24.2203L4.27431 26.0004ZM10.627 23.6906L6.31455 19.377L8.03369 14.6484L15.3567 21.9715L10.627 23.6906ZM21.3333 19.6957C21.3262 19.7305 21.3102 19.7629 21.2868 19.7896C21.2633 19.8164 21.2333 19.8365 21.1997 19.848L16.8145 21.4453L8.55986 13.1895L10.1571 8.81133C10.1685 8.77759 10.1885 8.74746 10.2153 8.724C10.242 8.70053 10.2745 8.68457 10.3095 8.67773C10.3254 8.67565 10.3416 8.67565 10.3575 8.67773C10.3849 8.67761 10.412 8.68305 10.4371 8.69372C10.4623 8.7044 10.4851 8.72009 10.504 8.73984L21.2712 19.507C21.2969 19.5305 21.3161 19.5602 21.3269 19.5932C21.3378 19.6263 21.34 19.6616 21.3333 19.6957ZM17.5833 9.84375C17.6 9.24643 17.7451 8.65969 18.0087 8.12344C18.5876 6.96562 19.6845 6.32812 21.0989 6.32812C21.9743 6.32812 22.5673 6.00703 22.913 5.34609C23.0885 4.99483 23.189 4.61093 23.2083 4.21875C23.2083 4.03227 23.2824 3.85343 23.4142 3.72157C23.5461 3.5897 23.7249 3.51562 23.9114 3.51562C24.0979 3.51562 24.2767 3.5897 24.4086 3.72157C24.5405 3.85343 24.6145 4.03227 24.6145 4.21875C24.6145 5.43516 23.8798 7.73438 21.0989 7.73438C20.2235 7.73438 19.6306 8.05547 19.2849 8.71641C19.1088 9.06745 19.0082 9.45147 18.9895 9.84375C18.9895 10.0302 18.9155 10.2091 18.7836 10.3409C18.6517 10.4728 18.4729 10.5469 18.2864 10.5469C18.0999 10.5469 17.9211 10.4728 17.7892 10.3409C17.6574 10.2091 17.5833 10.0302 17.5833 9.84375ZM14.7708 6.09375V3.28125C14.7708 3.09477 14.8449 2.91593 14.9767 2.78407C15.1086 2.6522 15.2874 2.57812 15.4739 2.57812C15.6604 2.57812 15.8392 2.6522 15.9711 2.78407C16.103 2.91593 16.177 3.09477 16.177 3.28125V6.09375C16.177 6.28023 16.103 6.45907 15.9711 6.59093C15.8392 6.7228 15.6604 6.79688 15.4739 6.79688C15.2874 6.79688 15.1086 6.7228 14.9767 6.59093C14.8449 6.45907 14.7708 6.28023 14.7708 6.09375ZM26.2833 15.9094C26.3524 15.9737 26.4078 16.0514 26.4462 16.1376C26.4846 16.2239 26.5053 16.317 26.507 16.4114C26.5086 16.5058 26.4913 16.5996 26.4559 16.6871C26.4205 16.7747 26.3679 16.8542 26.3011 16.921C26.2344 16.9877 26.1548 17.0404 26.0673 17.0757C25.9797 17.1111 25.886 17.1285 25.7916 17.1268C25.6971 17.1251 25.604 17.1045 25.5178 17.066C25.4315 17.0276 25.3539 16.9722 25.2895 16.9031L23.4145 15.0281C23.2903 14.8948 23.2227 14.7185 23.2259 14.5364C23.2292 14.3542 23.303 14.1804 23.4318 14.0516C23.5606 13.9228 23.7344 13.849 23.9166 13.8458C24.0987 13.8426 24.275 13.9102 24.4083 14.0344L26.2833 15.9094ZM26.9466 10.5105L24.1341 11.448C24.046 11.4794 23.9525 11.4929 23.8592 11.4877C23.7658 11.4825 23.6745 11.4587 23.5904 11.4177C23.5063 11.3768 23.4313 11.3195 23.3697 11.2492C23.308 11.1789 23.261 11.097 23.2314 11.0083C23.2018 10.9196 23.1901 10.8259 23.1972 10.7327C23.2042 10.6395 23.2298 10.5486 23.2724 10.4653C23.315 10.3821 23.3737 10.3082 23.4452 10.248C23.5167 10.1877 23.5995 10.1423 23.6888 10.1145L26.5013 9.17695C26.677 9.12209 26.8672 9.13833 27.0311 9.22218C27.195 9.30604 27.3194 9.45082 27.3777 9.62543C27.436 9.80004 27.4235 9.99055 27.3429 10.156C27.2623 10.3215 27.12 10.4488 26.9466 10.5105Z" fill="#44413F"/>
</svg>
