<svg width="24" height="24" viewBox="0 0 24 24" fill="none" xmlns="http://www.w3.org/2000/svg">
<path d="M11.0625 5.625C11.0625 5.43958 11.1175 5.25832 11.2205 5.10415C11.3235 4.94998 11.4699 4.82982 11.6412 4.75886C11.8125 4.68791 12.001 4.66934 12.1829 4.70551C12.3648 4.74169 12.5318 4.83098 12.6629 4.96209C12.794 5.0932 12.8833 5.26025 12.9195 5.4421C12.9557 5.62396 12.9371 5.81246 12.8661 5.98377C12.7952 6.15507 12.675 6.30149 12.5208 6.4045C12.3667 6.50752 12.1854 6.5625 12 6.5625C11.7514 6.5625 11.5129 6.46373 11.3371 6.28791C11.1613 6.1121 11.0625 5.87364 11.0625 5.625ZM12 11.0625C11.8146 11.0625 11.6333 11.1175 11.4792 11.2205C11.325 11.3235 11.2048 11.4699 11.1339 11.6412C11.0629 11.8125 11.0443 12.001 11.0805 12.1829C11.1167 12.3648 11.206 12.5318 11.3371 12.6629C11.4682 12.794 11.6352 12.8833 11.8171 12.9195C11.999 12.9557 12.1875 12.9371 12.3588 12.8661C12.5301 12.7952 12.6765 12.675 12.7795 12.5208C12.8825 12.3667 12.9375 12.1854 12.9375 12C12.9375 11.7514 12.8387 11.5129 12.6629 11.3371C12.4871 11.1613 12.2486 11.0625 12 11.0625ZM12 17.4375C11.8146 17.4375 11.6333 17.4925 11.4792 17.5955C11.325 17.6985 11.2048 17.8449 11.1339 18.0162C11.0629 18.1875 11.0443 18.376 11.0805 18.5579C11.1167 18.7398 11.206 18.9068 11.3371 19.0379C11.4682 19.169 11.6352 19.2583 11.8171 19.2945C11.999 19.3307 12.1875 19.3121 12.3588 19.2411C12.5301 19.1702 12.6765 19.05 12.7795 18.8958C12.8825 18.7417 12.9375 18.5604 12.9375 18.375C12.9375 18.1264 12.8387 17.8879 12.6629 17.7121C12.4871 17.5363 12.2486 17.4375 12 17.4375Z" fill="black"/>
</svg>
