<svg width="30" height="30" viewBox="0 0 30 30" fill="none" xmlns="http://www.w3.org/2000/svg">
<path d="M20.1751 6.75651C18.7525 5.11114 17.1506 3.62975 15.3993 2.33987C15.2821 2.25785 15.1425 2.21387 14.9995 2.21387C14.8564 2.21387 14.7168 2.25785 14.5996 2.33987C12.8483 3.62975 11.2465 5.11114 9.82386 6.75651C6.67061 10.3828 5.00391 14.1986 5.00391 17.7911C5.00391 20.4421 6.05701 22.9845 7.93154 24.8591C9.80607 26.7336 12.3485 27.7867 14.9995 27.7867C17.6505 27.7867 20.1929 26.7336 22.0674 24.8591C23.9419 22.9845 24.995 20.4421 24.995 17.7911C24.995 14.1986 23.3283 10.3828 20.1751 6.75651ZM23.6003 17.7911C23.5995 18.1799 23.5727 18.5682 23.5201 18.9534H15.6968V16.6289H23.5352C23.578 17.0148 23.5997 17.4028 23.6003 17.7911ZM21.8336 11.5149H15.6968V9.19031H20.3331C20.8852 9.93041 21.3865 10.707 21.8336 11.5149ZM15.6968 24.0674H20.8713C19.456 25.396 17.6317 26.2049 15.6968 26.3618V24.0674ZM15.6968 22.6727V20.3481H23.2121C22.9525 21.1759 22.5693 21.9596 22.0754 22.6727H15.6968ZM15.6968 15.2341V12.9096H22.5194C22.8478 13.6595 23.108 14.4375 23.2969 15.2341H15.6968ZM19.2174 7.79558H15.6968V4.34363C16.9634 5.39533 18.1409 6.54991 19.2174 7.79558ZM6.39864 17.7911C6.39864 11.5823 11.902 6.33576 14.3021 4.34363V26.3618C12.1501 26.1843 10.1433 25.2047 8.67942 23.6173C7.21557 22.0299 6.40153 19.9505 6.39864 17.7911Z" fill="#44413F"/>
</svg>
