<svg width="34" height="34" viewBox="0 0 34 34" fill="none" xmlns="http://www.w3.org/2000/svg">
<path d="M11.3897 0.00368566C13.128 -0.0627989 12.9698 0.797903 15.3633 0.353672C17.7555 1.49216 17.9135 2.54691 18.4022 5.05096C19.2046 4.44465 20.0194 4.14749 21.0155 4.158C21.9756 4.1673 22.892 4.57506 23.559 5.29003C24.5456 6.35844 24.6556 7.29702 24.6312 8.68554C26.2724 11.2004 26.1441 12.6689 23.7966 14.5462C24.5277 15.4971 24.7294 16.4995 24.4881 17.6748C24.2386 18.8892 23.2979 19.3821 22.3665 19.9756C21.5829 22.6138 21.3196 22.6395 18.8487 22.4475C18.2213 24.4892 17.9171 25.1923 16.1333 26.2547C17.4618 28.0878 17.987 28.7976 19.6659 30.3119C20.9 29.259 23.5955 26.0179 24.8091 24.624C24.9018 23.9321 24.5552 23.4715 24.4273 22.7627C24.1982 21.4944 24.9315 20.262 25.5601 19.2476C27.2671 18.2865 29.9224 17.3156 31.6726 18.6086C32.4521 19.185 32.967 20.0687 33.0961 21.0509C33.2951 22.5092 32.8535 23.3172 32.0503 24.4166C30.8083 25.4643 29.6861 25.9784 28.1682 26.4618C27.1266 26.258 26.5723 26.1407 25.6491 25.6049C24.3828 27.347 22.3566 29.7506 20.756 31.1075C21.2975 31.5064 21.6286 31.6614 21.9709 32.2562C22.0507 32.8244 22.0805 32.5937 21.8456 33.1278C19.8015 33.464 15.6727 28.0591 14.5337 26.5352C11.5361 27.2891 9.82893 26.3688 8.69157 23.4649C3.51692 25.6322 -1.28044 18.8134 2.78745 14.645C-0.4986 12.7549 -0.956825 9.62113 1.83111 6.95605C2.28353 3.2089 5.60163 2.63441 8.4428 4.32173C8.59757 1.82564 9.16096 0.93687 11.3897 0.00368566ZM9.77584 3.06678C9.74408 3.91682 9.77947 5.22055 9.55507 5.98835L9.33807 6.15358C8.11933 5.94513 6.00198 3.7777 4.06841 5.138C3.29745 5.68038 3.05739 6.79787 2.92931 7.69099C1.46253 8.91487 0.413497 10.476 2.01112 12.3497C3.04042 13.5566 4.26206 13.7234 5.72594 13.9596C3.88753 15.5434 2.71811 15.936 2.48182 18.5344C2.4647 18.7249 2.44962 18.9153 2.43656 19.1061C3.71579 21.2819 5.23392 23.6731 8.07683 22.1171C8.57045 21.8469 9.54564 20.6972 9.90189 20.6633C10.501 21.73 8.57712 24.3582 12.4765 25.5423C13.8611 25.1791 14.1247 25.135 15.5216 25.2012C18.3257 23.1438 16.8453 22.0506 17.7042 20.9753C19.1389 20.6853 20.4055 23.1173 21.3181 19.1043C24.9126 17.2349 23.4038 15.5614 20.7931 14.0879C23.3298 13.2733 26.2933 12.1387 23.2982 9.1766C23.3413 8.51296 23.4026 7.816 23.3912 7.15325C21.1774 4.4496 19.6285 5.66493 17.3504 7.28667C17.1383 5.3265 17.2252 3.94279 16.1871 2.25816C15.1834 1.70813 15.0652 1.59062 13.9976 1.9325C13.899 1.96431 13.8006 1.99718 13.7027 2.03109C12.8366 1.60487 12.4606 1.32092 11.5114 1.36085C10.6034 1.90263 10.3433 2.08662 9.77584 3.06678ZM27.5552 19.6319C24.8133 21.4371 25.2528 25.1056 28.1305 25.1119C28.8372 24.8276 29.1988 24.6777 29.852 24.2907C32.6766 23.4649 30.4492 17.3829 27.5552 19.6319Z" fill="#D77B3E"/>
<path d="M13.3427 8.43536C14.7989 8.98285 13.9892 10.7479 13.6829 12.0191C14.672 11.5567 16.6008 10.6182 17.4976 11.7041L17.4019 12.0269C16.4543 12.8723 15.3598 12.8368 14.1054 12.995C14.6832 13.8614 15.9612 15.5854 15.6848 16.6253C15.3041 16.9239 15.5106 16.8582 15.0522 16.8538C14.8397 16.665 13.6884 14.5404 13.2102 13.868C11.933 14.0153 11.9743 16.605 10.4108 16.4713C9.42715 15.295 11.3703 13.7513 12.1558 12.9517C11.1716 12.5424 9.57163 12.3521 9.10571 11.4546C9.1385 10.9309 9.06045 11.1225 9.39741 10.7334C10.3391 10.4875 11.7381 11.5813 12.7788 12.1189C12.9025 10.8294 12.5924 9.3633 13.3427 8.43536Z" fill="#D77B3E"/>
</svg>
