<svg width="33" height="33" viewBox="0 0 33 33" fill="none" xmlns="http://www.w3.org/2000/svg">
<path d="M7.92207 10.9624C11.7012 10.7711 13.4997 11.0265 17.0892 12.4605C18.386 13.0108 19.6565 13.3748 21.0007 13.7415C22.1227 14.0473 24.7337 13.4088 25.1019 14.6282C24.9721 14.8778 24.8573 14.9766 24.5889 15.0878C21.8756 16.2068 18.1476 14.4401 15.5828 13.4167C10.7065 11.5351 5.63932 11.9448 1.56934 15.2052C1.06636 15.6078 0.604575 15.8198 0.0117373 15.4855C-0.312763 13.2933 6.18474 11.2503 7.92207 10.9624Z" fill="#D77B3E"/>
<path d="M32.1361 18.2545C33.1995 18.2453 33.0647 19.2923 32.4956 19.8636C31.3361 20.9911 29.766 21.9769 28.292 22.5767C25.9207 23.5194 22.9215 23.9636 20.3967 23.3634C16.112 22.3449 13.9079 20.688 9.28128 20.8586C8.80201 20.8273 8.5811 20.7443 8.35645 20.359C9.14648 17.6046 17.561 21.1032 19.2235 21.5584C24.3156 22.9525 28.3969 22.0098 32.1361 18.2545Z" fill="#D77B3E"/>
<path d="M8.55343 15.0232C13.9039 14.5443 16.168 16.683 21.0941 17.7864C22.5219 18.1061 23.8287 17.6958 25.1666 17.9264C25.3913 17.9652 25.556 18.2492 25.6259 18.5057C25.3488 19.1194 24.8409 19.2128 24.253 19.3171C19.1871 19.7438 17.2812 17.6838 12.6371 16.6531C11.3841 16.3747 9.25359 16.5594 7.9481 16.5009C7.79583 16.3793 7.66728 16.2767 7.56369 16.1933C7.2966 15.4138 7.90193 15.2143 8.55343 15.0232Z" fill="#D77B3E"/>
<path d="M29.4106 24.6358C30.1196 25.0684 29.9636 26.7862 30.8335 27.5723C31.3964 28.0814 32.6301 28.1748 32.9995 28.796C32.3655 29.4716 30.7978 29.5127 30.3784 30.5313C30.0015 31.4448 30.1589 32.0723 29.7134 33.001C29.0631 32.6558 28.9063 31.4205 28.6704 30.7051C28.2536 29.4356 26.3922 29.6078 26.0552 28.6143C26.5634 28.0797 27.8676 27.9974 28.5015 27.1104C29.15 26.2037 28.9128 25.3515 29.4106 24.6358ZM29.4819 26.9561C28.8368 28.0864 28.6746 28.1323 27.4956 28.7139C28.5302 29.2059 29.0121 29.4687 29.5425 30.5479C30.0815 29.4932 30.2685 29.1455 31.4077 28.6514C29.8105 27.8016 30.2108 27.5922 29.4819 26.9561Z" fill="#D77B3E"/>
<path d="M8.22876 6.10352e-05C9.12073 0.359757 8.753 1.64607 9.37817 2.31647C9.89862 2.87434 11.5304 3.32131 11.8586 3.98248C11.1122 5.10797 9.64116 3.47264 8.68774 7.9483C7.68199 8.03378 7.95873 6.42255 7.3938 5.56354C6.83219 4.70851 5.39232 4.51979 5.10767 4.02838C5.38722 3.23161 6.26884 3.2979 6.85669 2.87506C7.81896 2.18335 7.9779 1.0728 8.22876 6.10352e-05ZM8.39185 2.12115C7.73049 3.21502 7.52548 3.31633 6.40356 3.95416C7.53932 4.54295 7.87112 4.75208 8.41528 5.95612C9.05928 4.73098 9.25561 4.59199 10.3489 3.78326C9.42539 3.26984 8.95715 3.02383 8.39185 2.12115Z" fill="#D77B3E"/>
<path d="M32.1159 9.10852C32.6825 9.16348 32.4953 9.07735 32.9085 9.37747C33.3103 11.0793 28.9133 14.0514 27.4456 14.5389L26.9514 14.4291C26.5732 14.078 26.6493 14.2469 26.5645 13.7892C26.7854 13.3369 27.2559 13.1501 27.7089 12.9057C29.5486 11.9111 30.8029 10.7451 32.1159 9.10852Z" fill="#D77B3E"/>
<path d="M5.61432 20.1107C6.05864 20.129 6.15474 20.1655 6.44305 20.4075L6.42932 20.7343C5.90014 21.4997 3.64985 22.1193 2.73126 22.6826C2.10473 23.0662 1.63171 23.3705 1.0189 23.8022L0.656954 23.8621C0.198909 23.585 0.32247 23.7374 0.112793 23.3054C0.357417 21.7761 4.26515 20.3968 5.61432 20.1107Z" fill="#D77B3E"/>
</svg>
