<svg width="25" height="29" viewBox="0 0 25 29" fill="none" xmlns="http://www.w3.org/2000/svg">
<path d="M6.84842 23.7143C4.04053 21.6045 3.14016 17.8885 4.33651 14.759C5.56225 11.5528 7.62112 8.53114 9.16914 5.44267C10.0309 3.7929 11.0488 1.76082 12.0659 0.186885C12.1902 -0.00685415 12.3179 0.0260952 12.5557 -6.10352e-05C12.7714 0.0792188 12.9354 0.174821 13.0389 0.37961C15.1985 4.62189 17.6244 8.7406 19.7377 13.0036C21.5792 16.7176 21.7157 20.9398 18.0217 23.7353C15.161 25.5628 11.095 25.7669 8.01274 24.2673C7.61616 24.0744 7.25997 23.8875 6.84842 23.7143ZM12.625 24.3111C14.7373 24.118 16.5622 23.7788 17.9975 22.118C22.3442 17.092 17.1093 11.2033 14.8947 6.41816C14.472 5.5033 12.9519 2.50689 12.45 1.86991C11.2139 4.33073 9.84002 6.72677 8.56221 9.16062C6.78106 12.5533 4.08049 16.3448 5.68806 20.2352C6.9149 23.2042 9.40612 24.1555 12.625 24.3111Z" fill="#D77B3E"/>
<path d="M21.451 24.3533C22.3502 24.5638 24.5836 24.9655 24.9534 25.8479C25.2869 26.8252 23.7481 27.6322 22.9545 27.858C18.4229 29.1438 13.5006 29.0981 8.79224 28.879C6.75649 28.7843 1.96613 28.262 0.434395 26.8921C-1.35579 25.2907 2.89898 24.5266 3.93793 24.2704L4.02972 24.3395C4.29114 24.5383 4.40936 24.5891 4.47881 24.8858C4.10149 25.7457 1.79773 25.3865 1.11903 26.1014C1.42338 28.3407 21.429 28.9056 23.9198 26.2391L23.9617 26.0266C23.2363 25.2724 20.6078 25.7567 20.5319 24.7263C20.7828 24.3998 21.0228 24.4004 21.451 24.3533Z" fill="#D77B3E"/>
</svg>
