<svg width="30" height="30" viewBox="0 0 30 30" fill="none" xmlns="http://www.w3.org/2000/svg">
<path d="M27.4316 9.83482C27.4316 8.39812 27.0056 6.99368 26.2075 5.79902C25.4095 4.60436 24.2751 3.67313 22.9479 3.12303C21.6207 2.57293 20.1602 2.42866 18.751 2.70845C17.3418 2.98825 16.0472 3.67955 15.0308 4.69498L6.81832 12.8126C6.66567 12.9647 6.54462 13.1455 6.46216 13.3446C6.3797 13.5437 6.33745 13.7572 6.33785 13.9727V22.6692L2.7941 26.2129C2.72502 26.2773 2.66961 26.3549 2.63118 26.4412C2.59275 26.5274 2.57209 26.6205 2.57042 26.715C2.56876 26.8094 2.58612 26.9031 2.62149 26.9907C2.65685 27.0782 2.70949 27.1578 2.77625 27.2245C2.84302 27.2913 2.92255 27.3439 3.0101 27.3793C3.09766 27.4147 3.19143 27.432 3.28584 27.4304C3.38025 27.4287 3.47336 27.408 3.55961 27.3696C3.64586 27.3312 3.72348 27.2758 3.78785 27.2067L7.3316 23.6629H16.0281C16.2436 23.6633 16.4571 23.6211 16.6562 23.5386C16.8553 23.4562 17.0361 23.3351 17.1882 23.1825L25.2543 15.0227L25.3 14.9758C25.9778 14.3026 26.5152 13.5015 26.8811 12.619C27.2471 11.7365 27.4342 10.7902 27.4316 9.83482ZM16.0222 5.69107C17.1092 4.61303 18.5749 4.0032 20.1057 3.99205C21.6365 3.9809 23.111 4.56933 24.2135 5.63143C25.316 6.69352 25.9591 8.14494 26.0051 9.67513C26.0511 11.2053 25.4964 12.6928 24.4597 13.8192H17.1754L21.6004 9.39419C21.7246 9.26091 21.7922 9.08461 21.789 8.90246C21.7857 8.7203 21.7119 8.5465 21.5831 8.41767C21.4543 8.28885 21.2805 8.21506 21.0983 8.21184C20.9162 8.20863 20.7399 8.27625 20.6066 8.40045L14.9816 14.0254L13.3691 15.6379V8.31138L16.0222 5.69107ZM7.7441 13.9727C7.74404 13.912 7.76757 13.8536 7.80973 13.8098L11.9629 9.70826V17.0477L7.7441 21.2665V13.9727ZM16.1921 22.1887C16.1485 22.232 16.0896 22.2564 16.0281 22.2567H8.73785L13.1629 17.8329L15.7691 15.2254H23.0757L16.1921 22.1887Z" fill="#44413F"/>
</svg>
