<svg width="30" height="30" viewBox="0 0 30 30" fill="none" xmlns="http://www.w3.org/2000/svg">
<path d="M20.3927 7.96804C20.3927 8.19981 20.3239 8.42638 20.1952 8.6191C20.0664 8.81181 19.8834 8.96201 19.6692 9.05071C19.4551 9.13941 19.2195 9.16261 18.9922 9.1174C18.7648 9.07218 18.556 8.96057 18.3921 8.79668C18.2283 8.63279 18.1166 8.42398 18.0714 8.19666C18.0262 7.96934 18.0494 7.73371 18.1381 7.51958C18.2268 7.30545 18.377 7.12243 18.5697 6.99366C18.7624 6.86489 18.989 6.79616 19.2208 6.79616C19.5316 6.79616 19.8297 6.91963 20.0494 7.1394C20.2692 7.35917 20.3927 7.65724 20.3927 7.96804ZM25.3591 17.0969C23.6259 19.4923 21.0419 21.1071 17.6798 21.9016C15.2774 22.4653 12.4555 22.6048 9.24227 22.3329C9.43211 23.8173 9.70828 25.3856 10.0708 27.038C10.0906 27.1282 10.0925 27.2215 10.0762 27.3125C10.06 27.4035 10.026 27.4904 9.97613 27.5682C9.92628 27.646 9.86158 27.7132 9.78572 27.766C9.70987 27.8188 9.62435 27.8561 9.53406 27.8759C9.48437 27.8865 9.43371 27.892 9.38289 27.8923C9.22271 27.8919 9.06743 27.8369 8.94277 27.7364C8.8181 27.6358 8.73152 27.4956 8.69735 27.3391C8.30125 25.5321 8.00555 23.8134 7.81024 22.1829C6.18524 21.9868 4.46883 21.6911 2.66102 21.2958C2.57076 21.2758 2.48533 21.2382 2.40959 21.1852C2.33386 21.1321 2.26932 21.0647 2.21964 20.9867C2.16996 20.9088 2.13613 20.8218 2.12007 20.7307C2.10402 20.6397 2.10605 20.5464 2.12606 20.4561C2.14606 20.3659 2.18365 20.2804 2.23667 20.2047C2.2897 20.129 2.35712 20.0644 2.43509 20.0147C2.51306 19.9651 2.60004 19.9312 2.69109 19.9152C2.78213 19.8991 2.87545 19.9012 2.9657 19.9212C4.61727 20.2829 6.18445 20.5591 7.66727 20.7497C7.39188 17.5434 7.53485 14.7251 8.09969 12.3239C8.88953 8.96296 10.5032 6.37898 12.8927 4.6446C18.4649 0.608663 26.5227 2.53523 26.9552 2.79187C27.0573 2.85186 27.1424 2.93698 27.2024 3.03913C27.4638 3.47155 29.3938 11.5223 25.3579 17.0981L25.3591 17.0969ZM23.2567 17.4122C20.585 16.9784 18.1175 15.7151 16.2036 13.8012C14.2897 11.8873 13.0264 9.41981 12.5927 6.74812C9.64774 9.64265 8.47703 14.3934 9.09227 20.9149C15.6102 21.5278 20.3598 20.3583 23.2555 17.4134L23.2567 17.4122ZM26.0247 3.97546C24.527 3.64265 18.3583 2.54929 13.8735 5.67702C14.1051 8.37054 15.2803 10.8958 17.1918 12.8075C19.1033 14.7193 21.6285 15.8947 24.322 16.1266C27.4485 11.6442 26.3563 5.47429 26.0247 3.97546Z" fill="#44413F"/>
</svg>
