<svg width="20" height="20" viewBox="0 0 20 20" fill="none" xmlns="http://www.w3.org/2000/svg">
<path d="M5.78125 6.8753V3.1253C5.78125 3.00098 5.83064 2.88176 5.91854 2.79385C6.00645 2.70594 6.12568 2.65655 6.25 2.65655C6.37432 2.65655 6.49355 2.70594 6.58146 2.79385C6.66936 2.88176 6.71875 3.00098 6.71875 3.1253V6.8753C6.71875 6.99962 6.66936 7.11885 6.58146 7.20676C6.49355 7.29467 6.37432 7.34405 6.25 7.34405C6.12568 7.34405 6.00645 7.29467 5.91854 7.20676C5.83064 7.11885 5.78125 6.99962 5.78125 6.8753ZM16.7188 3.1253V17.5003C16.7188 17.6246 16.6694 17.7439 16.5815 17.8318C16.4935 17.9197 16.3743 17.9691 16.25 17.9691C16.1257 17.9691 16.0065 17.9197 15.9185 17.8318C15.8306 17.7439 15.7812 17.6246 15.7812 17.5003V13.5941H11.875C11.7507 13.5941 11.6315 13.5447 11.5435 13.4568C11.4556 13.3689 11.4062 13.2496 11.4062 13.1253C11.4062 12.7808 11.4594 4.66827 16.0656 2.69484C16.1369 2.66435 16.2146 2.65201 16.2918 2.65892C16.369 2.66582 16.4432 2.69176 16.508 2.73442C16.5727 2.77707 16.6258 2.8351 16.6626 2.90331C16.6994 2.97153 16.7187 3.0478 16.7188 3.1253ZM15.7812 3.90655C12.907 5.80421 12.4359 11.0534 12.3586 12.6566H15.7812V3.90655ZM9.2125 3.04718C9.20224 2.98644 9.18012 2.92832 9.1474 2.87613C9.11468 2.82395 9.072 2.77872 9.02179 2.74302C8.97159 2.70733 8.91485 2.68188 8.85481 2.66811C8.79477 2.65435 8.73261 2.65254 8.67188 2.6628C8.61114 2.67306 8.55302 2.69519 8.50083 2.72791C8.44864 2.76063 8.40341 2.80331 8.36772 2.85351C8.33203 2.90371 8.30657 2.96045 8.29281 3.02049C8.27904 3.08053 8.27724 3.14269 8.2875 3.20343L8.90625 6.9128C8.90625 7.61729 8.6264 8.29291 8.12825 8.79106C7.63011 9.2892 6.95448 9.56905 6.25 9.56905C5.54552 9.56905 4.86989 9.2892 4.37175 8.79106C3.8736 8.29291 3.59375 7.61729 3.59375 6.9128L4.2125 3.20343C4.23322 3.08077 4.20436 2.9549 4.13228 2.85351C4.0602 2.75212 3.95079 2.68352 3.82812 2.6628C3.70546 2.64208 3.57959 2.67094 3.47821 2.74302C3.37682 2.81511 3.30822 2.92452 3.2875 3.04718L2.6625 6.79718C2.65844 6.82302 2.65635 6.84914 2.65625 6.8753C2.65738 7.74686 2.97479 8.58839 3.54953 9.24359C4.12426 9.89879 4.91727 10.3231 5.78125 10.4378V17.5003C5.78125 17.6246 5.83064 17.7439 5.91854 17.8318C6.00645 17.9197 6.12568 17.9691 6.25 17.9691C6.37432 17.9691 6.49355 17.9197 6.58146 17.8318C6.66936 17.7439 6.71875 17.6246 6.71875 17.5003V10.4378C7.58273 10.3231 8.37574 9.89879 8.95047 9.24359C9.52521 8.58839 9.84262 7.74686 9.84375 6.8753C9.84365 6.84914 9.84156 6.82302 9.8375 6.79718L9.2125 3.04718Z" fill="#CA804F"/>
</svg>
