<svg width="30" height="30" viewBox="0 0 30 30" fill="none" xmlns="http://www.w3.org/2000/svg">
<path d="M20.5783 12.9083H17.7888C17.6038 12.9083 17.4265 12.8349 17.2957 12.7041C17.1649 12.5733 17.0914 12.3959 17.0914 12.211C17.0914 12.026 17.1649 11.8487 17.2957 11.7179C17.4265 11.5871 17.6038 11.5136 17.7888 11.5136H20.5783C20.7632 11.5136 20.9406 11.5871 21.0714 11.7179C21.2022 11.8487 21.2756 12.026 21.2756 12.211C21.2756 12.3959 21.2022 12.5733 21.0714 12.7041C20.9406 12.8349 20.7632 12.9083 20.5783 12.9083ZM12.2099 11.5136H11.0476V10.3513C11.0476 10.1664 10.9741 9.98902 10.8434 9.85823C10.7126 9.72745 10.5352 9.65398 10.3502 9.65398C10.1653 9.65398 9.98792 9.72745 9.85713 9.85823C9.72635 9.98902 9.65288 10.1664 9.65288 10.3513V11.5136H8.49061C8.30565 11.5136 8.12828 11.5871 7.9975 11.7179C7.86671 11.8487 7.79324 12.026 7.79324 12.211C7.79324 12.3959 7.86671 12.5733 7.9975 12.7041C8.12828 12.8349 8.30565 12.9083 8.49061 12.9083H9.65288V14.0706C9.65288 14.2556 9.72635 14.433 9.85713 14.5637C9.98792 14.6945 10.1653 14.768 10.3502 14.768C10.5352 14.768 10.7126 14.6945 10.8434 14.5637C10.9741 14.433 11.0476 14.2556 11.0476 14.0706V12.9083H12.2099C12.3948 12.9083 12.5722 12.8349 12.703 12.7041C12.8338 12.5733 12.9072 12.3959 12.9072 12.211C12.9072 12.026 12.8338 11.8487 12.703 11.7179C12.5722 11.5871 12.3948 11.5136 12.2099 11.5136ZM27.9982 23.3107C27.634 23.831 27.1497 24.2558 26.5865 24.5491C26.0232 24.8425 25.3975 24.9958 24.7624 24.996C23.7165 24.9936 22.7138 24.5779 21.973 23.8395L21.9428 23.807L17.2518 18.4873H12.7469L8.06173 23.8058L8.0257 23.8337C7.28658 24.5754 6.28332 24.9934 5.23624 24.996C4.65935 24.9956 4.08954 24.8689 3.56684 24.6249C3.04413 24.3808 2.58121 24.0252 2.21058 23.5831C1.83995 23.1411 1.5706 22.6232 1.42146 22.0659C1.27231 21.5086 1.24699 20.9255 1.34727 20.3574C1.34727 20.3574 1.34727 20.3504 1.34727 20.3457L3.24875 10.5699C3.52233 9.01152 4.33632 7.59943 5.5477 6.58169C6.75909 5.56395 8.29038 5.00565 9.87255 5.00488H20.1133C21.6914 5.00689 23.2189 5.5618 24.4303 6.57318C25.6417 7.58455 26.4604 8.98843 26.7441 10.5408C26.7441 10.5489 26.7441 10.5547 26.7441 10.5629L28.6514 20.3469C28.6514 20.3469 28.6514 20.355 28.6514 20.3597C28.7431 20.8703 28.7326 21.3941 28.6205 21.9006C28.5083 22.4072 28.2968 22.8865 27.9982 23.3107ZM20.1133 17.0925C21.5313 17.0925 22.8912 16.5293 23.8939 15.5266C24.8965 14.5239 25.4598 13.164 25.4598 11.7461C25.4598 10.3281 24.8965 8.96821 23.8939 7.96556C22.8912 6.9629 21.5313 6.39961 20.1133 6.39961H9.87255C8.61759 6.40057 7.40313 6.84392 6.44271 7.65171C5.48229 8.4595 4.83739 9.58002 4.62139 10.8163C4.62085 10.8201 4.62085 10.824 4.62139 10.8279L2.71759 20.6061C2.62466 21.1397 2.70359 21.6891 2.94299 22.1749C3.1824 22.6608 3.56991 23.0581 4.04966 23.3096C4.52942 23.561 5.07663 23.6536 5.61241 23.574C6.14818 23.4944 6.64485 23.2468 7.03079 22.8667L11.9123 17.3285C11.9781 17.2549 12.0587 17.1962 12.1489 17.1561C12.2391 17.1161 12.3367 17.0956 12.4354 17.096L20.1133 17.0925ZM27.2811 20.6061L26.1432 14.754C25.5836 15.8746 24.7232 16.8173 23.6583 17.4766C22.5933 18.136 21.3659 18.4859 20.1133 18.4873H19.1103L22.9679 22.8667C23.3538 23.2468 23.8505 23.4944 24.3863 23.574C24.9221 23.6536 25.4693 23.561 25.949 23.3096C26.4288 23.0581 26.8163 22.6608 27.0557 22.1749C27.2951 21.6891 27.374 21.1397 27.2811 20.6061Z" fill="#44413F"/>
</svg>
