<svg width="22" height="22" viewBox="0 0 22 22" fill="none" xmlns="http://www.w3.org/2000/svg">
<path d="M11.0002 7.04695C10.2184 7.04695 9.45406 7.27879 8.80398 7.71317C8.15389 8.14754 7.64721 8.76494 7.348 9.48728C7.0488 10.2096 6.97052 11.0045 7.12305 11.7713C7.27558 12.5381 7.65208 13.2425 8.20493 13.7954C8.75779 14.3482 9.46217 14.7247 10.229 14.8772C10.9958 15.0298 11.7907 14.9515 12.513 14.6523C13.2353 14.3531 13.8527 13.8464 14.2871 13.1963C14.7215 12.5462 14.9533 11.7819 14.9533 11.0001C14.952 9.95206 14.535 8.94736 13.794 8.2063C13.0529 7.46524 12.0482 7.04831 11.0002 7.04695ZM11.0002 13.9219C10.4223 13.9219 9.85741 13.7506 9.37691 13.4295C8.89641 13.1085 8.5219 12.6521 8.30075 12.1182C8.0796 11.5843 8.02174 10.9968 8.13448 10.43C8.24722 9.86325 8.52551 9.34263 8.93414 8.93399C9.34277 8.52536 9.8634 8.24708 10.4302 8.13434C10.997 8.0216 11.5845 8.07946 12.1184 8.30061C12.6523 8.52176 13.1086 8.89626 13.4297 9.37676C13.7507 9.85726 13.9221 10.4222 13.9221 11.0001C13.9221 11.775 13.6143 12.5182 13.0663 13.0661C12.5183 13.6141 11.7751 13.9219 11.0002 13.9219ZM20.2815 9.24695C20.2665 9.17509 20.2364 9.10725 20.1931 9.04797C20.1498 8.98869 20.0944 8.93933 20.0305 8.9032L17.4146 7.4096L17.3785 7.34859L17.3682 4.40007C17.3682 4.32559 17.3521 4.252 17.3209 4.18435C17.2898 4.1167 17.2443 4.05661 17.1877 4.0082C16.2741 3.23568 15.2222 2.64342 14.0879 2.26281C14.0198 2.23988 13.9475 2.23148 13.8759 2.23814C13.8043 2.2448 13.7348 2.26637 13.672 2.30148L11.0397 3.76929H10.9538L8.32842 2.29976C8.26534 2.26455 8.19556 2.24299 8.12361 2.23648C8.05166 2.22996 7.97914 2.23864 7.91076 2.26195C6.77657 2.64367 5.72524 3.23743 4.81271 4.01163C4.75591 4.05979 4.71022 4.11968 4.67876 4.18717C4.64731 4.25467 4.63086 4.32818 4.63053 4.40265L4.61678 7.35374C4.60475 7.37351 4.59271 7.39413 4.58154 7.41476L1.96904 8.90062C1.90484 8.93731 1.84928 8.98738 1.80613 9.04743C1.76298 9.10748 1.73325 9.17611 1.71896 9.24867C1.48951 10.4056 1.48951 11.5963 1.71896 12.7532C1.73392 12.8251 1.76404 12.8929 1.80731 12.9522C1.85059 13.0115 1.90602 13.0608 1.9699 13.0969L4.58412 14.5862L4.62021 14.6473L4.63053 17.5958C4.63011 17.6711 4.6462 17.7456 4.67768 17.8141C4.70916 17.8825 4.75525 17.9432 4.81271 17.9919C5.72635 18.7645 6.77818 19.3567 7.91248 19.7373C7.98067 19.7603 8.05291 19.7687 8.12454 19.762C8.19617 19.7553 8.26562 19.7338 8.32842 19.6987L10.959 18.2309H11.0449L13.6712 19.7004C13.748 19.7429 13.8343 19.7653 13.9221 19.7657C13.9785 19.7659 14.0346 19.7566 14.0879 19.7382C15.2206 19.356 16.2705 18.7622 17.1817 17.9885C17.2385 17.9404 17.2842 17.8805 17.3156 17.813C17.3471 17.7455 17.3636 17.672 17.3639 17.5975L17.3776 14.6464C17.3897 14.6266 17.4017 14.606 17.4129 14.5854L20.0271 13.0995C20.0915 13.0629 20.1472 13.0129 20.1905 12.9528C20.2338 12.8928 20.2636 12.8241 20.278 12.7515C20.5086 11.5948 20.5098 10.4041 20.2815 9.24695ZM19.3147 12.3226L16.7855 13.7587C16.7035 13.8056 16.6358 13.8739 16.5896 13.9563C16.5389 14.0423 16.4856 14.1376 16.4297 14.2262C16.3789 14.3076 16.3518 14.4017 16.3515 14.4977L16.3378 17.3517C15.6267 17.9214 14.828 18.3721 13.9728 18.6863L11.4299 17.2632C11.353 17.22 11.2663 17.1972 11.1781 17.197H11.1661C11.0595 17.197 10.9512 17.197 10.8447 17.197C10.7525 17.1948 10.6614 17.2174 10.5808 17.2623L8.03107 18.6855C7.17475 18.3728 6.37487 17.9233 5.66264 17.3543L5.65232 14.5037C5.65205 14.4077 5.62497 14.3137 5.57412 14.2322C5.51912 14.1462 5.46498 14.0534 5.41428 13.9623C5.36855 13.8799 5.30108 13.8115 5.2192 13.7647L2.69006 12.3235C2.54304 11.4476 2.54304 10.5534 2.69006 9.67749L5.2149 8.24148C5.29817 8.19505 5.36713 8.12669 5.41428 8.04382C5.46498 7.95788 5.51826 7.86249 5.57412 7.77398C5.62497 7.69251 5.65205 7.59845 5.65232 7.50242L5.66607 4.64843C6.3761 4.07907 7.1736 3.62837 8.02764 3.31382L10.5705 4.73695C10.6507 4.7827 10.7421 4.8053 10.8344 4.80226C10.9409 4.80226 11.0492 4.80226 11.1558 4.80226C11.248 4.80448 11.3391 4.78192 11.4196 4.73695L13.9676 3.31382C14.824 3.62644 15.6238 4.07601 16.3361 4.64499L16.3464 7.49554C16.3467 7.59158 16.3737 7.68563 16.4246 7.7671C16.4796 7.85304 16.5337 7.94585 16.5844 8.03695C16.6302 8.11943 16.6976 8.1878 16.7795 8.2346L19.3104 9.67663C19.4582 10.5524 19.4591 11.4466 19.313 12.3226H19.3147Z" fill="#BFBFBF"/>
</svg>
