<svg width="30" height="30" viewBox="0 0 30 30" fill="none" xmlns="http://www.w3.org/2000/svg">
<path d="M28.125 25.0784H26.0156V15.8405L26.6906 16.5155C26.8229 16.6456 27.0012 16.718 27.1867 16.7172C27.3722 16.7163 27.5499 16.6422 27.6809 16.5109C27.812 16.3797 27.8859 16.202 27.8866 16.0165C27.8872 15.831 27.8145 15.6528 27.6844 15.5206L16.1602 3.99524C16.0078 3.84287 15.8269 3.72201 15.6279 3.63955C15.4288 3.55709 15.2155 3.51465 15 3.51465C14.7845 3.51465 14.5712 3.55709 14.3721 3.63955C14.1731 3.72201 13.9922 3.84287 13.8398 3.99524L2.31563 15.5206C2.18545 15.6528 2.11278 15.831 2.11342 16.0165C2.11406 16.202 2.18798 16.3797 2.31906 16.5109C2.45015 16.6422 2.62778 16.7163 2.81327 16.7172C2.99876 16.718 3.17708 16.6456 3.30938 16.5155L3.98438 15.8405V25.0784H1.875C1.68852 25.0784 1.50968 25.1525 1.37782 25.2844C1.24595 25.4162 1.17188 25.5951 1.17188 25.7816C1.17188 25.968 1.24595 26.1469 1.37782 26.2788C1.50968 26.4106 1.68852 26.4847 1.875 26.4847H28.125C28.3115 26.4847 28.4903 26.4106 28.6222 26.2788C28.754 26.1469 28.8281 25.968 28.8281 25.7816C28.8281 25.5951 28.754 25.4162 28.6222 25.2844C28.4903 25.1525 28.3115 25.0784 28.125 25.0784ZM5.39062 14.4343L14.8336 4.99016C14.8554 4.96819 14.8813 4.95075 14.9099 4.93885C14.9384 4.92696 14.9691 4.92083 15 4.92083C15.0309 4.92083 15.0616 4.92696 15.0901 4.93885C15.1187 4.95075 15.1446 4.96819 15.1664 4.99016L24.6094 14.4343V25.0784H18.5156V18.2816C18.5156 18.0951 18.4415 17.9162 18.3097 17.7844C18.1778 17.6525 17.999 17.5784 17.8125 17.5784H12.1875C12.001 17.5784 11.8222 17.6525 11.6903 17.7844C11.5585 17.9162 11.4844 18.0951 11.4844 18.2816V25.0784H5.39062V14.4343ZM17.1094 25.0784H12.8906V18.9847H17.1094V25.0784Z" fill="#44413F"/>
</svg>
