<svg width="24" height="24" viewBox="0 0 24 24" fill="none" xmlns="http://www.w3.org/2000/svg">
<path d="M18.6 9.8C18.6 12.6934 16.7929 15.1643 14.2463 16.1469H9.3537C6.8071 15.1643 5 12.6934 5 9.8C5 6.04427 8.04428 3 11.8 3C15.5557 3 18.6 6.04427 18.6 9.8Z" stroke="#CA804F" stroke-width="1.5" stroke-linecap="round" stroke-linejoin="round"/>
<path d="M14.2463 16.1473L13.9573 19.6111C13.9484 19.7172 13.8999 19.8161 13.8215 19.8882C13.7431 19.9603 13.6405 20.0003 13.534 20.0004H10.066C9.95943 20.0003 9.85677 19.9602 9.77837 19.8881C9.69997 19.8159 9.65155 19.7169 9.6427 19.6107L9.3537 16.1469M9.25 8.52539V11.0754L11.8 9.80039L14.35 11.0754V8.52539" stroke="#CA804F" stroke-width="1.5" stroke-linecap="round" stroke-linejoin="round"/>
</svg>
