<svg width="65" height="31" viewBox="0 0 65 31" fill="none" xmlns="http://www.w3.org/2000/svg">
<g clip-path="url(#clip0_2978_6476)">
<path d="M14.838 31C14.697 31 14.5561 30.9944 14.4152 30.9832L13.2985 30.8959L14.2644 30.3371C15.9061 29.3816 16.5783 28.1537 16.5853 26.0995L16.6093 18.6698C15.5792 18.8228 14.5618 19.019 13.5739 19.2132C11.561 19.6051 9.47963 20.0102 7.33912 20.0102C6.9981 20.0102 6.65779 20.0004 6.32734 19.9794C4.46796 19.8768 1.17123 19.1888 0.251754 17.7792C0.117868 17.584 0.0343615 17.3592 0.00856378 17.1245C-0.0172339 16.8899 0.0154654 16.6525 0.103792 16.4333C0.315166 15.8815 0.971129 15.4659 1.62498 15.4659C1.92006 15.4631 2.20791 15.5563 2.4444 15.7313C4.46655 17.2498 6.57676 17.9273 9.28587 17.9273C11.0988 17.9273 13.0321 17.6235 15.0789 17.3029C15.4361 17.247 15.7976 17.1897 16.1647 17.1338C17.5179 16.9242 18.8852 16.8173 20.2548 16.8139C23.3338 16.8139 26.2853 17.3944 29.0254 18.5399L33.9363 20.5913C35.6673 21.3197 37.4679 21.8736 39.3108 22.2446V19.5254V19.5184C39.3397 18.7948 38.9522 18.3373 38.2716 17.7918L37.4838 17.152L42.5251 17.2274V22.6532C43.179 22.6888 43.8399 22.7063 44.4979 22.7063C47.727 22.7063 50.9413 22.2872 54.3148 21.4337L54.324 18.989C54.324 18.5406 54.1711 18.1976 53.8061 17.8428L53.196 17.247L57.6235 17.2323L57.5792 25.7733C57.5735 26.8336 57.0613 28.2878 54.6516 29.1958C52.7796 29.9013 50.4037 30.0494 48.7395 30.0494C46.8533 30.0494 44.8065 29.8545 43.2628 29.529C40.4177 28.9283 39.1171 27.3323 39.2974 24.6543C36.5742 24.4322 33.9659 23.7002 31.3357 22.4192L26.3085 19.9578C24.1757 18.9101 22.0986 18.4009 19.9602 18.3918L19.9497 25.7433C19.9398 28.6908 17.6978 30.9993 14.838 31ZM42.5632 24.7207C42.437 25.5218 42.4504 26.5255 43.0514 27.2352C43.7616 28.0734 45.6767 28.57 48.1751 28.5707C49.6435 28.5707 51.2048 28.3905 52.3505 28.0887C53.5962 27.7618 54.3529 26.8007 54.3233 25.5819L54.2641 22.8676C50.2191 24.0501 46.4799 24.6425 42.5632 24.7207Z" fill="#44413F"/>
<path d="M7.8389 14.8765C6.93019 14.8789 6.0257 14.7538 5.15234 14.5049L5.2228 13.8211C10.5501 13.3601 13.6249 11.2633 16.1889 6.34181C16.7525 5.26337 17.3486 4.4224 18.0722 3.70856L8.74852 3.68272L7.13221 2.14258H29.6217L28.3119 3.689L23.885 3.67783C21.2661 3.67783 20.3156 5.39747 19.1122 7.57393C18.0454 9.50451 16.8364 11.6949 14.1801 13.1268C12.0558 14.2716 9.86387 14.8765 7.8389 14.8765Z" fill="#44413F"/>
<path d="M54.124 16.2915C53.901 16.2916 53.6782 16.2755 53.4575 16.2433L52.4584 16.0973L53.3321 15.5958C53.9873 15.2194 54.3185 14.6878 54.3185 14.0131L54.3453 3.01349C54.3495 1.39023 52.9361 0.918061 52.0977 0.786748L52.1463 0.0931618L55.9686 0.0107422H56.0306C56.9346 0.0107422 57.5969 0.633084 57.6046 1.49081L57.649 6.14755C58.6538 5.70891 59.5697 5.49517 60.4371 5.49517C60.9564 5.49466 61.4726 5.57407 61.9674 5.73056C63.3653 6.17339 64.2664 7.30353 64.2622 8.60968V9.27742L63.7105 8.89466C62.3014 7.91679 60.8126 7.42017 59.297 7.42017C58.7393 7.42164 58.1835 7.48466 57.6399 7.60806L57.5694 13.6925C57.5483 15.38 55.7791 16.2915 54.124 16.2915Z" fill="#44413F"/>
<path d="M26.8742 14.718C25.0282 12.1839 22.5608 10.3644 18.625 8.63426L18.7603 7.96582C18.8526 7.96582 18.9449 7.96582 19.0372 7.96582C22.7715 7.96582 26.5057 9.62051 29.5446 12.6254L29.8264 12.9047L27.0877 15.0113L26.8742 14.718Z" fill="#44413F"/>
<path d="M42.4678 15.895C39.8799 15.895 37.6767 15.1602 36.4225 13.8798C35.5869 13.027 35.1824 11.9702 35.2191 10.7367C35.2733 8.89902 36.4873 7.33792 38.3855 6.6625C39.6755 6.2043 41.2221 5.95215 42.7412 5.95215C44.6055 5.95215 46.324 6.32863 47.5809 7.01313C49.0782 7.82825 49.9131 9.05548 49.9962 10.5621C50.1054 12.5583 49.0951 14.2074 47.2928 14.9723C45.8935 15.5709 44.1799 15.895 42.4678 15.895ZM42.5826 7.44339C42.0182 7.4441 41.4561 7.51449 40.9093 7.65294C39.3543 8.04618 38.4172 9.32928 38.4644 11C38.5095 12.573 39.374 13.7464 40.7775 14.1432C41.3903 14.3167 42.0243 14.4058 42.6616 14.4079C43.2974 14.4091 43.9297 14.3137 44.5364 14.125C45.9794 13.6745 46.7911 12.4745 46.7707 10.8345C46.7481 9.26851 45.8871 8.09926 44.4667 7.70672C43.8536 7.53455 43.2198 7.44596 42.5826 7.44339Z" fill="#44413F"/>
<path d="M33.8692 5.77081L33.7635 5.62273C33.6931 5.52425 33.6226 5.43414 33.5521 5.34753C33.395 5.15126 33.2456 4.96616 33.1526 4.72449L32.9688 4.25581L41.0066 4.21949L41.0813 2.64792C41.1271 1.66656 40.7945 1.04143 40.0646 0.729209L40.1977 0.0593709L43.9574 0L43.9785 4.24254L51.5795 4.22019L51.6422 4.54289C51.7172 4.86634 51.7046 5.20371 51.6056 5.52075L51.5351 5.7743L33.8692 5.77081Z" fill="#44413F"/>
</g>
<defs>
<clipPath id="clip0_2978_6476">
<rect width="64.2622" height="31" fill="white"/>
</clipPath>
</defs>
</svg>
