<svg width="43" height="20" viewBox="0 0 43 20" fill="none" xmlns="http://www.w3.org/2000/svg">
<path d="M31.0071 0.0910386C31.0374 0.0303462 31.5761 0 32.623 0C33.6699 0 34.1934 0.015173 34.1934 0.0455187C34.1934 0.0758654 34.0948 0.235183 33.8975 0.523471C33.7003 0.811759 33.6092 0.978663 33.6244 1.02418C33.6396 1.0697 33.9051 1.39592 34.421 2.00285C35.0886 2.82219 35.6348 3.47463 36.0597 3.96017C36.6666 4.68848 37.0611 5.15884 37.2432 5.37127C37.4253 5.55335 37.6529 5.7506 37.926 5.96302C38.2294 6.23613 38.5633 6.49408 38.9274 6.73684C39.4433 7.07065 39.8833 7.34377 40.2475 7.55619C40.6723 7.79896 41.1427 8.04173 41.6586 8.2845C42.1138 8.52727 42.3717 8.64865 42.4324 8.64865C42.4324 8.679 42.3869 8.77004 42.2958 8.92177C42.2048 9.0735 42.1441 9.14936 42.1138 9.14936C42.0531 9.14936 41.8558 9.10384 41.522 9.01281C41.1882 8.95211 40.7785 8.8459 40.293 8.69417C39.8378 8.54244 39.3978 8.37554 38.9729 8.19346C38.5481 8.01138 38.1839 7.82931 37.8805 7.64723C37.577 7.46515 37.2735 7.2679 36.9701 7.05548C36.6363 6.84306 36.3632 6.64581 36.1507 6.46373C35.8776 6.25131 35.65 6.05406 35.4679 5.87198C35.2252 5.62921 34.7245 5.09815 33.9658 4.27881C33.2375 3.48981 32.7671 2.9891 32.5547 2.77667L32.4182 2.5946L31.1436 4.36985C30.3243 5.55335 29.7932 6.23613 29.5504 6.41821C29.3684 6.56994 29.1408 6.73685 28.8677 6.91892C28.5945 7.13135 28.2759 7.34377 27.9118 7.55619C27.4869 7.79896 26.9255 8.09484 26.2275 8.44382C25.5296 8.7928 24.9378 9.0735 24.4523 9.28592C23.9061 9.52869 23.4205 9.74111 22.9957 9.92319L22.2674 10.1963L21.9032 10.0597C21.6604 9.96871 21.5391 9.9156 21.5391 9.90043C21.5391 9.88526 21.8122 9.74111 22.3584 9.468C22.8439 9.19488 23.3598 8.89142 23.9061 8.55761C24.4219 8.22381 24.8468 7.92034 25.1806 7.64723C25.5751 7.34377 25.9848 6.97961 26.4096 6.55477C26.8345 6.12992 27.1986 5.73542 27.5021 5.37127C27.8055 5.00711 28.1697 4.47606 28.5945 3.7781C28.7766 3.47463 29.2773 2.70081 30.0967 1.45662C30.6429 0.606923 30.9464 0.151731 31.0071 0.0910386ZM28.5945 11.1977V11.4708V11.744H32.6002H36.6059V11.4708V11.1522H37.6073H38.5633V14.1565V17.1152L38.4267 17.5704C38.3357 17.9042 38.2446 18.1622 38.1536 18.3442C38.0322 18.5567 37.9032 18.7463 37.7667 18.9132C37.6301 19.0801 37.5011 19.1939 37.3798 19.2546C37.2584 19.3153 37.0915 19.3457 36.879 19.3457H36.6059V18.6174V17.8891H32.4637H28.3669L28.1849 18.2532C28.0331 18.5263 27.8814 18.7539 27.7297 18.936C27.5779 19.0877 27.4566 19.1939 27.3655 19.2546C27.2745 19.3153 27.1228 19.3457 26.9103 19.3457H26.5917V15.2945C26.5917 12.5937 26.6069 11.2357 26.6372 11.2205C26.6676 11.2053 27.0014 11.1977 27.6386 11.1977H28.5945ZM28.5945 12.6088V14.7027C28.5945 16.0683 28.5945 16.7966 28.5945 16.8876L28.549 16.9787H32.5547H36.6059V14.7937V12.6088H32.6002H28.5945ZM37.6073 9.60456H27.229V8.69417H37.6073V9.60456Z" fill="#44413F"/>
<path d="M17.3428 1.04737V1.50256V1.95775H15.5676H13.7468V3.14125V4.37027H14.7482H15.7952V4.1882V4.00612H16.569H17.3428V10.2878C17.3428 14.5059 17.3125 16.7136 17.2518 16.9108C17.1911 17.1081 17.1152 17.2977 17.0242 17.4798C16.9332 17.6315 16.8042 17.7833 16.6373 17.935C16.4704 18.0867 16.3035 18.1929 16.1366 18.2536C15.9697 18.3143 15.871 18.3371 15.8407 18.3219C15.8103 18.3067 15.7952 18.1019 15.7952 17.7074V17.1612H11.0612H6.32717L6.23613 17.3888C6.1451 17.5708 6.00854 17.7529 5.82646 17.935C5.64438 18.0867 5.46989 18.1929 5.30299 18.2536C5.13609 18.3143 5.02987 18.3371 4.98435 18.3219C4.93884 18.3067 4.91608 15.917 4.91608 11.1526V4.00612H5.6899H6.50925V4.1882V4.37027H7.96586H9.468V3.14125V1.95775L7.19204 1.91223H4.9616V1.54808C4.93125 1.30531 4.93125 1.16875 4.9616 1.13841C4.9616 1.07771 7.02513 1.04737 11.1522 1.04737H17.3428ZM6.50925 5.28066V10.7885V16.2963H11.1522H15.7952V10.7885V5.28066H14.7482H13.7468V7.37454V9.46843H14.5662H15.3855V9.92362V10.3333H14.4751H13.5647L13.4282 10.5609C13.3371 10.6823 13.2309 10.8037 13.1095 10.925C12.9882 11.0464 12.844 11.1451 12.6771 11.2209C12.5102 11.2968 12.3812 11.3347 12.2902 11.3347C12.2598 11.3044 12.2295 10.2878 12.1992 8.28493V5.28066H11.6074H11.0157V5.64481C11.0157 5.88758 10.9853 6.1607 10.9246 6.46416C10.8943 6.76762 10.8487 7.07108 10.7881 7.37454C10.7274 7.678 10.6363 7.95112 10.5149 8.19389C10.4239 8.467 10.3329 8.6946 10.2418 8.87668C10.1508 9.05875 10.0142 9.27118 9.83215 9.51394C9.65007 9.78706 9.40731 10.0753 9.10384 10.3788C8.77004 10.7126 8.46657 10.9706 8.19346 11.1526C7.92034 11.3347 7.63206 11.4864 7.32859 11.6078C7.08583 11.7292 6.95685 11.7899 6.94168 11.7899C6.92651 11.7899 6.91892 11.7368 6.91892 11.6306C6.91892 11.5244 7.01755 11.4106 7.2148 11.2892C7.41205 11.1678 7.63206 10.9706 7.87483 10.6974C8.14794 10.4547 8.37554 10.1816 8.55761 9.8781C8.77004 9.57464 8.92177 9.31669 9.01281 9.10427C9.10384 8.89185 9.19488 8.61873 9.28592 8.28493C9.37696 7.95112 9.42248 7.35937 9.42248 6.50968L9.468 5.28066H7.96586H6.50925ZM2.86771 12.7458V14.8397C2.86771 16.2356 2.85254 17.017 2.82219 17.1839C2.79185 17.3508 2.73115 17.5253 2.64011 17.7074C2.57942 17.9198 2.4808 18.1019 2.34424 18.2536C2.20768 18.4054 2.04836 18.5268 1.86629 18.6178C1.68421 18.7088 1.47179 18.7543 1.22902 18.7543L0.910384 18.7999V15.8411C0.880038 13.8383 0.872452 12.8217 0.887625 12.7913C0.902798 12.761 1.24419 12.7458 1.91181 12.7458H2.86771ZM3.68706 1.45704H0V0.637695H3.68706V1.45704ZM11.0157 4.37027H12.1992V1.95775H11.0157V4.37027ZM3.68706 7.69318L3.64154 8.14837H0V7.2835H3.68706V7.69318ZM15.3855 13.8838L11.1522 13.9293H6.91892V13.0644H15.3855V13.8838Z" fill="#44413F"/>
</svg>
