<svg width="45" height="45" viewBox="0 0 45 45" fill="none" xmlns="http://www.w3.org/2000/svg">
<rect x="0.135542" y="0.135542" width="44.7289" height="44.7289" rx="22.3645" fill="#FBFAF9"/>
<rect x="0.135542" y="0.135542" width="44.7289" height="44.7289" rx="22.3645" stroke="#BFBFBF" stroke-width="0.271084"/>
<path d="M39.2136 23.2049C39.2136 21.848 39.1035 20.8579 38.8653 19.8311H23.3711V25.9553H32.4658C32.2825 27.4773 31.2924 29.7693 29.092 31.3095L29.0611 31.5145L33.9601 35.3097L34.2995 35.3435C37.4166 32.4647 39.2136 28.229 39.2136 23.2049Z" fill="#4285F4"/>
<path d="M23.3713 39.3413C27.827 39.3413 31.5675 37.8743 34.2997 35.344L29.0922 31.3099C27.6987 32.2818 25.8283 32.9602 23.3713 32.9602C19.0073 32.9602 15.3034 30.0815 13.9831 26.1025L13.7895 26.119L8.69552 30.0613L8.62891 30.2465C11.3426 35.6373 16.9169 39.3413 23.3713 39.3413Z" fill="#34A853"/>
<path d="M13.9816 26.1017C13.6332 25.0749 13.4316 23.9746 13.4316 22.8378C13.4316 21.7009 13.6332 20.6008 13.9633 19.5739L13.954 19.3552L8.79618 15.3496L8.62743 15.4299C7.50896 17.6669 6.86719 20.1791 6.86719 22.8378C6.86719 25.4966 7.50896 28.0086 8.62743 30.2456L13.9816 26.1017Z" fill="#FBBC05"/>
<path d="M23.3713 12.7159C26.4701 12.7159 28.5604 14.0545 29.7523 15.1731L34.4097 10.6257C31.5493 7.9669 27.827 6.33496 23.3713 6.33496C16.9169 6.33496 11.3426 10.0389 8.62891 15.4297L13.9647 19.5737C15.3034 15.5948 19.0073 12.7159 23.3713 12.7159Z" fill="#EB4335"/>
</svg>
