<svg width="45" height="45" viewBox="0 0 45 45" fill="none" xmlns="http://www.w3.org/2000/svg">
<g clip-path="url(#clip0_2978_7718)">
<g clip-path="url(#clip1_2978_7718)">
<path d="M45.6412 41.4844C45.6412 43.4261 44.0223 45 42.0251 45H2.97154C0.974384 45 -0.644531 43.4261 -0.644531 41.4844V3.51562C-0.644531 1.57395 0.974384 0 2.97154 0H42.0251C44.0223 0 45.6412 1.57395 45.6412 3.51562V41.4844Z" fill="#FFE812"/>
<path d="M22.4984 11.5713C15.3411 11.5713 9.53906 16.019 9.53906 21.5054C9.53906 25.0524 11.9647 28.1648 15.6135 29.9223C15.415 30.5879 14.3379 34.2042 14.295 34.4883C14.295 34.4883 14.2692 34.7017 14.4114 34.7831C14.5536 34.8645 14.7208 34.8013 14.7208 34.8013C15.1285 34.7459 19.4488 31.7955 20.1966 31.2832C20.9436 31.386 21.7128 31.4395 22.4984 31.4395C29.6556 31.4395 35.4577 26.9919 35.4577 21.5054C35.4577 16.019 29.6556 11.5713 22.4984 11.5713Z" fill="black"/>
<path d="M15.3315 24.9731C14.9192 24.9731 14.5839 24.6617 14.5839 24.2789V19.9606H13.4173C13.0127 19.9606 12.6836 19.6412 12.6836 19.2488C12.6836 18.8565 13.0128 18.5371 13.4173 18.5371H17.2458C17.6504 18.5371 17.9795 18.8565 17.9795 19.2488C17.9795 19.6412 17.6502 19.9606 17.2458 19.9606H16.0792V24.2789C16.0792 24.6617 15.7439 24.9731 15.3315 24.9731Z" fill="#FFE812"/>
<path d="M21.8891 24.9635C21.5773 24.9635 21.3388 24.8404 21.2669 24.6425L20.8967 23.7002L18.6168 23.7L18.2464 24.6429C18.1747 24.8405 17.9363 24.9635 17.6246 24.9635C17.46 24.9635 17.2955 24.9288 17.1493 24.8632C16.9432 24.7707 16.7451 24.5166 16.9721 23.831L18.7605 19.2545C18.8865 18.9065 19.2692 18.5479 19.7561 18.5371C20.2445 18.5478 20.6271 18.9065 20.7534 19.2553L22.541 23.8297C22.7685 24.5168 22.5704 24.7711 22.3643 24.8633C22.2179 24.9288 22.0537 24.9635 21.8891 24.9635ZM20.5035 22.4126L19.7568 20.3501L19.01 22.4126H20.5035Z" fill="#FFE812"/>
<path d="M23.7438 24.8671C23.3487 24.8671 23.0273 24.5681 23.0273 24.2007V19.264C23.0273 18.8631 23.3698 18.5371 23.7906 18.5371C24.2114 18.5371 24.5538 18.8631 24.5538 19.264V23.5344H26.1426C26.5377 23.5344 26.8591 23.8334 26.8591 24.2007C26.8591 24.5681 26.5377 24.8671 26.1426 24.8671H23.7438Z" fill="#FFE812"/>
<path d="M27.9 24.9636C27.4877 24.9636 27.1523 24.6376 27.1523 24.2367V19.264C27.1523 18.8631 27.4877 18.5371 27.9 18.5371C28.3123 18.5371 28.6476 18.8631 28.6476 19.264V20.8263L30.7336 18.7983C30.8409 18.694 30.9883 18.6366 31.1483 18.6366C31.335 18.6366 31.5224 18.7148 31.6628 18.8512C31.7938 18.9784 31.8719 19.1421 31.8826 19.3121C31.8935 19.4835 31.8348 19.6406 31.7176 19.7546L30.0139 21.4108L31.8542 23.7812C31.9746 23.9362 32.0255 24.1273 31.9978 24.3197C31.9701 24.5121 31.867 24.6822 31.7077 24.7991C31.5768 24.8952 31.4214 24.9458 31.258 24.9458C31.0209 24.9458 30.8034 24.8406 30.6607 24.6569L28.9073 22.3982L28.6479 22.6504V24.2364C28.6476 24.6375 28.3123 24.9636 27.9 24.9636Z" fill="#FFE812"/>
</g>
</g>
<defs>
<clipPath id="clip0_2978_7718">
<rect width="45" height="45" rx="22.5" fill="white"/>
</clipPath>
<clipPath id="clip1_2978_7718">
<rect width="46.2857" height="45" fill="white" transform="translate(-0.644531)"/>
</clipPath>
</defs>
</svg>
