<svg width="30" height="30" viewBox="0 0 30 30" fill="none" xmlns="http://www.w3.org/2000/svg">
<path d="M25.147 7.1475C25.2256 7.06884 25.2791 6.96865 25.3007 6.8596C25.3224 6.75055 25.3113 6.63753 25.2687 6.53481C25.2262 6.43208 25.1542 6.34427 25.0618 6.28246C24.9693 6.22064 24.8607 6.1876 24.7495 6.1875H5.24951C5.13833 6.1876 5.02967 6.22064 4.93726 6.28246C4.84484 6.34427 4.77282 6.43208 4.73029 6.53481C4.68776 6.63753 4.67662 6.75055 4.69828 6.8596C4.71994 6.96865 4.77344 7.06884 4.85201 7.1475L14.437 16.7334V22.6875H11.2495C11.1003 22.6875 10.9572 22.7468 10.8518 22.8523C10.7463 22.9577 10.687 23.1008 10.687 23.25C10.687 23.3992 10.7463 23.5423 10.8518 23.6477C10.9572 23.7532 11.1003 23.8125 11.2495 23.8125H18.7495C18.8987 23.8125 19.0418 23.7532 19.1473 23.6477C19.2527 23.5423 19.312 23.3992 19.312 23.25C19.312 23.1008 19.2527 22.9577 19.1473 22.8523C19.0418 22.7468 18.8987 22.6875 18.7495 22.6875H15.562V16.7334L25.147 7.1475ZM9.60794 10.3125H20.3892L14.9995 15.7041L9.60794 10.3125ZM23.3892 7.3125L21.5142 9.1875H8.48294L6.60794 7.3125H23.3892Z" fill="#44413F"/>
</svg>
