<svg width="30" height="30" viewBox="0 0 30 30" fill="none" xmlns="http://www.w3.org/2000/svg">
<g clip-path="url(#clip0_2932_1208)">
<path d="M19.106 13.4895L13.5271 9.77021C13.422 9.70009 13.2999 9.65984 13.1737 9.65376C13.0475 9.64767 12.922 9.67597 12.8107 9.73565C12.6993 9.79532 12.6063 9.88412 12.5415 9.99256C12.4767 10.101 12.4425 10.225 12.4427 10.3513V17.7899C12.4425 17.9162 12.4767 18.0402 12.5415 18.1487C12.6063 18.2571 12.6993 18.3459 12.8107 18.4056C12.922 18.4653 13.0475 18.4936 13.1737 18.4875C13.2999 18.4814 13.422 18.4412 13.5271 18.371L19.106 14.6518C19.2019 14.5881 19.2806 14.5018 19.335 14.4004C19.3895 14.299 19.4179 14.1857 19.4179 14.0706C19.4179 13.9555 19.3895 13.8423 19.335 13.7409C19.2806 13.6395 19.2019 13.5531 19.106 13.4895ZM13.8375 16.487V11.6543L17.4614 14.0706L13.8375 16.487ZM24.2979 5.00488H5.70154C5.02338 5.00488 4.37299 5.27428 3.89346 5.75381C3.41393 6.23334 3.14453 6.88373 3.14453 7.56189V20.5794C3.14453 21.2575 3.41393 21.9079 3.89346 22.3874C4.37299 22.867 5.02338 23.1364 5.70154 23.1364H24.2979C24.9761 23.1364 25.6265 22.867 26.106 22.3874C26.5855 21.9079 26.8549 21.2575 26.8549 20.5794V7.56189C26.8549 6.88373 26.5855 6.23334 26.106 5.75381C25.6265 5.27428 24.9761 5.00488 24.2979 5.00488ZM25.4602 20.5794C25.4602 20.8876 25.3377 21.1832 25.1198 21.4012C24.9018 21.6192 24.6062 21.7416 24.2979 21.7416H5.70154C5.39328 21.7416 5.09765 21.6192 4.87968 21.4012C4.66171 21.1832 4.53926 20.8876 4.53926 20.5794V7.56189C4.53926 7.25363 4.66171 6.958 4.87968 6.74003C5.09765 6.52207 5.39328 6.39961 5.70154 6.39961H24.2979C24.6062 6.39961 24.9018 6.52207 25.1198 6.74003C25.3377 6.958 25.4602 7.25363 25.4602 7.56189V20.5794ZM19.4164 26.1583C19.4164 26.3432 19.3429 26.5206 19.2121 26.6514C19.0813 26.7822 18.904 26.8556 18.719 26.8556H11.2805C11.0955 26.8556 10.9181 26.7822 10.7873 26.6514C10.6566 26.5206 10.5831 26.3432 10.5831 26.1583C10.5831 25.9733 10.6566 25.7959 10.7873 25.6652C10.9181 25.5344 11.0955 25.4609 11.2805 25.4609H18.719C18.904 25.4609 19.0813 25.5344 19.2121 25.6652C19.3429 25.7959 19.4164 25.9733 19.4164 26.1583Z" fill="#44413F"/>
</g>
<defs>
<clipPath id="clip0_2932_1208">
<rect width="30" height="30" fill="white"/>
</clipPath>
</defs>
</svg>
