<svg width="30" height="30" viewBox="0 0 30 30" fill="none" xmlns="http://www.w3.org/2000/svg">
<path d="M26.951 11.7207C26.951 11.9072 26.877 12.086 26.7451 12.2179C26.6132 12.3497 26.4344 12.4238 26.2479 12.4238H24.1385V14.5332C24.1385 14.7197 24.0645 14.8985 23.9326 15.0304C23.8007 15.1622 23.6219 15.2363 23.4354 15.2363C23.2489 15.2363 23.0701 15.1622 22.9382 15.0304C22.8064 14.8985 22.7323 14.7197 22.7323 14.5332V12.4238H20.6229C20.4364 12.4238 20.2576 12.3497 20.1257 12.2179C19.9939 12.086 19.9198 11.9072 19.9198 11.7207C19.9198 11.5342 19.9939 11.3554 20.1257 11.2235C20.2576 11.0917 20.4364 11.0176 20.6229 11.0176H22.7323V8.9082C22.7323 8.72172 22.8064 8.54288 22.9382 8.41102C23.0701 8.27916 23.2489 8.20508 23.4354 8.20508C23.6219 8.20508 23.8007 8.27916 23.9326 8.41102C24.0645 8.54288 24.1385 8.72172 24.1385 8.9082V11.0176H26.2479C26.4344 11.0176 26.6132 11.0917 26.7451 11.2235C26.877 11.3554 26.951 11.5342 26.951 11.7207ZM15.9354 6.79883H17.1073V7.9707C17.1073 8.15718 17.1814 8.33603 17.3132 8.46789C17.4451 8.59975 17.6239 8.67383 17.8104 8.67383C17.9969 8.67383 18.1757 8.59975 18.3076 8.46789C18.4395 8.33603 18.5135 8.15718 18.5135 7.9707V6.79883H19.6854C19.8719 6.79883 20.0507 6.72475 20.1826 6.59289C20.3145 6.46103 20.3885 6.28218 20.3885 6.0957C20.3885 5.90922 20.3145 5.73038 20.1826 5.59852C20.0507 5.46666 19.8719 5.39258 19.6854 5.39258H18.5135V4.2207C18.5135 4.03422 18.4395 3.85538 18.3076 3.72352C18.1757 3.59166 17.9969 3.51758 17.8104 3.51758C17.6239 3.51758 17.4451 3.59166 17.3132 3.72352C17.1814 3.85538 17.1073 4.03422 17.1073 4.2207V5.39258H15.9354C15.7489 5.39258 15.5701 5.46666 15.4382 5.59852C15.3064 5.73038 15.2323 5.90922 15.2323 6.0957C15.2323 6.28218 15.3064 6.46103 15.4382 6.59289C15.5701 6.72475 15.7489 6.79883 15.9354 6.79883ZM24.285 18.5504C24.3668 18.6457 24.4216 18.7612 24.4436 18.8848C24.4657 19.0085 24.4542 19.1358 24.4104 19.2535C23.7741 20.9912 22.7103 22.5407 21.3172 23.7588C19.924 24.9768 18.2465 25.8243 16.4393 26.223C14.6322 26.6216 12.7538 26.5586 10.9775 26.0396C9.20118 25.5207 7.58422 24.5627 6.27589 23.2539C4.96756 21.9451 4.01004 20.3279 3.49171 18.5514C2.97338 16.7749 2.91095 14.8964 3.31019 13.0895C3.70943 11.2825 4.55747 9.60519 5.77601 8.21246C6.99456 6.81972 8.54434 5.75641 10.2823 5.1207C10.3993 5.07812 10.5255 5.06739 10.6481 5.08959C10.7706 5.11179 10.885 5.16614 10.9797 5.24707C11.0743 5.32801 11.1458 5.43262 11.1867 5.55022C11.2277 5.66783 11.2367 5.79419 11.2128 5.91641C10.9114 7.44571 10.9524 9.02277 11.3327 10.5344C11.713 12.046 12.4233 13.4546 13.4125 14.6592C14.4016 15.8639 15.6452 16.8345 17.054 17.5016C18.4627 18.1687 20.0017 18.5157 21.5604 18.5176C22.25 18.5178 22.938 18.4511 23.6147 18.3184C23.737 18.2942 23.8635 18.3029 23.9813 18.3437C24.0991 18.3844 24.2039 18.4558 24.285 18.5504ZM22.601 19.8793C22.2557 19.909 21.9089 19.9238 21.5604 19.9238C18.3914 19.9201 15.3532 18.6596 13.1124 16.4187C10.8715 14.1779 9.61101 11.1397 9.60729 7.9707C9.60729 7.62305 9.62213 7.27617 9.65182 6.93008C8.30901 7.62432 7.14894 8.62556 6.26585 9.85244C5.38276 11.0793 4.80158 12.4972 4.56953 13.991C4.33747 15.4847 4.46109 17.0121 4.93035 18.4491C5.3996 19.8861 6.20125 21.1921 7.27015 22.261C8.33905 23.3299 9.64504 24.1315 11.082 24.6008C12.519 25.07 14.0464 25.1936 15.5401 24.9616C17.0339 24.7295 18.4518 24.1484 19.6787 23.2653C20.9056 22.3822 21.9068 21.2221 22.601 19.8793Z" fill="#44413F"/>
</svg>
