<svg width="30" height="30" viewBox="0 0 30 30" fill="none" xmlns="http://www.w3.org/2000/svg">
<path d="M26.4138 17.506C26.3242 17.4166 26.212 17.3532 26.0891 17.3227C25.9663 17.2922 25.8374 17.2957 25.7164 17.3328C23.9032 17.8809 21.9753 17.9267 20.1382 17.4654C18.301 17.0041 16.6234 16.0529 15.2842 14.7134C13.945 13.3738 12.9944 11.696 12.5335 9.85869C12.0727 8.02141 12.1191 6.09352 12.6676 4.28049C12.7042 4.15959 12.7073 4.031 12.6766 3.90847C12.6458 3.78593 12.5823 3.67406 12.493 3.58478C12.4036 3.49551 12.2916 3.4322 12.169 3.40161C12.0465 3.37102 11.9179 3.3743 11.797 3.41111C9.39292 4.14868 7.28255 5.62541 5.76598 7.63133C4.04681 9.91414 3.21011 12.7411 3.40988 15.5919C3.60965 18.4426 4.83244 21.1253 6.85318 23.146C8.87392 25.1668 11.5566 26.3896 14.4073 26.5894C17.2581 26.7891 20.0851 25.9524 22.3679 24.2333C24.3738 22.7167 25.8506 20.6063 26.5881 18.2022C26.6249 18.0813 26.6281 17.9526 26.5974 17.83C26.5667 17.7073 26.5032 17.5954 26.4138 17.506ZM21.5322 23.1186C19.5178 24.6294 17.0261 25.3629 14.5144 25.1844C12.0028 25.0059 9.63977 23.9274 7.85928 22.1469C6.07879 20.3664 5.00029 18.0034 4.8218 15.4918C4.6433 12.9801 5.37678 10.4884 6.88757 8.47397C7.96366 7.04719 9.38409 5.91669 11.016 5.18822C10.6724 7.07532 10.7916 9.01758 11.3633 10.8485C11.935 12.6794 12.9422 14.3444 14.2985 15.7007C15.6548 17.0571 17.3198 18.0642 19.1507 18.6359C20.9817 19.2076 22.9239 19.3268 24.811 18.9833C24.0845 20.6173 22.9552 22.0402 21.5287 23.1186H21.5322Z" fill="#44413F"/>
</svg>
