<svg width="20" height="20" viewBox="0 0 20 20" fill="none" xmlns="http://www.w3.org/2000/svg">
<path d="M17.6484 5.84207L14.157 2.35066C14.0555 2.24909 13.9349 2.16851 13.8022 2.11354C13.6695 2.05857 13.5272 2.03027 13.3836 2.03027C13.24 2.03027 13.0977 2.05857 12.965 2.11354C12.8323 2.16851 12.7117 2.24909 12.6102 2.35066L2.97656 11.985C2.87479 12.0865 2.7941 12.207 2.73912 12.3398C2.68415 12.4725 2.65599 12.6148 2.65625 12.7585V16.2499C2.65625 16.54 2.77149 16.8182 2.9766 17.0233C3.18172 17.2284 3.45992 17.3436 3.75 17.3436H7.24141C7.38508 17.3439 7.52739 17.3157 7.66013 17.2608C7.79288 17.2058 7.91343 17.1251 8.01485 17.0233L17.6484 7.38895C17.75 7.28738 17.8306 7.1668 17.8856 7.03409C17.9405 6.90139 17.9688 6.75915 17.9688 6.61551C17.9688 6.47187 17.9405 6.32963 17.8856 6.19692C17.8306 6.06422 17.75 5.94364 17.6484 5.84207ZM7.35156 16.36C7.3224 16.3894 7.28278 16.406 7.24141 16.4061H3.75C3.70856 16.4061 3.66882 16.3897 3.63952 16.3604C3.61021 16.3311 3.59375 16.2913 3.59375 16.2499V12.7585C3.59393 12.7171 3.6105 12.6775 3.63985 12.6483L10.625 5.66238L14.3367 9.37488L7.35156 16.36ZM16.9852 6.72645L15 8.7116L11.2883 4.99988L13.2734 3.01395C13.288 2.99942 13.3052 2.98789 13.3242 2.98003C13.3431 2.97217 13.3635 2.96812 13.384 2.96812C13.4045 2.96812 13.4249 2.97217 13.4438 2.98003C13.4628 2.98789 13.48 2.99942 13.4945 3.01395L16.9852 6.50535C16.9997 6.51986 17.0112 6.5371 17.0191 6.55606C17.0269 6.57503 17.031 6.59537 17.031 6.6159C17.031 6.63643 17.0269 6.65676 17.0191 6.67573C17.0112 6.6947 16.9997 6.71193 16.9852 6.72645Z" fill="#CA804F"/>
</svg>
