<svg width="20" height="20" viewBox="0 0 20 20" fill="none" xmlns="http://www.w3.org/2000/svg">
<path fill-rule="evenodd" clip-rule="evenodd" d="M7.08268 10.0003C8.69393 10.0003 9.99935 8.69491 9.99935 7.08366C9.99935 5.47241 8.69393 4.16699 7.08268 4.16699C5.47143 4.16699 4.16602 5.47241 4.16602 7.08366C4.16602 8.69491 5.47143 10.0003 7.08268 10.0003ZM9.16602 7.08366C9.16602 8.23491 8.23393 9.16699 7.08268 9.16699C5.93143 9.16699 4.99935 8.23491 4.99935 7.08366C4.99935 5.93241 5.93143 5.00033 7.08268 5.00033C8.23393 5.00033 9.16602 5.93241 9.16602 7.08366ZM1.66602 15.8337V13.5003C1.66602 11.727 5.27477 10.8337 7.08268 10.8337C8.28518 10.8337 10.2848 11.2291 11.4889 12.0157C12.3473 11.7837 13.2885 11.667 13.9577 11.667C14.7318 11.667 15.7706 11.8228 16.6285 12.1378C17.056 12.2953 17.4656 12.502 17.7752 12.7695C18.0873 13.0391 18.3327 13.4037 18.3327 13.8612V15.8337H1.66602ZM2.49935 13.5003C2.49935 13.3682 2.56018 13.1874 2.81852 12.9524C3.08227 12.7124 3.4881 12.4799 4.00185 12.2774C5.03143 11.8712 6.28143 11.667 7.08268 11.667C7.88393 11.667 9.13435 11.8712 10.1631 12.2774C10.6773 12.4799 11.0831 12.7124 11.3464 12.9524C11.6052 13.1874 11.666 13.3682 11.666 13.5003V15.0003H2.49935V13.5003ZM12.2298 12.6962C12.8602 12.5657 13.4923 12.5003 13.9577 12.5003C14.6439 12.5003 15.5839 12.642 16.341 12.9203C16.7198 13.0595 17.026 13.2237 17.2306 13.4003C17.4327 13.5749 17.4993 13.7282 17.4993 13.8616V15.0003H12.4993V13.5003C12.4993 13.2087 12.4014 12.9399 12.2298 12.6962ZM16.2493 8.54199C16.2493 9.80824 15.2239 10.8337 13.9577 10.8337C13.3499 10.8337 12.767 10.5922 12.3372 10.1624C11.9075 9.73267 11.666 9.14978 11.666 8.54199C11.666 7.27574 12.6914 6.25033 13.9577 6.25033C15.2239 6.25033 16.2493 7.27574 16.2493 8.54199ZM13.9577 10.0003C14.7635 10.0003 15.416 9.34783 15.416 8.54199C15.416 7.73616 14.7635 7.08366 13.9577 7.08366C13.5709 7.08366 13.2 7.2373 12.9265 7.51079C12.653 7.78429 12.4993 8.15522 12.4993 8.54199C12.4993 9.34783 13.1518 10.0003 13.9577 10.0003Z" fill="#424242"/>
</svg>
