<svg width="30" height="30" viewBox="0 0 30 30" fill="none" xmlns="http://www.w3.org/2000/svg">
<path d="M26.735 9.80256C26.6463 9.7179 26.5371 9.65789 26.418 9.62849C26.299 9.5991 26.1744 9.60133 26.0565 9.63498L25.8913 9.68185C25.7384 9.01432 25.4479 8.38602 25.0384 7.83715C24.6289 7.28828 24.1093 6.83091 23.5129 6.49428C22.9166 6.15766 22.2565 5.94919 21.575 5.88221C20.8934 5.81523 20.2054 5.89121 19.5549 6.10529C19.1848 5.20113 18.5541 4.42756 17.7429 3.88308C16.9317 3.3386 15.9768 3.04785 14.9999 3.04785C14.0229 3.04785 13.068 3.3386 12.2568 3.88308C11.4456 4.42756 10.8149 5.20113 10.4448 6.10529C9.79428 5.89121 9.10627 5.81523 8.42474 5.88221C7.7432 5.94919 7.08315 6.15766 6.48678 6.49428C5.8904 6.83091 5.37084 7.28828 4.96132 7.83715C4.55179 8.38602 4.26131 9.01432 4.10845 9.68185L3.94321 9.63498C3.82538 9.60131 3.70079 9.59901 3.5818 9.62833C3.46281 9.65764 3.35355 9.71755 3.26485 9.8021C3.17615 9.88666 3.11108 9.99293 3.07611 10.1104C3.04114 10.2278 3.03747 10.3524 3.06548 10.4717L6.64555 25.6873C6.73034 26.0473 6.93423 26.368 7.22415 26.5975C7.51408 26.827 7.87304 26.9519 8.24282 26.9518H21.7569C22.1267 26.9519 22.4856 26.827 22.7755 26.5975C23.0655 26.368 23.2694 26.0473 23.3541 25.6873L26.9342 10.4717C26.9622 10.3525 26.9585 10.228 26.9235 10.1107C26.8886 9.99329 26.8236 9.88709 26.735 9.80256ZM8.9061 7.26428C9.47838 7.2629 10.0421 7.40342 10.5467 7.67326C10.6424 7.72426 10.7487 7.75243 10.8571 7.75556C10.9655 7.75869 11.0731 7.7367 11.1716 7.69131C11.2701 7.64592 11.3568 7.57835 11.4249 7.49391C11.4929 7.40946 11.5405 7.31041 11.5639 7.20451C11.738 6.42432 12.1728 5.72675 12.7965 5.22683C13.4203 4.72691 14.1958 4.45449 14.9952 4.45449C15.7945 4.45449 16.57 4.72691 17.1938 5.22683C17.8176 5.72675 18.2523 6.42432 18.4264 7.20451C18.4499 7.31025 18.4975 7.40913 18.5654 7.49345C18.6334 7.57777 18.7199 7.64525 18.8183 7.69062C18.9166 7.73599 19.0241 7.75803 19.1324 7.75502C19.2407 7.75201 19.3468 7.72403 19.4424 7.67326C19.9503 7.402 20.5178 7.26144 21.0936 7.26428C21.9029 7.26405 22.6874 7.54303 23.3149 8.05413C23.9424 8.56523 24.3743 9.27715 24.5377 10.0697L19.7249 11.4444L15.6092 9.80373C15.218 9.64724 14.7817 9.64724 14.3905 9.80373L10.2749 11.4444L5.46196 10.0697C5.62543 9.27715 6.05735 8.56523 6.6848 8.05413C7.31225 7.54303 8.09683 7.26405 8.9061 7.26428ZM18.9186 12.6362L17.1971 25.5455H12.8026L11.0811 12.6362L14.9131 11.1033C14.9688 11.0812 15.0309 11.0812 15.0866 11.1033L18.9186 12.6362ZM8.02016 25.3651L4.70845 11.3166L9.67602 12.7358L11.3846 25.5455H8.24282C8.18996 25.5456 8.13862 25.5278 8.09714 25.4951C8.05565 25.4623 8.02646 25.4165 8.0143 25.3651H8.02016ZM21.9913 25.3651C21.9789 25.4175 21.9488 25.4641 21.9061 25.4969C21.8635 25.5298 21.8107 25.547 21.7569 25.5455H18.6151L20.3237 12.7358L25.2913 11.3166L21.9913 25.3651Z" fill="#44413F"/>
</svg>
