<svg width="30" height="30" viewBox="0 0 30 30" fill="none" xmlns="http://www.w3.org/2000/svg">
<path d="M27.8402 15.6762L24.0902 6.30117C24.0283 6.14654 23.9135 6.0189 23.7663 5.94099C23.6191 5.86309 23.449 5.83998 23.2863 5.87578L15.7031 7.56094V4.6875C15.7031 4.50102 15.629 4.32218 15.4972 4.19032C15.3653 4.05845 15.1865 3.98438 15 3.98438C14.8135 3.98438 14.6347 4.05845 14.5028 4.19032C14.371 4.32218 14.2969 4.50102 14.2969 4.6875V7.87383L6.41016 9.63164C6.29843 9.65646 6.19444 9.70819 6.10724 9.78232C6.02004 9.85645 5.95225 9.95075 5.90977 10.057L2.15977 19.432C2.12747 19.5134 2.11039 19.6 2.10938 19.6875C2.10938 22.2492 4.84102 23.2031 6.5625 23.2031C8.28398 23.2031 11.0156 22.2492 11.0156 19.6875C11.0153 19.598 10.9982 19.5094 10.9652 19.4262L7.52227 10.8199L14.2969 9.31406V24.6094H12.1875C12.001 24.6094 11.8222 24.6835 11.6903 24.8153C11.5585 24.9472 11.4844 25.126 11.4844 25.3125C11.4844 25.499 11.5585 25.6778 11.6903 25.8097C11.8222 25.9415 12.001 26.0156 12.1875 26.0156H17.8125C17.999 26.0156 18.1778 25.9415 18.3097 25.8097C18.4415 25.6778 18.5156 25.499 18.5156 25.3125C18.5156 25.126 18.4415 24.9472 18.3097 24.8153C18.1778 24.6835 17.999 24.6094 17.8125 24.6094H15.7031V9.00117L22.2902 7.5375L19.0348 15.6762C19.0018 15.7594 18.9847 15.848 18.9844 15.9375C18.9844 18.4992 21.716 19.4531 23.4375 19.4531C25.159 19.4531 27.8906 18.4992 27.8906 15.9375C27.8903 15.848 27.8732 15.7594 27.8402 15.6762ZM6.5625 21.7969C5.84595 21.7913 5.14203 21.6076 4.51406 21.2625C3.88477 20.8957 3.55898 20.4211 3.51914 19.8129L6.56602 12.2063L9.61289 19.8129C9.49922 21.4277 7.33359 21.7969 6.5625 21.7969ZM23.4375 18.0469C22.721 18.0413 22.017 17.8576 21.3891 17.5125C20.7598 17.1457 20.434 16.6711 20.3941 16.0629L23.441 8.45625L26.4879 16.0629C26.3742 17.6777 24.2086 18.0469 23.4375 18.0469Z" fill="#44413F"/>
</svg>
