<svg width="29" height="29" viewBox="0 0 29 29" fill="none" xmlns="http://www.w3.org/2000/svg">
<path d="M21.75 29V26.1H26.1V21.75H29V26.825C29 27.405 28.71 27.84 28.275 28.275C27.84 28.71 27.26 29 26.825 29H21.75ZM7.25 29H2.175C1.595 29 1.16 28.71 0.725 28.275C0.29 27.84 0 27.26 0 26.825V21.75H2.9V26.1H7.25V29ZM21.75 0H26.825C27.405 0 27.84 0.29 28.275 0.725C28.71 1.16 29 1.595 29 2.175V7.25H26.1V2.9H21.75V0ZM7.25 0V2.9H2.9V7.25H0V2.175C0 1.595 0.29 1.16 0.725 0.725C1.16 0.29 1.595 0 2.175 0H7.25ZM24.65 13.05H4.35V15.95H24.65V13.05Z" fill="#564E44"/>
</svg>
