<svg width="33" height="33" viewBox="0 0 33 33" fill="none" xmlns="http://www.w3.org/2000/svg">
<path d="M7.92207 10.9619C11.7013 10.7706 13.4997 11.0261 17.0892 12.46C18.386 13.0104 19.6565 13.3743 21.0007 13.741C22.1227 14.0468 24.7337 13.4083 25.1019 14.6277C24.9721 14.8773 24.8573 14.9761 24.5889 15.0873C21.8756 16.2063 18.1476 14.4396 15.5828 13.4162C10.7065 11.5346 5.63932 11.9444 1.56934 15.2047C1.06636 15.6074 0.604575 15.8193 0.0117373 15.485C-0.312763 13.2928 6.18474 11.2498 7.92207 10.9619Z" fill="#CA9E52"/>
<path d="M32.1351 18.254C33.1985 18.2448 33.0637 19.2919 32.4946 19.8631C31.3351 20.9907 29.765 21.9764 28.291 22.5762C25.9197 23.519 22.9206 23.9631 20.3957 23.3629C16.111 22.3444 13.9069 20.6875 9.2803 20.8581C8.80104 20.8268 8.58012 20.7438 8.35547 20.3585C9.1455 17.6041 17.5601 21.1027 19.2225 21.5579C24.3147 22.9521 28.3959 22.0093 32.1351 18.254Z" fill="#CA9E52"/>
<path d="M8.5544 15.0229C13.9049 14.544 16.1689 16.6827 21.0951 17.7861C22.5229 18.1058 23.8296 17.6955 25.1676 17.9261C25.3922 17.9649 25.557 18.2489 25.6269 18.5054C25.3498 19.1191 24.8418 19.2125 24.254 19.3168C19.188 19.7435 17.2822 17.6835 12.6381 16.6528C11.385 16.3744 9.25456 16.5591 7.94907 16.5006C7.79681 16.379 7.66826 16.2764 7.56467 16.193C7.29758 15.4135 7.90291 15.214 8.5544 15.0229Z" fill="#CA9E52"/>
<path d="M29.4102 24.6357C30.1191 25.0683 29.9631 26.7862 30.833 27.5723C31.3959 28.0813 32.6296 28.1747 32.999 28.7959C32.365 29.4716 30.7973 29.5127 30.3779 30.5312C30.001 31.4447 30.1585 32.0722 29.7129 33.001C29.0627 32.6557 28.9058 31.4205 28.6699 30.7051C28.2531 29.4355 26.3917 29.6077 26.0547 28.6143C26.5629 28.0796 27.8671 27.9974 28.501 27.1104C29.1495 26.2036 28.9124 25.3515 29.4102 24.6357ZM29.4814 26.9561C28.8363 28.0863 28.6741 28.1323 27.4951 28.7139C28.5297 29.2058 29.0116 29.4686 29.542 30.5479C30.081 29.4932 30.268 29.1454 31.4072 28.6514C29.81 27.8015 30.2103 27.5921 29.4814 26.9561Z" fill="#CA9E52"/>
<path d="M8.23047 0C9.12244 0.359696 8.75471 1.64601 9.37988 2.31641C9.90033 2.87428 11.5321 3.32124 11.8604 3.98242C11.1139 5.10791 9.64287 3.47258 8.68945 7.94824C7.6837 8.03372 7.96044 6.42249 7.39551 5.56348C6.8339 4.70845 5.39403 4.51973 5.10938 4.02832C5.38893 3.23155 6.27055 3.29783 6.8584 2.875C7.82067 2.18329 7.9796 1.07274 8.23047 0ZM8.39355 2.12109C7.7322 3.21496 7.52719 3.31627 6.40527 3.9541C7.54103 4.54289 7.87283 4.75202 8.41699 5.95605C9.06099 4.73092 9.25732 4.59192 10.3506 3.7832C9.4271 3.26978 8.95886 3.02377 8.39355 2.12109Z" fill="#CA9E52"/>
<path d="M32.1159 9.1084C32.6825 9.16336 32.4953 9.07723 32.9085 9.37735C33.3103 11.0792 28.9133 14.0513 27.4456 14.5388L26.9514 14.429C26.5732 14.0779 26.6493 14.2468 26.5645 13.7891C26.7854 13.3368 27.2559 13.15 27.7089 12.9056C29.5486 11.911 30.8029 10.745 32.1159 9.1084Z" fill="#CA9E52"/>
<path d="M5.61481 20.1104C6.05913 20.1287 6.15523 20.1652 6.44354 20.4072L6.42981 20.734C5.90062 21.4994 3.65034 22.1189 2.73175 22.6823C2.10521 23.0659 1.6322 23.3702 1.01939 23.8019L0.657442 23.8618C0.199397 23.5847 0.322959 23.7371 0.113281 23.305C0.357905 21.7758 4.26564 20.3965 5.61481 20.1104Z" fill="#CA9E52"/>
</svg>
