<svg width="34" height="34" viewBox="0 0 34 34" fill="none" xmlns="http://www.w3.org/2000/svg">
<path d="M11.389 0.00368566C13.1273 -0.0627989 12.969 0.797903 15.3626 0.353672C17.7548 1.49216 17.9128 2.54691 18.4015 5.05096C19.2039 4.44465 20.0187 4.14749 21.0147 4.158C21.9749 4.1673 22.8913 4.57506 23.5583 5.29003C24.5449 6.35844 24.6549 7.29702 24.6305 8.68554C26.2716 11.2004 26.1434 12.6689 23.7959 14.5462C24.5269 15.4971 24.7287 16.4995 24.4873 17.6748C24.2378 18.8892 23.2972 19.3821 22.3658 19.9756C21.5822 22.6138 21.3189 22.6395 18.8479 22.4475C18.2206 24.4892 17.9164 25.1923 16.1325 26.2547C17.4611 28.0878 17.9863 28.7976 19.6652 30.3119C20.8993 29.259 23.5948 26.0179 24.8083 24.624C24.901 23.9321 24.5545 23.4715 24.4265 22.7627C24.1975 21.4944 24.9308 20.262 25.5594 19.2476C27.2664 18.2865 29.9216 17.3156 31.6718 18.6086C32.4514 19.185 32.9663 20.0687 33.0954 21.0509C33.2944 22.5092 32.8527 23.3172 32.0496 24.4166C30.8076 25.4643 29.6853 25.9784 28.1675 26.4618C27.1259 26.258 26.5716 26.1407 25.6483 25.6049C24.382 27.347 22.3559 29.7506 20.7552 31.1075C21.2967 31.5064 21.6279 31.6614 21.9702 32.2562C22.05 32.8244 22.0797 32.5937 21.8449 33.1278C19.8008 33.464 15.672 28.0591 14.533 26.5352C11.5353 27.2891 9.8282 26.3688 8.69083 23.4649C3.51619 25.6322 -1.28117 18.8134 2.78671 14.645C-0.499332 12.7549 -0.957557 9.62113 1.83037 6.95605C2.2828 3.2089 5.6009 2.63441 8.44207 4.32173C8.59684 1.82564 9.16023 0.93687 11.389 0.00368566ZM9.77511 3.06678C9.74335 3.91682 9.77874 5.22055 9.55434 5.98835L9.33734 6.15358C8.1186 5.94513 6.00125 3.7777 4.06768 5.138C3.29672 5.68038 3.05666 6.79787 2.92858 7.69099C1.46179 8.91487 0.412765 10.476 2.01039 12.3497C3.03969 13.5566 4.26133 13.7234 5.72521 13.9596C3.8868 15.5434 2.71738 15.936 2.48109 18.5344C2.46397 18.7249 2.44888 18.9153 2.43583 19.1061C3.71506 21.2819 5.23319 23.6731 8.0761 22.1171C8.56971 21.8469 9.54491 20.6972 9.90116 20.6633C10.5002 21.73 8.57638 24.3582 12.4757 25.5423C13.8604 25.1791 14.124 25.135 15.5208 25.2012C18.325 23.1438 16.8446 22.0506 17.7035 20.9753C19.1382 20.6853 20.4048 23.1173 21.3173 19.1043C24.9119 17.2349 23.403 15.5614 20.7924 14.0879C23.3291 13.2733 26.2925 12.1387 23.2975 9.17661C23.3405 8.51296 23.4019 7.816 23.3904 7.15325C21.1766 4.4496 19.6277 5.66493 17.3497 7.28667C17.1376 5.3265 17.2245 3.94279 16.1863 2.25816C15.1827 1.70813 15.0645 1.59062 13.9969 1.93249C13.8983 1.96431 13.7999 1.99718 13.702 2.03109C12.8359 1.60487 12.4599 1.32092 11.5107 1.36085C10.6026 1.90263 10.3426 2.08662 9.77511 3.06678ZM27.5545 19.6319C24.8125 21.4371 25.2521 25.1056 28.1298 25.1119C28.8365 24.8276 29.1981 24.6777 29.8513 24.2907C32.6758 23.4649 30.4484 17.3829 27.5545 19.6319Z" fill="#CA9E52"/>
<path d="M13.3425 8.43555C14.7987 8.98303 13.989 10.7481 13.6826 12.0193C14.6718 11.5569 16.6005 10.6184 17.4974 11.7042L17.4017 12.0271C16.454 12.8724 15.3596 12.837 14.1052 12.9952C14.6829 13.8616 15.961 15.5856 15.6845 16.6254C15.3039 16.9241 15.5103 16.8584 15.0519 16.854C14.8394 16.6652 13.6881 14.5406 13.2099 13.8682C11.9327 14.0154 11.974 16.6052 10.4105 16.4715C9.4269 15.2952 11.37 13.7515 12.1555 12.9518C11.1713 12.5426 9.57138 12.3523 9.10547 11.4548C9.13825 10.931 9.06021 11.1227 9.39717 10.7335C10.3389 10.4877 11.7379 11.5815 12.7785 12.1191C12.9022 10.8296 12.5921 9.36348 13.3425 8.43555Z" fill="#CA9E52"/>
</svg>
