<svg width="25" height="29" viewBox="0 0 25 29" fill="none" xmlns="http://www.w3.org/2000/svg">
<path d="M6.84866 23.7143C4.04077 21.6046 3.1404 17.8886 4.33676 14.759C5.5625 11.5529 7.62136 8.5312 9.16939 5.44273C10.0311 3.79296 11.049 1.76088 12.0661 0.186946C12.1905 -0.00679312 12.3182 0.0261563 12.5559 0C12.7716 0.0792799 12.9357 0.174882 13.0391 0.379671C15.1987 4.62196 17.6246 8.74066 19.738 13.0036C21.5795 16.7176 21.7159 20.9398 18.022 23.7354C15.1613 25.5629 11.0953 25.767 8.01299 24.2673C7.6164 24.0744 7.26022 23.8876 6.84866 23.7143ZM12.6253 24.3111C14.7375 24.118 16.5625 23.7789 17.9978 22.1181C22.3444 17.092 17.1095 11.2034 14.8949 6.41822C14.4722 5.50336 12.9522 2.50695 12.4502 1.86997C11.2142 4.33079 9.84026 6.72683 8.56246 9.16068C6.7813 12.5534 4.08073 16.3448 5.68831 20.2352C6.91515 23.2043 9.40636 24.1555 12.6253 24.3111Z" fill="#CA9E52"/>
<path d="M21.451 24.3533C22.3502 24.5639 24.5836 24.9656 24.9534 25.848C25.2869 26.8253 23.7481 27.6323 22.9545 27.8581C18.4229 29.1439 13.5006 29.0982 8.79224 28.8791C6.75649 28.7844 1.96613 28.2621 0.434395 26.8921C-1.35579 25.2908 2.89898 24.5267 3.93793 24.2705L4.02972 24.3395C4.29114 24.5384 4.40936 24.5891 4.47881 24.8859C4.10149 25.7458 1.79773 25.3866 1.11903 26.1014C1.42338 28.3407 21.429 28.9056 23.9198 26.2391L23.9617 26.0266C23.2363 25.2725 20.6078 25.7567 20.5319 24.7263C20.7828 24.3999 21.0228 24.4005 21.451 24.3533Z" fill="#CA9E52"/>
</svg>
