<svg width="34" height="34" viewBox="0 0 34 34" fill="none" xmlns="http://www.w3.org/2000/svg">
<path d="M10.757 22.1133C10.757 22.536 10.9249 22.9413 11.2237 23.2402C11.5226 23.5391 11.928 23.707 12.3507 23.707C12.7734 23.707 13.1788 23.5391 13.4777 23.2402C13.7765 22.9413 13.9445 22.536 13.9445 22.1133C13.9445 21.6906 13.7765 21.2852 13.4777 20.9863C13.1788 20.6874 12.7734 20.5195 12.3507 20.5195C11.928 20.5195 11.5226 20.6874 11.2237 20.9863C10.9249 21.2852 10.757 21.6906 10.757 22.1133ZM31.2333 11.8336L22.1655 2.7625C21.7538 2.3541 21.206 2.125 20.6216 2.125C20.0372 2.125 19.4894 2.35078 19.0777 2.7625L2.76496 19.0752C2.35519 19.4852 2.125 20.0411 2.125 20.6208C2.125 21.2005 2.35519 21.7564 2.76496 22.1664L11.8361 31.2375C12.2445 31.6459 12.7956 31.875 13.38 31.875C13.9644 31.875 14.5122 31.6492 14.9239 31.2375L31.2366 14.9248C32.0866 14.0715 32.0866 12.6836 31.2333 11.8336ZM13.38 29.2221L4.77707 20.6191L20.6216 4.77461L29.2212 13.3809L13.38 29.2221ZM5.07258 12.408C5.09695 12.4325 5.12592 12.4519 5.15783 12.4652C5.18974 12.4785 5.22396 12.4853 5.25851 12.4853C5.29307 12.4853 5.32728 12.4785 5.35919 12.4652C5.3911 12.4519 5.42008 12.4325 5.44445 12.408L12.4071 5.44531C12.4316 5.42094 12.4511 5.39196 12.4643 5.36006C12.4776 5.32815 12.4844 5.29393 12.4844 5.25937C12.4844 5.22482 12.4776 5.1906 12.4643 5.15869C12.4511 5.12679 12.4316 5.09781 12.4071 5.07344L11.1321 3.79844C11.1078 3.77394 11.0788 3.7545 11.0469 3.74124C11.015 3.72798 10.9808 3.72115 10.9462 3.72115C10.9117 3.72115 10.8774 3.72798 10.8455 3.74124C10.8136 3.7545 10.7846 3.77394 10.7603 3.79844L3.79426 10.7545C3.76976 10.7789 3.75032 10.8078 3.73706 10.8397C3.72379 10.8717 3.71697 10.9059 3.71697 10.9404C3.71697 10.975 3.72379 11.0092 3.73706 11.0411C3.75032 11.073 3.76976 11.102 3.79426 11.1264L5.07258 12.408ZM28.9323 21.592C28.908 21.5675 28.879 21.5481 28.8471 21.5348C28.8152 21.5215 28.781 21.5147 28.7464 21.5147C28.7118 21.5147 28.6776 21.5215 28.6457 21.5348C28.6138 21.5481 28.5848 21.5675 28.5605 21.592L21.5911 28.558C21.5666 28.5824 21.5472 28.6114 21.5339 28.6433C21.5207 28.6752 21.5138 28.7094 21.5138 28.7439C21.5138 28.7785 21.5207 28.8127 21.5339 28.8446C21.5472 28.8765 21.5666 28.9055 21.5911 28.9299L22.8661 30.2049C22.8905 30.2294 22.9195 30.2488 22.9514 30.2621C22.9833 30.2753 23.0175 30.2822 23.0521 30.2822C23.0866 30.2822 23.1208 30.2753 23.1528 30.2621C23.1847 30.2488 23.2136 30.2294 23.238 30.2049L30.204 23.2422C30.2285 23.2178 30.248 23.1888 30.2612 23.1569C30.2745 23.125 30.2813 23.0908 30.2813 23.0563C30.2813 23.0217 30.2745 22.9875 30.2612 22.9556C30.248 22.9237 30.2285 22.8947 30.204 22.8703L28.9323 21.592Z" fill="#8C8C8C"/>
</svg>
