<svg width="24" height="24" viewBox="0 0 24 24" fill="none" xmlns="http://www.w3.org/2000/svg">
<path d="M16.5005 15.1875C15.9996 15.1873 15.5042 15.293 15.047 15.4977C14.5897 15.7024 14.1809 16.0015 13.8474 16.3753L9.26303 13.4287C9.46088 12.9784 9.56303 12.4918 9.56303 12C9.56303 11.5081 9.46088 11.0215 9.26303 10.5712L13.8474 7.62464C14.4455 8.29178 15.273 8.70906 16.165 8.7933C17.057 8.87755 17.948 8.62258 18.6605 8.07922C19.3729 7.53585 19.8544 6.74399 20.009 5.86145C20.1637 4.97891 19.9801 4.07051 19.4949 3.31729C19.0096 2.56407 18.2584 2.02134 17.3909 1.79728C16.5234 1.57322 15.6033 1.68427 14.814 2.10831C14.0247 2.53235 13.4242 3.23823 13.1321 4.08527C12.84 4.93231 12.8778 5.85831 13.238 6.67871L8.65366 9.62527C8.1727 9.08741 7.53976 8.70828 6.8386 8.53804C6.13744 8.3678 5.40111 8.41447 4.72706 8.67189C4.05301 8.92931 3.47302 9.38534 3.06383 9.97962C2.65464 10.5739 2.43555 11.2784 2.43555 12C2.43555 12.7215 2.65464 13.426 3.06383 14.0203C3.47302 14.6146 4.05301 15.0706 4.72706 15.328C5.40111 15.5854 6.13744 15.6321 6.8386 15.4619C7.53976 15.2916 8.1727 14.9125 8.65366 14.3746L13.238 17.3212C12.9303 18.0242 12.8577 18.8077 13.0312 19.5552C13.2046 20.3027 13.6148 20.9742 14.2006 21.4698C14.7865 21.9654 15.5167 22.2586 16.2826 22.3057C17.0486 22.3529 17.8092 22.1514 18.4514 21.7314C19.0936 21.3114 19.5831 20.6952 19.8469 19.9747C20.1107 19.2541 20.1347 18.4675 19.9155 17.7322C19.6963 16.9968 19.2454 16.3519 18.6301 15.8933C18.0148 15.4348 17.2679 15.1873 16.5005 15.1875ZM16.5005 2.81246C16.9826 2.81246 17.4539 2.95541 17.8547 3.22325C18.2556 3.49109 18.568 3.87177 18.7525 4.31717C18.937 4.76256 18.9852 5.25266 18.8912 5.72549C18.7971 6.19832 18.565 6.63264 18.2241 6.97353C17.8832 7.31442 17.4489 7.54657 16.9761 7.64062C16.5032 7.73467 16.0131 7.6864 15.5677 7.50191C15.1223 7.31742 14.7417 7.005 14.4738 6.60416C14.206 6.20331 14.063 5.73205 14.063 5.24996C14.063 4.60349 14.3198 3.9835 14.777 3.52638C15.2341 3.06926 15.8541 2.81246 16.5005 2.81246ZM6.00053 14.4375C5.51844 14.4375 5.04717 14.2945 4.64633 14.0267C4.24548 13.7588 3.93306 13.3781 3.74858 12.9327C3.56409 12.4874 3.51582 11.9973 3.60987 11.5244C3.70392 11.0516 3.93607 10.6173 4.27696 10.2764C4.61785 9.93549 5.05217 9.70334 5.525 9.60929C5.99783 9.51524 6.48793 9.56351 6.93332 9.748C7.37872 9.93249 7.7594 10.2449 8.02724 10.6458C8.29508 11.0466 8.43803 11.5179 8.43803 12C8.43803 12.6464 8.18122 13.2664 7.7241 13.7235C7.26698 14.1806 6.647 14.4375 6.00053 14.4375ZM16.5005 21.1875C16.0184 21.1875 15.5472 21.0445 15.1463 20.7767C14.7455 20.5088 14.4331 20.1281 14.2486 19.6827C14.0641 19.2374 14.0158 18.7473 14.1099 18.2744C14.2039 17.8016 14.4361 17.3673 14.777 17.0264C15.1178 16.6855 15.5522 16.4533 16.025 16.3593C16.4978 16.2652 16.9879 16.3135 17.4333 16.498C17.8787 16.6825 18.2594 16.9949 18.5272 17.3958C18.7951 17.7966 18.938 18.2679 18.938 18.75C18.938 19.0701 18.875 19.387 18.7525 19.6827C18.63 19.9785 18.4504 20.2472 18.2241 20.4735C17.9978 20.6999 17.7291 20.8794 17.4333 21.0019C17.1376 21.1244 16.8206 21.1875 16.5005 21.1875Z" fill="#CA804F"/>
</svg>
