<svg width="15" height="14" viewBox="0 0 15 14" fill="none" xmlns="http://www.w3.org/2000/svg">
<path d="M12.9343 6.40524L10.4733 8.52875L11.2231 11.7045C11.2645 11.8768 11.2538 12.0576 11.1925 12.224C11.1312 12.3903 11.0219 12.5348 10.8785 12.639C10.7352 12.7433 10.5641 12.8028 10.387 12.8099C10.2098 12.817 10.0345 12.7714 9.88327 12.679L7.12155 10.9793L4.35819 12.679C4.20694 12.7709 4.03187 12.816 3.85503 12.8087C3.67819 12.8013 3.50748 12.7418 3.36441 12.6376C3.22133 12.5334 3.11228 12.3892 3.051 12.2231C2.98971 12.0571 2.97892 11.8766 3.01999 11.7045L3.77249 8.52875L1.31155 6.40524C1.17773 6.28958 1.08094 6.13706 1.03329 5.96672C0.985632 5.79639 0.989214 5.61579 1.04359 5.44748C1.09796 5.27917 1.20071 5.1306 1.33902 5.02034C1.47732 4.91008 1.64504 4.84301 1.82124 4.8275L5.0478 4.56719L6.29249 1.555C6.35986 1.39084 6.47452 1.25042 6.62191 1.15159C6.76929 1.05277 6.94273 1 7.12018 1C7.29763 1 7.47107 1.05277 7.61845 1.15159C7.76584 1.25042 7.8805 1.39084 7.94788 1.555L9.19202 4.56719L12.4186 4.8275C12.5951 4.84243 12.7633 4.90913 12.9021 5.01924C13.0409 5.12935 13.1442 5.27797 13.1989 5.44649C13.2536 5.615 13.2574 5.79591 13.2097 5.96656C13.1621 6.13721 13.0651 6.28999 12.931 6.40578L12.9343 6.40524Z" fill="#FFC45F"/>
</svg>
