<svg width="36" height="36" viewBox="0 0 36 36" fill="none" xmlns="http://www.w3.org/2000/svg">
<path d="M17.1562 5.625V2.25C17.1562 2.02622 17.2451 1.81161 17.4034 1.65338C17.5616 1.49514 17.7762 1.40625 18 1.40625C18.2238 1.40625 18.4384 1.49514 18.5966 1.65338C18.7549 1.81161 18.8438 2.02622 18.8438 2.25V5.625C18.8438 5.84878 18.7549 6.06339 18.5966 6.22162C18.4384 6.37986 18.2238 6.46875 18 6.46875C17.7762 6.46875 17.5616 6.37986 17.4034 6.22162C17.2451 6.06339 17.1562 5.84878 17.1562 5.625ZM26.7188 18C26.7188 19.7244 26.2074 21.4101 25.2494 22.8439C24.2913 24.2777 22.9297 25.3952 21.3365 26.0551C19.7434 26.715 17.9903 26.8876 16.2991 26.5512C14.6078 26.2148 13.0543 25.3844 11.8349 24.1651C10.6156 22.9457 9.78519 21.3922 9.44878 19.7009C9.11236 18.0097 9.28502 16.2566 9.94493 14.6635C10.6048 13.0703 11.7223 11.7087 13.1561 10.7506C14.5899 9.7926 16.2756 9.28125 18 9.28125C20.3116 9.28386 22.5277 10.2033 24.1622 11.8378C25.7967 13.4723 26.7161 15.6884 26.7188 18ZM25.0312 18C25.0312 16.6094 24.6189 15.2499 23.8463 14.0936C23.0737 12.9374 21.9755 12.0362 20.6907 11.504C19.406 10.9718 17.9922 10.8326 16.6283 11.1039C15.2643 11.3752 14.0115 12.0448 13.0282 13.0282C12.0448 14.0115 11.3752 15.2643 11.1039 16.6283C10.8326 17.9922 10.9718 19.406 11.504 20.6907C12.0362 21.9755 12.9374 23.0737 14.0936 23.8463C15.2499 24.6189 16.6094 25.0312 18 25.0312C19.8641 25.029 21.6512 24.2875 22.9694 22.9694C24.2875 21.6512 25.029 19.8641 25.0312 18ZM8.40375 9.59625C8.48099 9.67915 8.57415 9.74564 8.67764 9.79175C8.78114 9.83787 8.89287 9.86267 9.00616 9.86467C9.11945 9.86666 9.23199 9.84582 9.33705 9.80339C9.44211 9.76095 9.53755 9.69779 9.61767 9.61767C9.69779 9.53755 9.76095 9.44211 9.80339 9.33705C9.84582 9.23199 9.86666 9.11945 9.86467 9.00616C9.86267 8.89287 9.83787 8.78114 9.79175 8.67764C9.74564 8.57415 9.67915 8.48099 9.59625 8.40375L7.34625 6.15375C7.1863 6.00471 6.97475 5.92357 6.75616 5.92743C6.53757 5.93128 6.32901 6.01984 6.17443 6.17443C6.01984 6.32901 5.93128 6.53757 5.92743 6.75616C5.92357 6.97475 6.00471 7.1863 6.15375 7.34625L8.40375 9.59625ZM8.40375 26.4037L6.15375 28.6537C6.07085 28.731 6.00436 28.8241 5.95825 28.9276C5.91213 29.0311 5.88733 29.1429 5.88533 29.2562C5.88334 29.3695 5.90418 29.482 5.94661 29.587C5.98905 29.6921 6.05221 29.7875 6.13233 29.8677C6.21245 29.9478 6.30789 30.011 6.41295 30.0534C6.51801 30.0958 6.63055 30.1167 6.74384 30.1147C6.85713 30.1127 6.96886 30.0879 7.07236 30.0418C7.17585 29.9956 7.26901 29.9291 7.34625 29.8463L9.59625 27.5963C9.67915 27.519 9.74564 27.4259 9.79175 27.3224C9.83787 27.2189 9.86267 27.1071 9.86467 26.9938C9.86666 26.8805 9.84582 26.768 9.80339 26.663C9.76095 26.5579 9.69779 26.4625 9.61767 26.3823C9.53755 26.3022 9.44211 26.239 9.33705 26.1966C9.23199 26.1542 9.11945 26.1333 9.00616 26.1353C8.89287 26.1373 8.78114 26.1621 8.67764 26.2082C8.57415 26.2544 8.48099 26.3209 8.40375 26.4037ZM27 9.84375C27.2237 9.84355 27.4382 9.75453 27.5963 9.59625L29.8463 7.34625C29.9953 7.1863 30.0764 6.97475 30.0726 6.75616C30.0687 6.53757 29.9802 6.32901 29.8256 6.17443C29.671 6.01984 29.4624 5.93128 29.2438 5.92743C29.0252 5.92357 28.8137 6.00471 28.6537 6.15375L26.4037 8.40375C26.2859 8.52175 26.2057 8.67202 26.1732 8.8356C26.1407 8.99917 26.1574 9.1687 26.2212 9.32279C26.285 9.47687 26.393 9.60859 26.5316 9.70132C26.6702 9.79404 26.8332 9.8436 27 9.84375ZM27.5963 26.4037C27.4363 26.2547 27.2248 26.1736 27.0062 26.1774C26.7876 26.1813 26.579 26.2698 26.4244 26.4244C26.2698 26.579 26.1813 26.7876 26.1774 27.0062C26.1736 27.2248 26.2547 27.4363 26.4037 27.5963L28.6537 29.8463C28.8137 29.9953 29.0252 30.0764 29.2438 30.0726C29.4624 30.0687 29.671 29.9802 29.8256 29.8256C29.9802 29.671 30.0687 29.4624 30.0726 29.2438C30.0764 29.0252 29.9953 28.8137 29.8463 28.6537L27.5963 26.4037ZM6.46875 18C6.46875 17.7762 6.37986 17.5616 6.22162 17.4034C6.06339 17.2451 5.84878 17.1562 5.625 17.1562H2.25C2.02622 17.1562 1.81161 17.2451 1.65338 17.4034C1.49514 17.5616 1.40625 17.7762 1.40625 18C1.40625 18.2238 1.49514 18.4384 1.65338 18.5966C1.81161 18.7549 2.02622 18.8438 2.25 18.8438H5.625C5.84878 18.8438 6.06339 18.7549 6.22162 18.5966C6.37986 18.4384 6.46875 18.2238 6.46875 18ZM18 29.5312C17.7762 29.5312 17.5616 29.6201 17.4034 29.7784C17.2451 29.9366 17.1562 30.1512 17.1562 30.375V33.75C17.1562 33.9738 17.2451 34.1884 17.4034 34.3466C17.5616 34.5049 17.7762 34.5938 18 34.5938C18.2238 34.5938 18.4384 34.5049 18.5966 34.3466C18.7549 34.1884 18.8438 33.9738 18.8438 33.75V30.375C18.8438 30.1512 18.7549 29.9366 18.5966 29.7784C18.4384 29.6201 18.2238 29.5312 18 29.5312ZM33.75 17.1562H30.375C30.1512 17.1562 29.9366 17.2451 29.7784 17.4034C29.6201 17.5616 29.5312 17.7762 29.5312 18C29.5312 18.2238 29.6201 18.4384 29.7784 18.5966C29.9366 18.7549 30.1512 18.8438 30.375 18.8438H33.75C33.9738 18.8438 34.1884 18.7549 34.3466 18.5966C34.5049 18.4384 34.5938 18.2238 34.5938 18C34.5938 17.7762 34.5049 17.5616 34.3466 17.4034C34.1884 17.2451 33.9738 17.1562 33.75 17.1562Z" fill="#8C8C8C"/>
</svg>
