<svg width="14" height="14" viewBox="0 0 14 14" fill="none" xmlns="http://www.w3.org/2000/svg">
<path fill-rule="evenodd" clip-rule="evenodd" d="M7.85246 1.26208C7.61694 1.24065 7.37951 1.26718 7.15453 1.34007C6.92955 1.41296 6.72167 1.5307 6.54346 1.68617L6.45596 1.76783L1.89313 6.33125C1.57911 6.64533 1.39626 7.06705 1.38163 7.51095C1.36701 7.95484 1.52171 8.38768 1.81438 8.72175L1.89313 8.80575L5.19304 12.1057C5.50712 12.4197 5.92885 12.6025 6.37274 12.6172C6.81663 12.6318 7.24948 12.4771 7.58354 12.1844L7.66754 12.1057L12.2315 7.54225C12.3987 7.37512 12.5302 7.17586 12.6183 6.9565C12.7063 6.73714 12.749 6.50222 12.7437 6.26592L12.7373 6.14633L12.462 3.12175C12.4266 2.73196 12.2616 2.36526 11.9933 2.08028C11.7251 1.7953 11.369 1.60847 10.982 1.54967L10.8776 1.53742L7.85246 1.26208ZM7.67279 2.42233L7.74688 2.42408L10.7715 2.69942C10.8955 2.71062 11.0127 2.76122 11.1059 2.84383C11.1991 2.92643 11.2634 3.0367 11.2895 3.1585L11.2994 3.22733L11.5747 6.25192C11.588 6.39889 11.545 6.54542 11.4545 6.662L11.4061 6.71742L6.84271 11.2808C6.74226 11.3813 6.60862 11.4416 6.46686 11.4505C6.32509 11.4594 6.18494 11.4163 6.07271 11.3292L6.01788 11.2808L2.71796 7.98092C2.61752 7.88047 2.55719 7.74683 2.54827 7.60506C2.53936 7.4633 2.58248 7.32315 2.66954 7.21092L2.71796 7.15608L7.28138 2.59267C7.38564 2.48847 7.52549 2.42762 7.67279 2.42233ZM9.73079 4.26858C9.56828 4.10607 9.37534 3.97715 9.163 3.8892C8.95067 3.80124 8.72308 3.75598 8.49325 3.75598C8.26342 3.75598 8.03584 3.80124 7.8235 3.8892C7.61116 3.97715 7.41823 4.10607 7.25571 4.26858C7.09319 4.4311 6.96428 4.62403 6.87633 4.83637C6.78837 5.04871 6.7431 5.27629 6.7431 5.50612C6.7431 5.73596 6.78837 5.96354 6.87633 6.17588C6.96428 6.38821 7.09319 6.58115 7.25571 6.74367C7.58393 7.07188 8.02908 7.25627 8.49325 7.25627C8.95742 7.25627 9.40258 7.07188 9.73079 6.74367C10.059 6.41545 10.2434 5.97029 10.2434 5.50612C10.2434 5.04196 10.059 4.5968 9.73079 4.26858ZM8.08054 5.09342C8.1347 5.03922 8.19901 4.99622 8.26978 4.96687C8.34056 4.93753 8.41642 4.92241 8.49304 4.92238C8.56966 4.92235 8.64554 4.93742 8.71634 4.96671C8.78714 4.99601 8.85147 5.03896 8.90567 5.09312C8.95987 5.14728 9.00286 5.21159 9.03221 5.28236C9.06156 5.35314 9.07668 5.42901 9.0767 5.50563C9.07673 5.58225 9.06166 5.65812 9.03237 5.72892C9.00307 5.79972 8.96012 5.86405 8.90596 5.91825C8.79658 6.02771 8.6482 6.08923 8.49346 6.08928C8.33872 6.08934 8.19029 6.02792 8.08083 5.91854C7.97138 5.80916 7.90985 5.66078 7.9098 5.50604C7.90974 5.3513 7.97116 5.20287 8.08054 5.09342Z" fill="#44413F"/>
</svg>
