<svg width="30" height="30" viewBox="0 0 30 30" fill="none" xmlns="http://www.w3.org/2000/svg">
<path d="M26.8056 22.0696L21.1255 14.7665H24.3751C24.5065 14.7666 24.6353 14.7299 24.7469 14.6606C24.8585 14.5912 24.9484 14.492 25.0065 14.3741C25.0646 14.2563 25.0885 14.1245 25.0755 13.9938C25.0625 13.863 25.0131 13.7386 24.9329 13.6344L15.5579 1.44695C15.4923 1.36139 15.4078 1.29208 15.3111 1.24438C15.2144 1.19668 15.108 1.17188 15.0001 1.17188C14.8923 1.17188 14.7859 1.19668 14.6892 1.24438C14.5924 1.29208 14.508 1.36139 14.4423 1.44695L5.06731 13.6344C4.98717 13.7386 4.9378 13.863 4.92479 13.9938C4.91179 14.1245 4.93568 14.2563 4.99376 14.3741C5.05183 14.492 5.14176 14.5912 5.25336 14.6606C5.36495 14.7299 5.49374 14.7666 5.62512 14.7665H8.87473L3.19466 22.0696C3.11395 22.1735 3.06402 22.298 3.05056 22.4289C3.0371 22.5598 3.06065 22.6919 3.11852 22.8101C3.17639 22.9283 3.26626 23.0278 3.37792 23.0975C3.48958 23.1671 3.61853 23.204 3.75012 23.204H14.297V28.1259C14.297 28.3123 14.3711 28.4912 14.5029 28.623C14.6348 28.7549 14.8136 28.829 15.0001 28.829C15.1866 28.829 15.3654 28.7549 15.4973 28.623C15.6292 28.4912 15.7032 28.3123 15.7032 28.1259V23.204H26.2501C26.3817 23.204 26.5107 23.1671 26.6223 23.0975C26.734 23.0278 26.8239 22.9283 26.8817 22.8101C26.9396 22.6919 26.9631 22.5598 26.9497 22.4289C26.9362 22.298 26.8863 22.1735 26.8056 22.0696ZM5.18801 21.7977L10.8681 14.4946C10.9488 14.3907 10.9987 14.2662 11.0122 14.1353C11.0256 14.0044 11.0021 13.8723 10.9442 13.7541C10.8864 13.636 10.7965 13.5364 10.6848 13.4667C10.5732 13.3971 10.4442 13.3602 10.3126 13.3602H7.05364L15.0001 3.02898L22.9466 13.3602H19.6876C19.556 13.3602 19.4271 13.3971 19.3154 13.4667C19.2038 13.5364 19.1139 13.636 19.056 13.7541C18.9981 13.8723 18.9746 14.0044 18.9881 14.1353C19.0015 14.2662 19.0514 14.3907 19.1322 14.4946L24.8122 21.7977H5.18801Z" fill="#44413F"/>
</svg>
