<svg width="30" height="30" viewBox="0 0 30 30" fill="none" xmlns="http://www.w3.org/2000/svg">
<path d="M27.887 14.8603C27.6767 12.4501 26.7951 10.1471 25.342 8.21271C23.889 6.2783 21.9228 4.78995 19.6666 3.91658C17.4103 3.04321 14.9545 2.8198 12.5777 3.27171C10.2009 3.72361 7.99845 4.83274 6.2202 6.4732C3.84588 8.65365 2.37914 11.6478 2.11161 14.8603C2.09195 15.0869 2.11962 15.3151 2.19285 15.5304C2.26608 15.7457 2.38328 15.9434 2.537 16.111C2.69072 16.2786 2.87761 16.4125 3.0858 16.504C3.294 16.5955 3.51895 16.6428 3.74637 16.6427H14.2932V23.4396C14.2932 24.372 14.6636 25.2662 15.3229 25.9255C15.9823 26.5848 16.8765 26.9552 17.8089 26.9552C18.7413 26.9552 19.6355 26.5848 20.2948 25.9255C20.9541 25.2662 21.3245 24.372 21.3245 23.4396C21.3245 23.2531 21.2504 23.0743 21.1186 22.9424C20.9867 22.8106 20.8079 22.7365 20.6214 22.7365C20.4349 22.7365 20.2561 22.8106 20.1242 22.9424C19.9923 23.0743 19.9182 23.2531 19.9182 23.4396C19.9182 23.999 19.696 24.5356 19.3004 24.9312C18.9048 25.3267 18.3683 25.549 17.8089 25.549C17.2494 25.549 16.7129 25.3267 16.3173 24.9312C15.9217 24.5356 15.6995 23.999 15.6995 23.4396V16.6427H26.2464C26.4743 16.6436 26.6999 16.5969 26.9088 16.5058C27.1177 16.4146 27.3053 16.2809 27.4596 16.1132C27.614 15.9455 27.7317 15.7475 27.8053 15.5318C27.8789 15.3161 27.9067 15.0874 27.887 14.8603ZM11.0249 15.2365C11.2229 9.23531 13.9194 5.84273 14.9964 4.72124C16.0745 5.8439 18.7698 9.23648 18.9679 15.2365H11.0249ZM3.57528 15.1603C3.55254 15.136 3.53524 15.1071 3.52453 15.0756C3.51382 15.0441 3.50995 15.0106 3.51317 14.9775C3.73359 12.4077 4.81143 9.98657 6.57354 8.1031C8.33565 6.21964 10.6797 4.98316 13.2292 4.59234C11.8229 6.35015 9.78036 9.80015 9.61629 15.2365H3.74637C3.71415 15.2362 3.68233 15.2293 3.65289 15.2162C3.62345 15.2031 3.59703 15.1841 3.57528 15.1603ZM26.4175 15.1603C26.3957 15.1841 26.3693 15.2031 26.3399 15.2162C26.3104 15.2293 26.2786 15.2362 26.2464 15.2365H20.3765C20.2124 9.80015 18.1722 6.34546 16.7636 4.59234C19.3132 4.98292 21.6576 6.21929 23.4199 8.10278C25.1823 9.98627 26.2603 12.4075 26.4807 14.9775C26.4838 15.0107 26.4798 15.0442 26.4688 15.0757C26.4579 15.1073 26.4404 15.1361 26.4175 15.1603Z" fill="#44413F"/>
</svg>
