<svg width="30" height="30" viewBox="0 0 30 30" fill="none" xmlns="http://www.w3.org/2000/svg">
<path d="M28.4359 16.477C28.3626 16.532 28.2793 16.572 28.1905 16.5947C28.1018 16.6174 28.0095 16.6225 27.9188 16.6095C27.8282 16.5966 27.741 16.5659 27.6622 16.5192C27.5834 16.4726 27.5145 16.4108 27.4596 16.3376C26.8776 15.5553 26.1201 14.9205 25.248 14.4845C24.3759 14.0484 23.4136 13.8232 22.4386 13.8271C22.2536 13.8271 22.0762 13.7536 21.9454 13.6228C21.8147 13.492 21.7412 13.3146 21.7412 13.1297C21.7412 12.9447 21.8147 12.7674 21.9454 12.6366C22.0762 12.5058 22.2536 12.4323 22.4386 12.4323C23.0037 12.4322 23.5575 12.2736 24.0371 11.9745C24.5166 11.6754 24.9027 11.2479 25.1514 10.7404C25.4002 10.2329 25.5016 9.66578 25.4442 9.10353C25.3868 8.54128 25.1729 8.0064 24.8267 7.55962C24.4806 7.11285 24.0161 6.77211 23.486 6.57609C22.9559 6.38007 22.3815 6.33663 21.8279 6.4507C21.2744 6.56478 20.7639 6.8318 20.3546 7.22144C19.9452 7.61108 19.6532 8.10772 19.5119 8.65494C19.4657 8.83404 19.3502 8.98743 19.1909 9.08137C19.0315 9.17532 18.8414 9.20212 18.6623 9.15588C18.4832 9.10964 18.3298 8.99415 18.2359 8.83482C18.1419 8.67548 18.1151 8.48535 18.1614 8.30626C18.3367 7.6245 18.6724 6.99452 19.1405 6.46883C19.6087 5.94313 20.1957 5.53694 20.8527 5.28413C21.5096 5.03131 22.2175 4.93918 22.9173 5.01543C23.6171 5.09167 24.2885 5.33408 24.8756 5.72244C25.4627 6.11081 25.9485 6.63388 26.2924 7.24806C26.6364 7.86224 26.8285 8.54973 26.8529 9.25324C26.8773 9.95675 26.7331 10.6559 26.4325 11.2924C26.1318 11.9289 25.6834 12.4843 25.1246 12.9124C26.4997 13.4255 27.6978 14.3242 28.5754 15.5007C28.6303 15.574 28.6703 15.6574 28.693 15.7461C28.7157 15.8348 28.7208 15.9271 28.7078 16.0178C28.6949 16.1084 28.6642 16.1957 28.6175 16.2745C28.5709 16.3533 28.5092 16.4221 28.4359 16.477ZM22.112 23.9389C22.1578 24.0181 22.1877 24.1057 22.1997 24.1965C22.2117 24.2873 22.2058 24.3796 22.1821 24.4681C22.1585 24.5566 22.1177 24.6396 22.0619 24.7123C22.0062 24.785 21.9367 24.8461 21.8574 24.8919C21.7517 24.9539 21.6313 24.9864 21.5087 24.9861C21.3862 24.9861 21.2659 24.954 21.1598 24.8927C21.0537 24.8315 20.9656 24.7435 20.9044 24.6374C20.2982 23.6103 19.4346 22.7592 18.399 22.1678C17.3634 21.5765 16.1914 21.2655 14.9988 21.2655C13.8063 21.2655 12.6343 21.5765 11.5987 22.1678C10.563 22.7592 9.69949 23.6103 9.09332 24.6374C9.04972 24.7207 8.98972 24.7944 8.91692 24.8539C8.84412 24.9135 8.76002 24.9577 8.66969 24.9839C8.57936 25.0101 8.48467 25.0177 8.3913 25.0064C8.29794 24.9951 8.20783 24.965 8.1264 24.9179C8.04497 24.8708 7.97391 24.8078 7.91748 24.7325C7.86105 24.6573 7.82043 24.5714 7.79805 24.48C7.77568 24.3887 7.77201 24.2938 7.78727 24.2009C7.80254 24.1081 7.83642 24.0194 7.88688 23.94C8.83673 22.308 10.324 21.0566 12.0943 20.3997C11.1272 19.7718 10.3891 18.8481 9.98992 17.7664C9.59077 16.6846 9.55202 15.5029 9.87945 14.3973C10.2069 13.2917 10.8829 12.3216 11.8068 11.6317C12.7306 10.9418 13.8528 10.5691 15.0058 10.5691C16.1588 10.5691 17.281 10.9418 18.2048 11.6317C19.1287 12.3216 19.8047 13.2917 20.1322 14.3973C20.4596 15.5029 20.4208 16.6846 20.0217 17.7664C19.6225 18.8481 18.8844 19.7718 17.9173 20.3997C19.6827 21.0588 21.1651 22.3095 22.112 23.9389ZM15 19.8709C15.7816 19.8709 16.5456 19.6391 17.1955 19.2049C17.8453 18.7707 18.3518 18.1535 18.6509 17.4314C18.95 16.7093 19.0283 15.9148 18.8758 15.1482C18.7233 14.3816 18.347 13.6775 17.7943 13.1249C17.2416 12.5722 16.5375 12.1958 15.7709 12.0434C15.0044 11.8909 14.2098 11.9691 13.4877 12.2682C12.7656 12.5673 12.1485 13.0738 11.7142 13.7237C11.28 14.3735 11.0483 15.1376 11.0483 15.9192C11.0483 16.9672 11.4646 17.9724 12.2057 18.7135C12.9468 19.4545 13.9519 19.8709 15 19.8709ZM8.2588 13.1297C8.2588 12.9447 8.18533 12.7674 8.05455 12.6366C7.92377 12.5058 7.74639 12.4323 7.56144 12.4323C6.99633 12.4322 6.44259 12.2735 5.96311 11.9745C5.48363 11.6754 5.09761 11.2479 4.8489 10.7404C4.60018 10.233 4.49873 9.66598 4.55607 9.10379C4.61341 8.5416 4.82724 8.00675 5.17328 7.55998C5.51932 7.11321 5.9837 6.77242 6.51369 6.57631C7.04368 6.3802 7.61804 6.33662 8.17154 6.45054C8.72505 6.56445 9.23553 6.83129 9.64501 7.22074C10.0545 7.6102 10.3466 8.10667 10.488 8.65378C10.5109 8.74246 10.5511 8.82576 10.6062 8.89893C10.6613 8.97209 10.7302 9.03369 10.8091 9.08021C10.888 9.12673 10.9753 9.15725 11.066 9.17003C11.1567 9.18282 11.249 9.17761 11.3377 9.15472C11.4263 9.13182 11.5096 9.09169 11.5828 9.0366C11.656 8.98151 11.7176 8.91255 11.7641 8.83366C11.8106 8.75476 11.8411 8.66748 11.8539 8.57679C11.8667 8.48609 11.8615 8.39377 11.8386 8.3051C11.6633 7.62334 11.3276 6.99336 10.8595 6.46766C10.3913 5.94197 9.8043 5.53578 9.14734 5.28296C8.49038 5.03015 7.7825 4.93802 7.08271 5.01427C6.38293 5.09051 5.7115 5.33292 5.1244 5.72128C4.53729 6.10965 4.05152 6.63272 3.70757 7.2469C3.36362 7.86107 3.17146 8.54857 3.1471 9.25208C3.12274 9.95558 3.26688 10.6547 3.56753 11.2912C3.86817 11.9277 4.31659 12.4831 4.87542 12.9112C3.50012 13.4247 2.30202 14.3238 1.42463 15.5007C1.36968 15.574 1.3297 15.6574 1.30697 15.7461C1.28425 15.8348 1.27921 15.9271 1.29217 16.0178C1.30512 16.1084 1.3358 16.1957 1.38246 16.2745C1.42912 16.3533 1.49084 16.4221 1.5641 16.477C1.63737 16.532 1.72073 16.572 1.80945 16.5947C1.89816 16.6174 1.99048 16.6225 2.08114 16.6095C2.1718 16.5966 2.25902 16.5659 2.33782 16.5192C2.41663 16.4726 2.48547 16.4108 2.54041 16.3376C3.12237 15.5553 3.8799 14.9205 4.752 14.4845C5.6241 14.0484 6.58641 13.8232 7.56144 13.8271C7.74639 13.8271 7.92377 13.7536 8.05455 13.6228C8.18533 13.492 8.2588 13.3146 8.2588 13.1297Z" fill="#44413F"/>
</svg>
