<svg width="24" height="24" viewBox="0 0 24 24" fill="none" xmlns="http://www.w3.org/2000/svg">
<path d="M18 13.0004L21 16.0004V20.0004C21 20.5308 20.7893 21.0395 20.4142 21.4146C20.0391 21.7897 19.5304 22.0004 19 22.0004H5C4.46957 22.0004 3.96086 21.7897 3.58579 21.4146C3.21071 21.0395 3 20.5308 3 20.0004V16.0004L6 13.0004H6.83L8.83 15.0004H6.78L5 17.0004H19L17.23 15.0004H15.32L17.32 13.0004H18ZM19 20.0004V19.0004H5V20.0004H19ZM11.34 15.0004L6.39 10.0704C6.2973 9.97785 6.22375 9.86796 6.17357 9.74699C6.12339 9.62602 6.09756 9.49633 6.09756 9.36537C6.09756 9.2344 6.12339 9.10471 6.17357 8.98374C6.22375 8.86277 6.2973 8.75288 6.39 8.66037L12.76 2.29037C12.8516 2.19727 12.9609 2.12351 13.0815 2.07346C13.2021 2.02342 13.3315 1.99812 13.4621 1.99905C13.5927 1.99998 13.7218 2.02713 13.8416 2.07889C13.9615 2.13065 14.0698 2.20597 14.16 2.30037L19.11 7.25037C19.5 7.64037 19.5 8.27037 19.11 8.66037L12.75 15.0004C12.6601 15.0976 12.5511 15.1752 12.4298 15.2283C12.3084 15.2814 12.1774 15.3088 12.045 15.3088C11.9126 15.3088 11.7816 15.2814 11.6602 15.2283C11.5389 15.1752 11.4299 15.0976 11.34 15.0004ZM13.46 4.41037L8.5 9.36037L12.05 12.9004L17 7.95037L13.46 4.41037Z" fill="#44413F"/>
</svg>
