<svg width="30" height="30" viewBox="0 0 30 30" fill="none" xmlns="http://www.w3.org/2000/svg">
<path d="M25.8562 20.9222C25.9151 20.9933 25.9595 21.0753 25.9867 21.1636C26.014 21.2518 26.0236 21.3446 26.015 21.4365C26.0064 21.5285 25.9798 21.6178 25.9366 21.6995C25.8935 21.7812 25.8347 21.8535 25.7636 21.9125C23.7866 23.5531 22.0136 24.139 20.4022 24.139C18.2706 24.139 16.4026 23.1242 14.6671 22.182C11.6202 20.5273 8.99053 19.0988 5.13857 22.2992C4.99359 22.4182 4.80725 22.4748 4.62055 22.4564C4.43386 22.4381 4.2621 22.3463 4.14307 22.2013C4.02403 22.0563 3.96747 21.87 3.98582 21.6833C4.00417 21.4966 4.09593 21.3249 4.24092 21.2058C8.82647 17.4031 12.2858 19.2828 15.3374 20.941C18.389 22.5992 21.014 24.0242 24.8659 20.8238C24.9374 20.7652 25.0197 20.7212 25.1081 20.6944C25.1966 20.6676 25.2895 20.6586 25.3814 20.6677C25.4734 20.6769 25.5627 20.704 25.6441 20.7477C25.7256 20.7914 25.7976 20.8507 25.8562 20.9222ZM24.8659 14.2648C21.014 17.4605 18.3831 16.0308 15.3374 14.382C12.2917 12.7332 8.82647 10.8394 4.24092 14.6433C4.09717 14.7624 4.0066 14.9336 3.98913 15.1194C3.97166 15.3053 4.02872 15.4904 4.14775 15.6341C4.26679 15.7779 4.43805 15.8685 4.62387 15.8859C4.80968 15.9034 4.99483 15.8463 5.13857 15.7273C8.99053 12.5316 11.6214 13.9601 14.6671 15.6101C16.4026 16.5476 18.2706 17.5683 20.4022 17.5683C22.0183 17.5683 23.7866 16.9824 25.7636 15.3418C25.9072 15.2227 25.9976 15.0515 26.0149 14.8658C26.0323 14.6801 25.9752 14.4951 25.8562 14.3515C25.7371 14.2079 25.5659 14.1175 25.3802 14.1002C25.1945 14.0828 25.0095 14.1399 24.8659 14.259V14.2648ZM5.13857 9.16012C8.99053 5.96442 11.6214 7.39411 14.6671 9.04293C16.4085 9.99098 18.2706 11.0105 20.4022 11.0105C22.0183 11.0105 23.7866 10.4246 25.7636 8.78395C25.8347 8.72501 25.8935 8.65264 25.9366 8.57098C25.9797 8.48932 26.0064 8.39996 26.0149 8.30801C26.0235 8.21605 26.0139 8.12331 25.9867 8.03507C25.9595 7.94683 25.9151 7.86481 25.8562 7.79372C25.7972 7.72262 25.7248 7.66382 25.6432 7.62069C25.5615 7.57756 25.4722 7.55094 25.3802 7.54234C25.2883 7.53375 25.1955 7.54334 25.1073 7.57059C25.019 7.59784 24.937 7.6422 24.8659 7.70114C21.014 10.8968 18.3831 9.46715 15.3374 7.81833C12.2917 6.1695 8.82647 4.27458 4.24092 8.08083C4.09733 8.19986 4.00691 8.37106 3.98955 8.55677C3.97218 8.74247 4.0293 8.92747 4.14834 9.07106C4.26738 9.21465 4.43858 9.30507 4.62428 9.32243C4.80999 9.33979 4.99498 9.28267 5.13857 9.16364V9.16012Z" fill="#44413F"/>
</svg>
