<svg width="113" height="163" viewBox="0 0 113 163" fill="none" xmlns="http://www.w3.org/2000/svg">
<g filter="url(#filter0_d_3629_1466)">
<path fill-rule="evenodd" clip-rule="evenodd" d="M104.726 36.6358C104.734 36.6421 104.744 36.6456 104.754 36.6456C104.78 36.6456 104.801 36.6664 104.801 36.6922V138.646C104.801 144.168 100.324 148.646 94.8008 148.646H17.8008C12.2779 148.646 7.80078 144.168 7.80078 138.646V36.7037C7.80078 36.6716 7.82683 36.6456 7.85896 36.6456C7.87189 36.6456 7.88445 36.6413 7.89466 36.6333L50.0335 3.90232C53.6332 1.10632 58.668 1.09822 62.2767 3.8826L104.726 36.6358ZM56.3018 16.8418C53.0921 16.8419 50.4902 19.4437 50.4902 22.6534C50.4904 25.8628 53.0923 28.4649 56.3018 28.4649C59.5113 28.4649 62.1131 25.8628 62.1133 22.6534C62.1133 19.4437 59.5114 16.8418 56.3018 16.8418Z" fill="#D9D9D9"/>
<path fill-rule="evenodd" clip-rule="evenodd" d="M104.726 36.6358C104.734 36.6421 104.744 36.6456 104.754 36.6456C104.78 36.6456 104.801 36.6664 104.801 36.6922V138.646C104.801 144.168 100.324 148.646 94.8008 148.646H17.8008C12.2779 148.646 7.80078 144.168 7.80078 138.646V36.7037C7.80078 36.6716 7.82683 36.6456 7.85896 36.6456C7.87189 36.6456 7.88445 36.6413 7.89466 36.6333L50.0335 3.90232C53.6332 1.10632 58.668 1.09822 62.2767 3.8826L104.726 36.6358ZM56.3018 16.8418C53.0921 16.8419 50.4902 19.4437 50.4902 22.6534C50.4904 25.8628 53.0923 28.4649 56.3018 28.4649C59.5113 28.4649 62.1131 25.8628 62.1133 22.6534C62.1133 19.4437 59.5114 16.8418 56.3018 16.8418Z" fill="#FBF7F2"/>
</g>
<defs>
<filter id="filter0_d_3629_1466" x="0.000781059" y="-0.000195503" width="112.6" height="162.446" filterUnits="userSpaceOnUse" color-interpolation-filters="sRGB">
<feFlood flood-opacity="0" result="BackgroundImageFix"/>
<feColorMatrix in="SourceAlpha" type="matrix" values="0 0 0 0 0 0 0 0 0 0 0 0 0 0 0 0 0 0 127 0" result="hardAlpha"/>
<feOffset dy="6"/>
<feGaussianBlur stdDeviation="3.9"/>
<feComposite in2="hardAlpha" operator="out"/>
<feColorMatrix type="matrix" values="0 0 0 0 0.883013 0 0 0 0 0.817514 0 0 0 0 0.730184 0 0 0 1 0"/>
<feBlend mode="normal" in2="BackgroundImageFix" result="effect1_dropShadow_3629_1466"/>
<feBlend mode="normal" in="SourceGraphic" in2="effect1_dropShadow_3629_1466" result="shape"/>
</filter>
</defs>
</svg>
