<svg width="20" height="20" viewBox="0 0 20 20" fill="none" xmlns="http://www.w3.org/2000/svg">
<path d="M15.8916 8.14297L14.1908 2.36719C14.1621 2.27024 14.1029 2.18515 14.022 2.12461C13.941 2.06407 13.8426 2.03132 13.7416 2.03125H6.25874C6.15765 2.03132 6.05929 2.06407 5.97833 2.12461C5.89738 2.18515 5.83816 2.27024 5.80952 2.36719L4.10874 8.14297C3.8502 9.00055 3.8366 9.91335 4.0695 10.7782C4.30239 11.6432 4.7725 12.4257 5.42671 13.0375C6.54793 14.0889 7.99795 14.7206 9.5314 14.8258V18.2812H6.87515C6.75083 18.2812 6.6316 18.3306 6.54369 18.4185C6.45578 18.5065 6.4064 18.6257 6.4064 18.75C6.4064 18.8743 6.45578 18.9935 6.54369 19.0815C6.6316 19.1694 6.75083 19.2188 6.87515 19.2188H13.1251C13.2495 19.2188 13.3687 19.1694 13.4566 19.0815C13.5445 18.9935 13.5939 18.8743 13.5939 18.75C13.5939 18.6257 13.5445 18.5065 13.4566 18.4185C13.3687 18.3306 13.2495 18.2812 13.1251 18.2812H10.4689V14.8258C12.0023 14.7204 13.4523 14.0887 14.5736 13.0375C15.2278 12.4257 15.6979 11.6432 15.9308 10.7782C16.1637 9.91335 16.1501 9.00055 15.8916 8.14297ZM6.60952 2.96875H13.3908L14.9931 8.40859C15.0134 8.47891 15.0322 8.54922 15.0486 8.61953C13.2876 9.32812 11.2853 8.5625 10.2119 8.01953C8.13296 6.96641 6.52202 6.90156 5.37749 7.15L6.60952 2.96875ZM13.9337 12.3523C12.8673 13.3508 11.4611 13.9064 10.0001 13.9064C8.53924 13.9064 7.133 13.3508 6.06655 12.3523C5.53982 11.8591 5.16148 11.2285 4.97428 10.5316C4.78708 9.8347 4.79848 9.09935 5.00718 8.40859L5.06499 8.2125C6.02905 7.86406 7.5853 7.73984 9.78843 8.85547C10.6478 9.28906 12.0267 9.84297 13.5009 9.84297C14.0635 9.84672 14.6228 9.75776 15.1564 9.57969C15.151 10.1006 15.0399 10.6149 14.8297 11.0915C14.6195 11.5681 14.3147 11.9971 13.9337 12.3523Z" fill="#CA804F"/>
</svg>
