<svg width="22" height="22" viewBox="0 0 22 22" fill="none" xmlns="http://www.w3.org/2000/svg">
<g clip-path="url(#clip0_4046_1657)">
<rect width="22" height="22" rx="11" fill="#D85E48"/>
<path d="M12.3125 17.75C12.3125 18.0096 12.2355 18.2633 12.0913 18.4792C11.9471 18.695 11.7421 18.8633 11.5023 18.9626C11.2624 19.0619 10.9985 19.0879 10.7439 19.0373C10.4893 18.9866 10.2555 18.8616 10.0719 18.6781C9.88837 18.4945 9.76336 18.2607 9.71272 18.0061C9.66208 17.7515 9.68807 17.4876 9.78741 17.2477C9.88675 17.0079 10.055 16.8029 10.2708 16.6587C10.4867 16.5145 10.7404 16.4375 11 16.4375C11.3481 16.4375 11.6819 16.5758 11.9281 16.8219C12.1742 17.0681 12.3125 17.4019 12.3125 17.75ZM11 13.8125C11.1492 13.8125 11.2923 13.7532 11.3977 13.6477C11.5032 13.5423 11.5625 13.3992 11.5625 13.25V3.5C11.5625 3.35082 11.5032 3.20774 11.3977 3.10225C11.2923 2.99676 11.1492 2.9375 11 2.9375C10.8508 2.9375 10.7077 2.99676 10.6023 3.10225C10.4968 3.20774 10.4375 3.35082 10.4375 3.5V13.25C10.4375 13.3992 10.4968 13.5423 10.6023 13.6477C10.7077 13.7532 10.8508 13.8125 11 13.8125Z" fill="#FDFDFD"/>
</g>
<defs>
<clipPath id="clip0_4046_1657">
<rect width="22" height="22" rx="11" fill="white"/>
</clipPath>
</defs>
</svg>
