<svg width="66" height="41" viewBox="0 0 66 41" fill="none" xmlns="http://www.w3.org/2000/svg">
<g clip-path="url(#clip0_3063_1093)">
<path fill-rule="evenodd" clip-rule="evenodd" d="M42.0117 0C43.7606 0.212588 45.0519 3.61757 45.4804 5.09668C46.0846 4.45861 47.9447 3.30171 48.8105 3.27148C50.9766 3.19596 50.6595 7.30926 50.6533 8.75C50.7552 8.70636 50.8582 8.66531 50.9619 8.62598C51.9364 8.25722 54.0127 7.58341 54.9082 8.09473C56.7023 9.11998 54.9448 13.277 54.2353 14.499C55.0548 14.5576 56.8712 14.8206 57.5498 15.2881C58.5694 15.9909 57.5005 17.1475 56.9785 17.8047C57.8597 18.1854 59.4923 19.0124 59.3642 20.1631C59.305 20.6956 58.7001 21.0163 58.2881 21.2891C59.7102 21.9277 61.7001 23.1157 61.9267 24.8184C62.8158 31.4972 61.5025 34.3037 54.7099 35.7285C55.1926 39.7339 53.8648 39.9982 50.1992 39.8955C47.5533 39.8214 46.9162 39.9685 46.5381 37.2471C41.9884 37.5421 37.3023 37.8475 32.7578 37.8838C27.2906 37.8764 21.8256 37.6533 16.3759 37.2158C15.4068 40.4697 14.641 39.8515 11.5742 39.8711C7.90195 39.8944 7.77557 39.1432 7.90426 35.7861C4.13146 34.9454 0.374922 33.5177 0.0566047 29.2725C0.0013174 28.5352 -0.130575 27.3233 0.387659 26.7412C0.55509 26.5538 0.793556 26.4443 1.04489 26.4404C1.44968 26.4305 1.54437 26.5282 1.79098 26.7568C1.95261 27.2254 1.81334 27.6932 1.76559 28.1709C1.64971 29.3286 1.85066 30.6857 2.61325 31.5977C4.70002 34.0926 12.637 35.1438 15.8076 35.4434C20.1192 35.8506 24.5319 36.2001 28.8613 36.2871C35.1116 36.4128 54.5525 36.0382 59.2275 32.083C60.3476 31.1354 60.5495 30.108 60.667 28.7207C53.1766 32.9032 43.1618 32.8522 34.75 33.4346C30.374 33.7376 5.02948 32.5944 3.00289 29.3818C2.94173 28.9713 2.94329 28.9226 3.15133 28.5654C4.08114 27.8301 6.57598 29.2747 7.79586 29.5342C10.8459 30.1827 14.026 30.7746 17.1338 31.0107C18.1973 31.2087 19.412 31.2132 20.4961 31.3154C29.7742 32.1907 48.2595 32.0797 56.8642 28.7539C58.0334 28.302 60.0435 27.3236 60.5215 26.0947C60.651 25.7611 60.5994 25.5065 60.458 25.1914C59.7712 23.6627 58.0871 22.8946 56.6093 22.3467C55.3024 22.6681 53.9558 22.8007 52.6113 22.7402C51.761 22.7033 50.682 22.5435 49.8164 22.583C49.558 22.5948 49.4781 23.4006 49.2646 23.7012C47.1748 26.9558 44.1711 25.9853 41.0488 26.1367C41.0611 26.1362 39.3295 28.6992 37.955 28.9326C36.2336 29.2251 34.8825 29.2898 33.0898 29.043C29.9939 28.6166 26.9902 27.7525 23.9287 27.1445C22.156 26.689 14.0851 25.6244 13.7851 24.2021C14.5651 22.9597 18.5357 24.2761 19.873 24.5713C22.7972 25.2289 25.7275 25.8606 28.663 26.4658C30.6374 26.867 33.0397 27.4762 35.0175 27.4561C42.9406 27.3747 38.851 20.9232 35.832 17.833C35.6396 18.1432 35.4428 18.451 35.2422 18.7559C33.7205 21.062 31.9846 22.9194 29.8496 24.6494C29.2967 25.0974 28.8579 25.5782 28.1992 25.0566C28.1542 24.7382 28.1421 24.4615 28.4043 24.2246C31.0166 21.8633 33.2092 20.2138 34.6591 16.8008C32.5867 15.3303 30.8634 14.1604 28.4873 13.1572C28.0511 14.1949 27.3079 15.1262 26.833 16.0859C26.2759 17.2118 20.6451 23.9445 19.3613 22.9844C19.2378 22.5683 19.2732 22.1654 19.624 21.8936C23.1217 19.1836 25.2117 16.5095 27.2295 12.5342C25.5682 11.7957 23.8097 11.206 22.0752 10.7158C20.5092 10.2786 18.9393 10.0085 17.8144 11.4736C16.436 13.2688 15.6263 15.4572 14.2451 17.2646C13.6917 17.9888 13.1005 18.9127 12.2216 19.2432C11.8602 19.1963 11.8025 19.1505 11.4882 18.96C11.0753 17.8158 13.2285 15.8578 13.83 14.7959C16.8585 9.44936 17.7297 7.04022 24.3447 9.68555C26.0518 4.98941 29.2563 4.60241 33.289 6.49902C33.7577 6.7195 34.555 7.06039 35.0693 6.95312C35.2769 6.36873 35.4844 5.86338 35.7246 5.2959C36.3129 5.38301 36.8246 5.52139 37.3974 5.66797C38.0878 3.31295 39.7121 0.993105 42.0117 0ZM9.457 38.1357C10.7211 38.1427 13.3236 38.2305 14.4834 38.126C14.54 37.7138 14.6558 37.318 14.4726 36.9746C13.6776 36.7036 10.4253 36.3447 9.4111 36.2148L9.457 38.1357ZM52.7441 36.3438C51.1705 36.4639 49.5893 36.7265 48.0273 36.9609C48.1009 37.3979 48.093 37.8479 48.3662 38.1162L48.5156 38.1377C50.0421 38.1333 51.6996 38.1645 53.2119 38.042C53.2257 37.564 53.3017 36.8009 53.122 36.3896C52.9599 36.3361 52.9027 36.2934 52.7441 36.3438ZM6.02145 16.3926C8.67614 16.4306 8.68831 19.0763 10.9736 20.0996C12.3862 20.7322 12.8708 23.464 11.8193 24.7227C10.6986 26.0636 9.89062 26.3415 8.20016 26.6543C5.89393 26.7561 2.00766 26.4885 1.70309 23.2285C1.49853 21.0363 3.84675 20.0909 4.93063 18.6738C5.39331 18.0689 5.36518 17.0723 6.02145 16.3926ZM6.8486 18.1982C6.66143 18.7486 6.54022 19.0795 6.2441 19.5381C5.53759 20.6322 2.72938 22.1958 3.63571 23.7529C4.84588 25.8321 8.67008 25.314 10.2714 24.1523C11.4713 22.8138 10.5858 21.8981 9.50778 20.9268C8.88593 21.8743 7.9753 23.0731 6.66793 22.8887C6.28345 22.604 6.401 22.7616 6.25094 22.2627C6.5954 21.0541 8.89004 21.0886 7.64645 19.0127C7.45573 18.6942 7.2285 18.2864 6.8486 18.1982ZM28.6748 7.16699C27.0097 8.08465 26.796 8.53619 25.8105 10.1641C30.6583 11.7782 37.7656 15.9432 40.0957 20.6172C40.6523 21.7337 41.083 23.195 41.3672 24.417C43.275 24.5526 45.5542 24.8414 47.1318 23.4912C47.6899 23.0227 48.0323 22.3461 48.08 21.6191C48.195 20.0429 47.0274 17.7917 46.0566 16.5967C45.6006 16.0798 45.1594 15.5772 44.6816 15.0791C44.1037 16.133 41.9696 19.5929 40.7099 19.6836C40.0566 19.2023 40.5201 18.5141 40.9248 18.0371C42.0407 16.7216 42.8496 15.7383 43.5693 14.1523C41.9415 12.6817 39.5214 11.1937 37.5332 10.2383C36.8924 11.1849 35.5137 14.0109 34.2773 13.5576C33.7959 12.8273 35.7705 10.4556 36.2431 9.44629C34.4109 8.71708 30.5204 7.10857 28.6748 7.16699ZM41.8281 2.05859C39.3326 3.97923 39.3107 6.07737 38 7.4502C37.4378 7.27863 35.9597 6.70498 35.4531 7.00488L35.4267 7.19043C35.7339 7.46595 35.8565 7.45182 36.1943 7.61133C41.6056 10.1673 48.678 14.5285 49.7509 20.8223C52.1062 21.1893 54.9582 21.525 57.0371 20.0967L57.2343 19.9141C57.051 19.4089 56.4193 19.2086 55.9121 18.9717L54.8789 18.4941C55.2029 17.5594 55.3796 17.0913 55.832 16.2168C54.8723 16.2225 52.8139 16.2888 51.998 15.9746C51.8705 15.8318 51.7387 15.7565 51.7597 15.5654C51.8239 14.9894 52.4124 14.1853 52.7265 13.7129C53.5719 12.4421 53.867 11.0174 54.2099 9.55957C53.1902 9.73474 49.4929 10.9947 48.9433 10.6689C48.792 10.2071 48.9546 9.01198 48.9931 8.47168C49.0822 7.22441 49.0063 6.20992 48.8037 4.97363C48.2371 5.25926 47.7681 5.49222 47.2382 5.84473C46.5503 6.30263 45.4532 7.31038 44.7695 7.61426C44.1035 7.2889 43.5651 3.58898 42.1914 2.16699L41.8281 2.05859Z" fill="#EAAB80"/>
</g>
<defs>
<clipPath id="clip0_3063_1093">
<rect width="65.6" height="41" fill="white"/>
</clipPath>
</defs>
</svg>
