<svg width="66" height="41" viewBox="0 0 66 41" fill="none" xmlns="http://www.w3.org/2000/svg">
<path fill-rule="evenodd" clip-rule="evenodd" d="M17.0513 31.3873C18.7371 31.2736 19.9976 32.1583 20.4566 33.7828C28.1303 33.6474 35.8052 33.5621 43.48 33.5259C44.9456 33.5111 50.6122 33.2514 51.646 33.5093C52.0593 34.0141 51.9915 36.9101 51.7388 37.442C51.2289 37.8432 46.8063 37.6713 45.774 37.6646C37.5491 37.6618 28.5839 37.8282 20.4263 37.565C20.4079 37.6904 20.3857 37.8155 20.3618 37.94C19.9811 39.8785 17.6153 41.0542 15.9673 39.8111C15.092 39.3416 14.9356 38.0963 14.3609 37.4771C13.1674 36.1923 12.669 36.5437 13.2896 34.6129C13.794 34.237 14.0622 34.1204 14.6197 33.856C15.3878 32.3399 15.5053 31.9889 17.0513 31.3873ZM19.1343 37.5455C18.0724 37.5413 17.0116 37.5476 15.9497 37.565C16.1808 38.4018 16.9726 39.1734 17.8872 38.9107C18.1367 38.838 18.371 38.7234 18.5826 38.5728C18.7658 38.2395 18.9684 37.8845 19.1343 37.5455ZM48.5659 34.6793L24.3609 35.1949C22.8474 35.2245 15.2427 35.0727 14.4409 35.5142L14.3999 35.6646C14.9294 36.2652 15.8282 36.15 16.5562 36.1334L50.5699 36.3453C50.5677 35.795 50.5486 35.1748 50.5855 34.6314L48.5659 34.6793ZM17.1783 32.7476C16.8366 32.9615 16.486 33.1206 16.3286 33.481L16.3902 33.6587C16.887 33.8857 17.5877 33.7953 18.1626 33.7779L18.7124 33.7496L18.856 33.5777C18.5913 32.8723 17.8476 32.7422 17.1783 32.7476ZM10.3267 10.9986C11.3564 10.9472 18.5103 10.8306 19.0386 11.0923C19.2469 11.397 19.1955 11.7973 18.9742 12.0796C17.9062 12.6364 13.5565 12.1687 12.0777 12.2662C10.3472 12.3802 8.77594 12.5767 8.1597 14.5953C7.17784 17.8101 6.10421 20.9915 5.02689 24.1763C4.90758 24.5317 4.79296 25.0578 4.78861 25.4361C4.96762 27.4414 6.53068 27.7791 8.22318 27.7818C12.0908 27.7975 15.9078 27.7865 19.7505 27.7847L42.3394 27.7828L52.6597 27.7945C54.4237 27.7989 56.4876 27.8634 58.2408 27.6675C58.8764 27.5962 59.6415 26.5729 59.9908 26.0484C60.1155 23.1908 57.4784 18.0684 56.9185 15.0503C56.7514 14.1487 56.1445 13.248 55.357 12.7466C53.7493 11.7243 47.9012 12.7539 46.6558 12.1392C46.62 11.5736 46.5407 11.6101 46.7544 11.1578C46.8348 11.1086 47.0113 11.0225 47.1197 11.0162C49.6344 10.8759 52.2317 10.9284 54.7486 11.0337C55.7183 11.0742 57.1873 12.1341 57.5728 13.0103C58.4646 15.0402 59.0042 17.2574 59.6909 19.3707C60.2399 21.0618 60.8495 22.7744 61.2661 24.4986C61.5135 25.5564 61.4194 26.3039 60.9292 27.1685C59.9506 28.895 58.9963 28.4953 57.5034 29.2564C57.4036 29.4349 57.0402 30.2623 56.9361 30.3638C55.9792 31.2984 53.2901 31.1697 52.2495 30.44C51.8177 30.1371 51.7592 29.5639 51.7017 29.1226C48.5847 29.0606 13.3943 29.0348 13.1773 29.1568C12.9354 29.2929 12.8207 30.3962 11.7622 30.7886C10.9952 31.073 8.96592 31.1124 8.21732 30.732C7.56534 30.4005 7.40381 29.7429 7.21829 29.0953C6.42846 28.9951 5.71864 28.8655 5.03079 28.4322C4.12823 27.8642 3.63438 26.9275 3.40872 25.9078C3.18089 24.8745 6.80617 13.9303 7.53958 12.8052C8.17753 11.8272 9.21576 11.252 10.3267 10.9986ZM56.0191 29.2447C55.5645 28.9883 53.6129 29.1098 52.9693 29.1285C53.209 29.923 55.3305 29.6274 56.0435 29.5337L56.0191 29.2447ZM11.5689 29.2603C11.097 28.939 9.31768 29.0954 8.64603 29.1255C8.70564 29.3352 8.67647 29.407 8.84622 29.4908C9.37242 29.7502 11.0058 29.6434 11.5689 29.5679V29.2603ZM13.7105 16.2154C16.8221 15.9251 20.5945 17.2038 19.7808 20.9986C19.1732 23.8317 18.1476 25.484 15.0904 25.7808C14.9918 25.7877 14.8921 25.791 14.7935 25.7906C12.1182 25.7891 10.3031 25.495 9.22904 22.7007C8.68765 21.2925 8.74629 20.1589 8.76907 18.689C8.88835 18.5145 9.01223 18.3432 9.14017 18.1753C10.2934 16.6876 11.9964 16.422 13.7105 16.2154ZM48.5533 16.3179C57.7368 15.4903 60.263 24.6503 51.2202 25.6861C48.8683 25.8302 46.7676 25.7955 44.7378 24.4107C42.8263 23.1062 42.1995 20.8398 43.6294 18.9058C44.7838 17.3453 46.6785 16.5857 48.5533 16.3179ZM18.5659 21.3931C15.357 22.6338 13.5387 22.7997 10.2808 21.4322C10.82 25.1761 15.8025 25.4797 17.5581 23.1412C17.9118 22.5689 18.247 21.9856 18.5659 21.3931ZM55.7495 21.1666C54.3207 18.3562 52.0218 17.2216 48.9038 17.6246C41.7369 18.6549 43.1332 25.1237 51.0738 24.3003C53.5713 24.0218 54.7048 23.5436 55.7495 21.1666ZM32.0249 1.0357C36.2952 0.775522 42.6671 1.8735 44.9595 6.1148C45.9682 7.98237 45.2712 11.3348 44.5943 13.2642C43.506 16.3629 41.4077 18.85 38.4146 20.2681C38.5718 21.488 38.5514 21.8943 37.9224 22.9625C36.3991 23.7534 35.4973 23.9745 33.8189 24.2046C31.9766 24.2301 28.8791 24.1468 27.5425 22.566C26.9318 21.8431 26.9933 21.0997 27.105 20.2193C22.5931 17.8357 20.478 13.8109 20.1167 8.80328C19.8477 5.06114 23.3219 2.95846 26.4107 1.93218C28.4102 1.26755 29.9549 1.14137 32.0249 1.0357ZM48.1617 19.0103C50.1058 18.8812 49.3284 19.1604 51.0132 19.7554C52.4745 19.9648 54.1005 21.2943 53.5074 22.9009C53.2589 23.5736 49.4913 23.2761 49.2027 23.0152C48.9511 22.3572 49.1108 21.8962 49.2779 21.2291C49.5446 20.8904 49.8122 20.6625 49.6636 20.2349C48.8901 19.6879 47.5836 20.4727 47.2818 21.398C47.4022 22.4186 48.0362 22.0551 48.4322 22.69C48.1857 23.1391 47.2103 23.1826 46.7613 23.0982C45.0559 22.1844 46.5984 19.6426 48.1617 19.0103ZM28.355 20.7662C28.3713 21.155 28.3449 21.6274 28.6822 21.8531C31.2155 23.5473 34.5518 22.9457 37.0493 21.9312C37.2326 21.6525 37.2047 21.4901 37.2036 21.1627L37.0972 20.981C36.5526 20.9083 34.6654 21.49 33.9732 21.564C32.0054 21.7742 30.2165 21.2556 28.355 20.7662ZM51.2652 21.0211C50.9094 21.2717 50.4915 21.5106 50.3081 21.8961C50.4709 22.4056 51.1583 22.2755 51.6421 22.272C52.0859 22.3465 52.0243 22.4093 52.3531 22.2359C52.4485 21.6017 51.8043 21.1876 51.2652 21.0211ZM18.3999 19.1461C17.8725 17.5376 14.4818 17.4532 13.0767 17.6128C11.458 17.8552 8.36694 19.1065 11.5054 20.5142C12.5621 20.9881 14.5442 21.0511 15.7007 20.8794C16.447 20.7294 17.9049 20.3959 18.3326 19.7134C18.4389 19.5442 18.4639 19.3357 18.3999 19.1461ZM21.8628 11.9791C22.5138 13.3535 22.8961 14.3075 23.7173 15.607C26.052 18.5593 28.3919 19.8216 32.1021 20.1011C36.7401 20.4506 40.7306 18.2772 42.7974 14.0836C43.0632 13.5461 43.3902 12.9462 43.5562 12.3785C43.5344 12.3265 43.482 12.1864 43.4517 12.1529C38.2094 16.0929 30.2126 16.4528 24.3628 13.5601C23.4851 13.126 22.6559 12.5524 21.8628 11.9791ZM31.7661 2.3355C16.2722 3.63276 19.4577 14.5962 34.2974 14.0064C37.5087 13.5866 41.1293 12.985 43.3404 10.2642C43.8871 9.59074 43.9978 9.01459 44.1909 8.19488C43.8709 6.91845 43.5654 6.07053 42.4956 5.19097C39.6955 2.88936 35.2639 2.15752 31.7661 2.3355ZM31.5728 10.813C31.9795 10.8191 32.1978 10.6405 32.3247 10.8257C32.5523 11.1577 32.4357 11.3931 32.8023 11.6255C33.2673 11.3846 33.483 11.1258 33.9488 11.0933L33.9497 11.0943C33.4832 11.1265 33.2667 11.3853 32.8013 11.6265C32.4347 11.3941 32.5514 11.1587 32.3238 10.8267C32.1968 10.6417 31.9785 10.8202 31.5718 10.814C31.5367 10.7797 31.508 10.7483 31.482 10.7222C31.508 10.7483 31.5377 10.7787 31.5728 10.813ZM31.2242 7.02984C31.8046 3.23463 33.7351 3.41896 34.7007 7.02496C36.0191 7.3532 39.0061 8.56771 36.4243 9.89898C35.9286 10.1547 35.0608 9.99078 34.6431 10.191L34.6861 10.7535C34.4583 10.9817 34.2622 11.004 33.9497 11.0933H33.9488C33.3162 10.3114 34.2515 10.2507 34.3775 9.84234C34.1445 9.62786 33.9926 9.47206 33.6792 9.67828C32.1857 10.6618 32.8035 8.75187 31.2476 10.0669C27.3907 10.4115 27.7786 7.37711 31.2242 7.02984ZM31.482 10.7222C31.4595 10.6997 31.4402 10.6798 31.4234 10.6617C31.4402 10.6798 31.4595 10.6997 31.482 10.7222ZM31.4234 10.6617C31.3916 10.6275 31.3678 10.6008 31.3511 10.5738V10.5728C31.3679 10.5999 31.3914 10.6273 31.4234 10.6617ZM31.3267 10.525C31.3221 10.5132 31.3184 10.5009 31.315 10.4878C31.3184 10.5009 31.3221 10.5132 31.3267 10.525ZM31.2925 10.358C31.3 10.4124 31.3058 10.4531 31.315 10.4878C31.2943 10.4089 31.2891 10.2993 31.2466 10.0679L31.2476 10.0669L31.2925 10.358ZM35.8658 8.99468C35.7256 8.16891 34.9813 8.37001 34.273 8.39996C34.5844 9.15872 35.1486 9.18964 35.8658 8.99468ZM30.3501 8.39508C29.9868 8.56916 30.0146 8.48487 29.8736 8.78277C30.1902 9.12105 30.5582 9.04134 30.98 8.99957C31.2729 8.8096 31.2965 8.86227 31.4126 8.57476C31.0991 8.33673 30.7461 8.37457 30.3501 8.39508ZM32.8785 5.69976C32.2701 6.54425 32.1372 7.78058 33.0093 8.49957C33.4288 8.03805 33.4106 6.38277 33.0669 5.83062L32.8785 5.69976Z" fill="#EAAB80"/>
</svg>
