<svg width="66" height="41" viewBox="0 0 66 41" fill="none" xmlns="http://www.w3.org/2000/svg">
<g clip-path="url(#clip0_3063_1080)">
<path fill-rule="evenodd" clip-rule="evenodd" d="M37.9025 2C39.8807 2.31825 41.1502 5.48567 41.5431 7.23242C43.151 6.42613 44.8807 5.36346 45.0461 8.0957C45.1107 9.18225 45.1433 10.1977 45.1496 11.2871C46.0148 10.9175 46.5061 10.8374 47.4113 10.7031C47.8538 10.9702 48.3562 11.3424 48.7863 11.6445C48.907 10.9659 49.2965 9.20977 49.8683 9.00195C52.7645 7.95106 57.2115 10.7932 58.6789 13.0713C60.3015 15.5914 61.1403 18.6396 60.6554 21.3154C60.8643 21.3893 61.0702 21.4727 61.2716 21.5645C62.9105 22.3242 64.8525 24.2029 65.4084 25.9277C67.1165 31.2282 60.9345 34.0969 56.9503 35.4824C57.0498 39.443 56.6489 39.9814 52.5168 39.9521C49.6781 39.932 49.1844 40.1886 48.6261 37.3359C42.9421 37.8307 37.1511 38.3204 31.4484 38.2178C27.3851 38.1448 23.2886 37.539 19.2707 37.375C18.0236 39.4403 18.9606 40.0531 15.673 39.96C11.0942 39.8303 10.7246 39.9561 10.8078 35.4863C7.38587 34.5811 1.9299 31.7921 2.08121 27.6924C2.17907 25.0511 3.88139 23.5228 5.61343 21.8691L6.69156 20.8584C6.00511 20.5646 4.53518 20.2291 4.36636 19.4736C4.71151 18.8719 6.15378 18.5742 6.82242 18.3867C6.20502 17.8884 5.32686 17.4098 5.25894 16.5957C5.79337 15.9906 7.07246 16.0521 8.07632 15.8721C7.64535 15.2758 6.61092 14.3532 6.62808 13.6445C7.3419 13.1224 8.87731 14.2157 9.69253 13.9365C10.0786 13.1026 8.68697 11.866 9.25015 11.2852C9.98147 11.1094 11.2265 12.2405 12.1711 12.6123L12.3918 12.4951C12.6084 12.0862 12.4797 11.3477 12.6339 10.6846C12.9265 10.3366 12.7764 10.4199 13.1886 10.3408C13.9612 10.6714 14.0695 11.8645 15.05 11.9424C15.9655 11.5764 15.6518 10.8091 16.2619 9.85742C16.6201 9.66095 16.464 9.68516 16.8498 9.75293C17.5042 10.3027 17.329 11.6915 18.3087 12.0176C19.2655 12.3355 19.4198 10.8552 20.3107 10.4043C20.771 10.4043 20.5933 10.352 20.9816 10.6064C21.143 11.0849 21.0206 12.1243 20.9865 12.6738L22.006 13.2285C22.42 12.7726 23.4168 11.8332 24.0607 11.8994C24.5196 12.4801 23.814 13.5742 23.8664 14.5615C24.5416 15.1311 25.5703 13.8757 26.6496 14.4111C26.856 15.1887 26.0107 15.5535 25.5841 16.3867L25.673 16.6318C26.3215 17.0726 27.5864 16.8005 27.8302 17.4541C27.4026 18.2436 25.7935 18.8496 24.9748 19.1299C24.0544 17.0247 23.2999 15.8661 21.2619 14.6699C17.4186 12.4142 10.7044 13.2973 8.50699 17.5713C7.94692 18.649 7.85426 19.9095 8.25015 21.0576C9.38784 24.3843 13.9325 25.9623 17.1212 25.7041C19.3741 25.7349 22.7045 24.5528 23.9679 22.4941C25.8604 19.4107 26.8501 18.2288 30.4748 16.9336C29.9254 15.4853 28.512 11.6423 31.1437 11.5107C31.4358 11.4962 31.8619 11.5232 32.1603 11.5371C32.1802 10.982 32.1922 10.4042 32.2257 9.85156C32.3513 7.75367 32.5499 6.8337 34.7804 7.61133C35.2517 6.02983 36.5023 2.94718 37.9025 2ZM12.3996 35.8574C12.4019 36.4078 12.3439 37.4993 12.5509 37.9541C13.2067 38.2831 16.5872 38.2504 17.2482 38.1328L17.3556 36.9395C15.9285 36.646 13.6327 36.3586 12.3996 35.8574ZM55.1056 35.9756C54.2386 36.2375 50.5158 36.8447 50.2199 37.0645C50.1703 37.4727 50.359 37.7942 50.5255 38.1748C52.1235 38.1815 53.7356 38.2142 55.3273 38.0889C55.346 37.5524 55.4198 36.5686 55.3029 36.083L55.1056 35.9756ZM38.1115 3.92578C36.8369 6.18102 36.6005 7.69822 35.6691 9.53613C35.0014 9.21086 34.5028 8.96717 33.799 8.71289C33.7406 9.25782 33.6917 9.77181 33.6593 10.3389C33.6096 11.2036 33.9691 12.2769 33.2267 12.9326C32.7529 13.3512 31.782 13.1335 31.174 13.0371C31.3642 14.3239 31.4812 15.2624 31.8878 16.5127C35.3994 16.5305 38.8552 16.9086 41.5138 19.5264C43.4413 21.425 43.7605 23.6631 43.0119 26.1689C43.3786 26.835 43.6166 27.9381 43.3234 28.6992C40.8849 35.0154 28.4976 34.8101 24.9044 29.8105C24.3058 28.977 24.1389 27.0171 23.882 26.0361C23.8329 25.8505 23.0362 25.5881 22.799 25.5938C22.1984 26.2396 22.9634 27.2414 22.7687 28.125C22.0641 28.7463 20.6614 27.0288 20.0988 26.5635C20.1644 27.3239 20.3931 28.6971 19.9796 29.3252C19.094 29.5976 18.4711 27.6636 17.8459 27.3311C17.5994 28.0119 17.286 29.5323 16.7502 29.8477C15.9814 29.601 15.7963 27.8038 15.6681 27.0723C15.338 27.7082 14.6984 29.2609 14.0119 29.4277C13.3618 28.9514 13.4647 27.4602 13.4347 26.6855C12.5753 27.4708 11.9399 28.1202 11.1437 28.9727C10.947 28.738 10.6283 28.3788 10.4591 28.1426C10.7518 27.2169 10.8765 26.7406 11.0412 25.7852C10.5434 26.0773 8.77663 27.171 8.30777 27.2373L8.10074 27.1641C7.73775 26.3746 8.89064 24.8889 8.70425 24.4336C7.7798 24.4084 6.93362 25.4354 6.18472 25.0537C6.01312 24.5602 6.37253 23.9113 6.58218 23.4238C5.01182 24.6709 3.93252 25.7557 3.58902 27.8408C5.23829 33.0258 12.2484 34.1364 16.9435 35.1709C27.1612 37.2072 52.4557 37.4777 61.2199 31.6406C62.4186 30.8427 63.6605 29.6509 63.9552 28.1914C64.1479 27.2377 63.8574 26.3416 63.3214 25.5518C62.5418 24.4044 61.385 23.5701 60.2697 22.7773C59.6628 24.3065 58.899 26.3578 57.255 27.0547C56.9442 27.1866 56.3864 27.1308 56.0382 27.1094C55.1853 28.4894 53.8583 29.529 52.3029 30.0068C52.1201 30.063 51.3971 29.9809 51.3312 30.0361C49.7333 31.3906 48.2122 32.726 46.0461 31.3428C45.2937 30.8629 44.2275 29.2017 44.7336 28.1768C45.0941 27.9627 45.7528 28.1348 46.2687 28.1855C46.311 28.8287 46.2878 29.4729 46.8136 29.9277C48.4227 31.3223 51.6196 28.3567 49.5529 26.8984C48.5021 26.1576 46.4891 27.7731 45.6759 26.6553C46.089 24.8541 48.8092 25.6181 48.8322 24.2246C48.872 21.7664 46.4482 18.742 44.0744 18.1094C43.4514 17.9433 41.4057 19.3028 41.3283 17.4854C41.6441 16.8841 42.7632 16.8467 42.3878 16.251C41.1058 14.2142 41.1831 13.4713 43.4162 11.7754C43.5778 10.5958 43.5342 9.31428 43.5255 8.11719C42.46 8.65095 41.796 8.99611 40.8087 9.65039C40.3536 8.4744 39.1535 4.47653 38.1115 3.92578ZM33.4943 18.2266C29.6889 18.4132 24.028 20.9832 26.3742 25.6953C26.4635 25.8745 24.6991 28.013 27.0236 29.7207C29.3669 31.4422 31.3375 31.6841 34.1378 31.834C36.7989 31.6246 40.4099 31.246 41.6496 28.3887C42.124 27.2936 41.0031 26.5191 41.1144 26.2598C42.1826 23.7965 42.1379 22.2541 39.7814 20.2129C38.4395 19.051 35.6777 18.2542 33.4943 18.2266ZM28.0529 27.3564C28.437 27.4431 29.3544 27.828 29.755 27.9873C31.3394 28.617 32.6673 28.9621 34.382 28.8955C35.1281 28.8618 35.8706 28.7567 36.5968 28.583C37.4823 28.3655 39.442 27.2204 39.9406 28.0273C39.9381 28.3906 39.8783 28.483 39.7267 28.8057C39.2965 29.0075 38.862 29.1995 38.423 29.3818C35.5244 30.5643 31.8027 30.3227 28.8878 29.2031C28.4244 29.0251 27.9403 28.7343 27.7541 28.2529C27.7496 27.8213 27.8395 27.7163 28.0529 27.3564ZM53.8068 19.3828C53.4425 19.6403 52.9742 19.9511 52.631 20.2178C51.7817 22.9814 51.8357 22.8926 50.0812 25.2705C50.9852 26.0627 51.3734 26.3588 51.7726 27.5723C51.8721 27.8738 51.8415 28.2986 52.0529 28.5459C53.6992 27.6837 54.8822 26.5589 55.5089 24.7373C56.0982 23.0217 55.5066 20.2732 53.8068 19.3828ZM50.6877 10.4492C50.511 11.2985 50.1219 12.2696 50.6291 13.0625C51.3528 14.1971 52.4937 15.0562 53.2697 16.167C53.6151 16.6617 53.6162 17.3451 53.9084 17.7705C54.1409 18.1095 55.3855 17.7477 56.5109 20.0146C57.1762 21.3559 57.4192 22.7002 57.2824 24.1924C57.2625 24.4203 57.1581 24.8711 57.3556 24.9873C57.6054 24.7181 57.6829 24.6228 57.8781 24.3125C58.1926 23.6092 58.4789 22.9423 58.7101 22.2051C60.3449 16.978 56.5805 10.2971 50.6877 10.4492ZM16.6027 15.4893C23.8674 15.9731 24.288 23.3481 16.6427 23.7158C13.9345 23.698 12.4172 22.8041 10.9914 20.5293L11.1046 18.5654C11.3304 18.1918 11.5845 17.8359 11.8644 17.501C13.0863 16.0423 14.8154 15.6534 16.6027 15.4893ZM50.0382 15.6543C49.2809 14.129 48.1104 12.2427 46.1046 12.6133C42.5735 13.0962 42.4249 15.0695 45.3644 16.9102C46.093 17.3664 46.9032 17.7389 47.7101 18.0488C49.1936 20.105 49.254 20.6992 50.3595 22.6816C50.9241 20.5164 50.7048 19.7695 52.3947 18.4053L52.4953 18.1816C52.07 17.3635 51.43 16.4249 50.838 15.7168C50.419 16.4322 50.2007 17.0584 49.4347 17.2705C48.4256 17.0198 48.6639 16.3886 48.1193 15.8154C47.634 15.3043 46.3457 15.399 46.0548 14.5469C46.8196 13.2986 49.2411 15.2584 50.0382 15.6543ZM16.2375 17.0898C14.7237 17.2872 12.5039 17.9152 12.6593 19.8438C12.8006 21.5953 15.6275 22.4538 17.0646 22.249C18.257 21.9778 19.5168 21.7644 20.2462 20.6602C20.9577 19.5831 20.3436 18.3838 19.3136 17.8008C18.3589 17.2604 17.328 17.0445 16.2375 17.0898Z" fill="#EAAB80"/>
</g>
<defs>
<clipPath id="clip0_3063_1080">
<rect width="65.6" height="41" fill="white"/>
</clipPath>
</defs>
</svg>
